<svg xmlns="http://www.w3.org/2000/svg" xmlns:xlink="http://www.w3.org/1999/xlink" contentStyleType="text/css" height="1772px" preserveAspectRatio="none" style="width:1226px;height:1772px;background:#FFFFFF;" version="1.1" viewBox="0 0 1226 1772" width="1226px" zoomAndPan="magnify"><defs/><g><!--entity Admin--><g id="elem_Admin"><ellipse cx="565.4585" cy="599" fill="#F1F1F1" rx="16" ry="16" style="stroke:#181818;stroke-width:0.5;"/><path d="M565.4585,619 C569.4585,619 572.4585,619 576.4585,615 C584.4585,615 592.4585,623 592.4585,631 L592.4585,635 C592.4585,639 588.4585,643 584.4585,643 L546.4585,643 C542.4585,643 538.4585,639 538.4585,635 L538.4585,631 C538.4585,623 546.4585,615 554.4585,615 C558.4585,619 561.4585,619 565.4585,619 " fill="#F1F1F1" style="stroke:#181818;stroke-width:0.5;"/><text fill="#000000" font-family="sans-serif" font-size="14" lengthAdjust="spacing" textLength="73.917" x="528.5" y="658.6074">Main Admin</text></g><!--entity BUser--><g id="elem_BUser"><ellipse cx="565.5171" cy="1704" fill="#F1F1F1" rx="16" ry="16" style="stroke:#181818;stroke-width:0.5;"/><path d="M565.5171,1724 C569.5171,1724 572.5171,1724 576.5171,1720 C584.5171,1720 592.5171,1728 592.5171,1736 L592.5171,1740 C592.5171,1744 588.5171,1748 584.5171,1748 L546.5171,1748 C542.5171,1748 538.5171,1744 538.5171,1740 L538.5171,1736 C538.5171,1728 546.5171,1720 554.5171,1720 C558.5171,1724 561.5171,1724 565.5171,1724 " fill="#F1F1F1" style="stroke:#181818;stroke-width:0.5;"/><text fill="#000000" font-family="sans-serif" font-size="14" lengthAdjust="spacing" textLength="98.0342" x="516.5" y="1763.6074">Backoffice User</text></g><!--entity NBUSer--><g id="elem_NBUSer"><ellipse cx="122.6685" cy="22" fill="#F1F1F1" rx="16" ry="16" style="stroke:#181818;stroke-width:0.5;"/><path d="M122.6685,42 C126.6685,42 129.6685,42 133.6685,38 C141.6685,38 149.6685,46 149.6685,54 L149.6685,58 C149.6685,62 145.6685,66 141.6685,66 L103.6685,66 C99.6685,66 95.6685,62 95.6685,58 L95.6685,54 C95.6685,46 103.6685,38 111.6685,38 C115.6685,42 118.6685,42 122.6685,42 " fill="#F1F1F1" style="stroke:#181818;stroke-width:0.5;"/><text fill="#000000" font-family="sans-serif" font-size="14" lengthAdjust="spacing" textLength="216.3369" x="14.5" y="81.6074">Non-authenticated Backoffice User</text></g><!--entity patient--><g id="elem_patient"><ellipse cx="565.5" cy="1490" fill="#F1F1F1" rx="16" ry="16" style="stroke:#181818;stroke-width:0.5;"/><path d="M565.5,1510 C569.5,1510 572.5,1510 576.5,1506 C584.5,1506 592.5,1514 592.5,1522 L592.5,1526 C592.5,1530 588.5,1534 584.5,1534 L546.5,1534 C542.5,1534 538.5,1530 538.5,1526 L538.5,1522 C538.5,1514 546.5,1506 554.5,1506 C558.5,1510 561.5,1510 565.5,1510 " fill="#F1F1F1" style="stroke:#181818;stroke-width:0.5;"/><text fill="#000000" font-family="sans-serif" font-size="14" lengthAdjust="spacing" textLength="43.5859" x="543.707" y="1549.6074">Patient</text></g><!--entity doctor--><g id="elem_doctor"><ellipse cx="565.5" cy="1064" fill="#F1F1F1" rx="16" ry="16" style="stroke:#181818;stroke-width:0.5;"/><path d="M565.5,1084 C569.5,1084 572.5,1084 576.5,1080 C584.5,1080 592.5,1088 592.5,1096 L592.5,1100 C592.5,1104 588.5,1108 584.5,1108 L546.5,1108 C542.5,1108 538.5,1104 538.5,1100 L538.5,1096 C538.5,1088 546.5,1080 554.5,1080 C558.5,1084 561.5,1084 565.5,1084 " fill="#F1F1F1" style="stroke:#181818;stroke-width:0.5;"/><text fill="#000000" font-family="sans-serif" font-size="14" lengthAdjust="spacing" textLength="41.2344" x="544.8828" y="1123.6074">Doctor</text></g><g id="elem_5.1.1"><ellipse cx="565.4941" cy="506.4988" fill="#F1F1F1" rx="192.9941" ry="40.9988" style="stroke:#181818;stroke-width:0.5;"/><text fill="#000000" font-family="sans-serif" font-size="14" lengthAdjust="spacing" textLength="356.4053" x="387.2915" y="510.2957">Register new backoffice users via an out-of-band process</text></g><g id="elem_5.1.2"><ellipse cx="122.5651" cy="1727.513" fill="#F1F1F1" rx="85.5651" ry="19.513" style="stroke:#181818;stroke-width:0.5;"/><text fill="#000000" font-family="sans-serif" font-size="14" lengthAdjust="spacing" textLength="122.9307" x="58.0997" y="1732.3167">Reset my password</text></g><g id="elem_5.1.3"><ellipse cx="565.3596" cy="1408.4719" fill="#F1F1F1" rx="135.3596" ry="29.4719" style="stroke:#181818;stroke-width:0.5;"/><text fill="#000000" font-family="sans-serif" font-size="14" lengthAdjust="spacing" textLength="235.8057" x="447.4568" y="1412.2688">Register for the healthcare application</text></g><g id="elem_5.1.4"><ellipse cx="122.266" cy="1513.6532" fill="#F1F1F1" rx="83.766" ry="19.1532" style="stroke:#181818;stroke-width:0.5;"/><text fill="#000000" font-family="sans-serif" font-size="14" lengthAdjust="spacing" textLength="118.2891" x="60.1215" y="1518.4569">Update user profile</text></g><g id="elem_5.1.5"><ellipse cx="565.689" cy="1620.5378" fill="#F1F1F1" rx="148.189" ry="32.0378" style="stroke:#181818;stroke-width:0.5;"/><text fill="#000000" font-family="sans-serif" font-size="14" lengthAdjust="spacing" textLength="263.0469" x="434.1656" y="1624.3347">Delete my account and all associated data</text></g><g id="elem_5.1.6"><ellipse cx="565.7302" cy="45.446" fill="#F1F1F1" rx="145.2302" ry="31.446" style="stroke:#181818;stroke-width:0.5;"/><text fill="#000000" font-family="sans-serif" font-size="14" lengthAdjust="spacing" textLength="256.792" x="437.3342" y="49.2429">Log in to the system using my credentials</text></g><g id="elem_5.1.7"><ellipse cx="565.3597" cy="1297.5719" fill="#F1F1F1" rx="218.3597" ry="46.0719" style="stroke:#181818;stroke-width:0.5;"/><text fill="#000000" font-family="sans-serif" font-size="14" lengthAdjust="spacing" textLength="408.5361" x="361.0917" y="1301.3688">Log in to the healthcare system using my external IAM credentials</text></g><g id="elem_5.1.8"><ellipse cx="565.4513" cy="374.6903" fill="#F1F1F1" rx="266.4513" ry="55.6903" style="stroke:#181818;stroke-width:0.5;"/><text fill="#000000" font-family="sans-serif" font-size="14" lengthAdjust="spacing" textLength="506.6113" x="312.1456" y="378.4871">Create a new patient profile and register their personal details and medical history</text></g><g id="elem_5.1.9"><ellipse cx="122.4933" cy="701.5987" fill="#F1F1F1" rx="110.9933" ry="24.5987" style="stroke:#181818;stroke-width:0.5;"/><text fill="#000000" font-family="sans-serif" font-size="14" lengthAdjust="spacing" textLength="182.8887" x="31.049" y="705.3955">Edit an existing patient profile</text></g><g id="elem_5.1.10"><ellipse cx="565.4243" cy="914.3849" fill="#F1F1F1" rx="92.4243" ry="20.8849" style="stroke:#181818;stroke-width:0.5;"/><text fill="#000000" font-family="sans-serif" font-size="14" lengthAdjust="spacing" textLength="140.0889" x="492.3798" y="919.1886">Delete a patient profile</text></g><g id="elem_5.1.11"><ellipse cx="1056.4892" cy="530.2978" fill="#F1F1F1" rx="164.4892" ry="35.2978" style="stroke:#181818;stroke-width:0.5;"/><text fill="#000000" font-family="sans-serif" font-size="14" lengthAdjust="spacing" textLength="297.2676" x="907.8554" y="534.0947">List/search patient profiles by different attributes</text></g><g id="elem_5.1.12"><ellipse cx="565.6553" cy="239.3311" fill="#F1F1F1" rx="207.1553" ry="43.8311" style="stroke:#181818;stroke-width:0.5;"/><text fill="#000000" font-family="sans-serif" font-size="14" lengthAdjust="spacing" textLength="385.5537" x="372.8785" y="243.1279">Create a new staff profile and add them to the hospital's roster</text></g><g id="elem_5.1.13"><ellipse cx="122.5926" cy="622.6185" fill="#F1F1F1" rx="83.5926" ry="19.1185" style="stroke:#181818;stroke-width:0.5;"/><text fill="#000000" font-family="sans-serif" font-size="14" lengthAdjust="spacing" textLength="117.8379" x="60.6736" y="627.4222">Edit a staff's profile</text></g><g id="elem_5.1.14"><ellipse cx="565.6056" cy="836.7211" fill="#F1F1F1" rx="96.6056" ry="21.7211" style="stroke:#181818;stroke-width:0.5;"/><text fill="#000000" font-family="sans-serif" font-size="14" lengthAdjust="spacing" textLength="150.1855" x="488.3531" y="841.2705">Deactivate a staff profile</text></g><g id="elem_5.1.15"><ellipse cx="1056.2749" cy="622.655" fill="#F1F1F1" rx="96.2749" ry="21.655" style="stroke:#181818;stroke-width:0.5;"/><text fill="#000000" font-family="sans-serif" font-size="14" lengthAdjust="spacing" textLength="149.3994" x="979.307" y="627.2382">List/Search staff profiles</text></g><g id="elem_5.1.16"><ellipse cx="565.4049" cy="991.381" fill="#F1F1F1" rx="89.9049" ry="20.381" style="stroke:#181818;stroke-width:0.5;"/><text fill="#000000" font-family="sans-serif" font-size="14" lengthAdjust="spacing" textLength="133.875" x="495.4674" y="996.1847">Request an operation</text></g><g id="elem_5.1.17"><ellipse cx="122.2951" cy="1087.659" fill="#F1F1F1" rx="116.2951" ry="25.659" style="stroke:#181818;stroke-width:0.5;"/><text fill="#000000" font-family="sans-serif" font-size="14" lengthAdjust="spacing" textLength="194.5781" x="25.0061" y="1091.4559">Update an operation requisition</text></g><g id="elem_5.1.18"><ellipse cx="565.4886" cy="1189.2977" fill="#F1F1F1" rx="119.4886" ry="26.2977" style="stroke:#181818;stroke-width:0.5;"/><text fill="#000000" font-family="sans-serif" font-size="14" lengthAdjust="spacing" textLength="201.5645" x="464.7064" y="1193.0946">Remove an operation requisition</text></g><g id="elem_5.1.19"><ellipse cx="1056.4876" cy="1087.2975" fill="#F1F1F1" rx="121.9876" ry="26.7975" style="stroke:#181818;stroke-width:0.5;"/><text fill="#000000" font-family="sans-serif" font-size="14" lengthAdjust="spacing" textLength="207.0059" x="952.9847" y="1091.0944">List/Search operation requisitions</text></g><g id="elem_5.1.20"><ellipse cx="565.6953" cy="136.5391" fill="#F1F1F1" rx="108.1953" ry="24.0391" style="stroke:#181818;stroke-width:0.5;"/><text fill="#000000" font-family="sans-serif" font-size="14" lengthAdjust="spacing" textLength="176.668" x="477.3613" y="140.3359">Add new types of operations</text></g><g id="elem_5.1.21"><ellipse cx="122.494" cy="544.3988" fill="#F1F1F1" rx="107.494" ry="23.8988" style="stroke:#181818;stroke-width:0.5;"/><text fill="#000000" font-family="sans-serif" font-size="14" lengthAdjust="spacing" textLength="175.1025" x="34.9427" y="548.1957">Edit existing operation types</text></g><g id="elem_5.1.22"><ellipse cx="565.2519" cy="738.3504" fill="#F1F1F1" rx="192.2519" ry="40.8504" style="stroke:#181818;stroke-width:0.5;"/><text fill="#000000" font-family="sans-serif" font-size="14" lengthAdjust="spacing" textLength="354.874" x="387.8149" y="742.1473">Remove obsolete or no longer performed operation types</text></g><g id="elem_5.1.23"><ellipse cx="1056.5235" cy="702.7047" fill="#F1F1F1" rx="104.0235" ry="23.2047" style="stroke:#181818;stroke-width:0.5;"/><text fill="#000000" font-family="sans-serif" font-size="14" lengthAdjust="spacing" textLength="167.3164" x="972.8653" y="706.5016">List/search operation types</text></g><!--reverse link 5.1.1 to Admin--><g id="link_5.1.1_Admin"><path d="M565.5,553.59 C565.5,565.12 565.5,570.64 565.5,582.17 " fill="none" id="5.1.1-backto-Admin" style="stroke:#181818;stroke-width:1.0;"/><polygon fill="#181818" points="565.5,547.59,561.5,556.59,565.5,552.59,569.5,556.59,565.5,547.59" style="stroke:#181818;stroke-width:1.0;"/></g><!--reverse link 5.1.8 to Admin--><g id="link_5.1.8_Admin"><path d="M333.5019,406.4497 C304.7619,420.5297 285.17,437.85 269,466 C250.85,497.6 250.85,516.4 269,548 C319.69,636.25 460.79,634.1 528.42,627.45 " fill="none" id="5.1.8-backto-Admin" style="stroke:#181818;stroke-width:1.0;"/><polygon fill="#181818" points="338.89,403.81,329.048,404.1775,334.3999,406.0097,332.5676,411.3616,338.89,403.81" style="stroke:#181818;stroke-width:1.0;"/></g><!--reverse link 5.1.9 to Admin--><g id="link_5.1.9_Admin"><path d="M215.216,685.072 C312.066,667.722 459.19,641.36 528.4,628.97 " fill="none" id="5.1.9-backto-Admin" style="stroke:#181818;stroke-width:1.0;"/><polygon fill="#181818" points="209.31,686.13,218.8743,688.4803,214.2317,685.2483,217.4636,680.6057,209.31,686.13" style="stroke:#181818;stroke-width:1.0;"/></g><!--link Admin to 5.1.10--><g id="link_Admin_5.1.10"><path d="M528.43,617.69 C460.81,611.31 319.73,609.68 269,698 C233.58,759.66 233.58,796.34 269,858 C311.15,931.39 412.1519,935.2878 485.3819,927.7078 " fill="none" id="Admin-to-5.1.10" style="stroke:#181818;stroke-width:1.0;"/><polygon fill="#181818" points="491.35,927.09,481.986,924.0379,486.3766,927.6048,482.8097,931.9954,491.35,927.09" style="stroke:#181818;stroke-width:1.0;"/></g><!--link Admin to 5.1.11--><g id="link_Admin_5.1.11"><path d="M602.85,615.66 C671.53,602.74 817.2835,575.3194 926.1335,554.8394 " fill="none" id="Admin-to-5.1.11" style="stroke:#181818;stroke-width:1.0;"/><polygon fill="#181818" points="932.03,553.73,922.4456,551.4631,927.1162,554.6545,923.9248,559.3252,932.03,553.73" style="stroke:#181818;stroke-width:1.0;"/></g><!--reverse link 5.1.12 to Admin--><g id="link_5.1.12_Admin"><path d="M357.9742,251.2648 C318.9142,263.7348 289.5,283.3 269,319 C243.65,363.13 243.65,503.87 269,548 C319.69,636.25 460.79,634.1 528.42,627.45 " fill="none" id="5.1.12-backto-Admin" style="stroke:#181818;stroke-width:1.0;"/><polygon fill="#181818" points="363.69,249.44,353.8998,248.3666,358.9268,250.9606,356.3328,255.9877,363.69,249.44" style="stroke:#181818;stroke-width:1.0;"/></g><!--reverse link 5.1.13 to Admin--><g id="link_5.1.13_Admin"><path d="M212.19,622.5 C308.83,622.5 458.43,622.5 528.39,622.5 " fill="none" id="5.1.13-backto-Admin" style="stroke:#181818;stroke-width:1.0;"/><polygon fill="#181818" points="206.19,622.5,215.19,626.5,211.19,622.5,215.19,618.5,206.19,622.5" style="stroke:#181818;stroke-width:1.0;"/></g><!--link Admin to 5.1.14--><g id="link_Admin_5.1.14"><path d="M528.43,617.69 C460.81,611.31 319.73,609.68 269,698 C250.85,729.6 250.85,748.4 269,780 C310.56,852.36 409.1786,857.1447 482.2986,849.9847 " fill="none" id="Admin-to-5.1.14" style="stroke:#181818;stroke-width:1.0;"/><polygon fill="#181818" points="488.27,849.4,478.923,846.2961,483.2938,849.8873,479.7027,854.2581,488.27,849.4" style="stroke:#181818;stroke-width:1.0;"/></g><!--link Admin to 5.1.15--><g id="link_Admin_5.1.15"><path d="M602.85,622.5 C677.56,622.5 844.46,622.5 953.64,622.5 " fill="none" id="Admin-to-5.1.15" style="stroke:#181818;stroke-width:1.0;"/><polygon fill="#181818" points="959.64,622.5,950.64,618.5,954.64,622.5,950.64,626.5,959.64,622.5" style="stroke:#181818;stroke-width:1.0;"/></g><!--reverse link 5.1.20 to Admin--><g id="link_5.1.20_Admin"><path d="M468.5613,123.1227 C396.6513,118.7127 308.09,127.94 269,196 C230.04,263.83 230.04,480.17 269,548 C319.69,636.25 460.79,634.1 528.42,627.45 " fill="none" id="5.1.20-backto-Admin" style="stroke:#181818;stroke-width:1.0;"/><polygon fill="#181818" points="474.55,123.49,465.8117,118.9466,469.5594,123.1839,465.322,126.9316,474.55,123.49" style="stroke:#181818;stroke-width:1.0;"/></g><!--reverse link 5.1.21 to Admin--><g id="link_5.1.21_Admin"><path d="M213.1383,560.3551 C309.8083,577.4551 458.55,603.76 528.3,616.1 " fill="none" id="5.1.21-backto-Admin" style="stroke:#181818;stroke-width:1.0;"/><polygon fill="#181818" points="207.23,559.31,215.3957,564.8165,212.1536,560.1809,216.7892,556.9388,207.23,559.31" style="stroke:#181818;stroke-width:1.0;"/></g><!--link Admin to 5.1.22--><g id="link_Admin_5.1.22"><path d="M565.5,662.51 C565.5,674.1 565.5,679.68 565.5,691.27 " fill="none" id="Admin-to-5.1.22" style="stroke:#181818;stroke-width:1.0;"/><polygon fill="#181818" points="565.5,697.27,569.5,688.27,565.5,692.27,561.5,688.27,565.5,697.27" style="stroke:#181818;stroke-width:1.0;"/></g><!--link Admin to 5.1.23--><g id="link_Admin_5.1.23"><path d="M602.85,628.45 C680.55,641.16 858.5288,670.271 966.4988,687.941 " fill="none" id="Admin-to-5.1.23" style="stroke:#181818;stroke-width:1.0;"/><polygon fill="#181818" points="972.42,688.91,964.1842,683.5089,967.4856,688.1025,962.8921,691.4039,972.42,688.91" style="stroke:#181818;stroke-width:1.0;"/></g><!--reverse link 5.1.16 to doctor--><g id="link_5.1.16_doctor"><path d="M565.5,1018.02 C565.5,1029.8 565.5,1035.59 565.5,1047.38 " fill="none" id="5.1.16-backto-doctor" style="stroke:#181818;stroke-width:1.0;"/><polygon fill="#181818" points="565.5,1012.02,561.5,1021.02,565.5,1017.02,569.5,1021.02,565.5,1012.02" style="stroke:#181818;stroke-width:1.0;"/></g><!--reverse link 5.1.17 to doctor--><g id="link_5.1.17_doctor"><path d="M245.08,1087.5 C346.39,1087.5 480.24,1087.5 537.96,1087.5 " fill="none" id="5.1.17-backto-doctor" style="stroke:#181818;stroke-width:1.0;"/><polygon fill="#181818" points="239.08,1087.5,248.08,1091.5,244.08,1087.5,248.08,1083.5,239.08,1087.5" style="stroke:#181818;stroke-width:1.0;"/></g><!--link doctor to 5.1.18--><g id="link_doctor_5.1.18"><path d="M565.5,1127.51 C565.5,1139.27 565.5,1145.04 565.5,1156.8 " fill="none" id="doctor-to-5.1.18" style="stroke:#181818;stroke-width:1.0;"/><polygon fill="#181818" points="565.5,1162.8,569.5,1153.8,565.5,1157.8,561.5,1153.8,565.5,1162.8" style="stroke:#181818;stroke-width:1.0;"/></g><!--link doctor to 5.1.19--><g id="link_doctor_5.1.19"><path d="M593.14,1087.5 C656.62,1087.5 814.04,1087.5 928.5,1087.5 " fill="none" id="doctor-to-5.1.19" style="stroke:#181818;stroke-width:1.0;"/><polygon fill="#181818" points="934.5,1087.5,925.5,1083.5,929.5,1087.5,925.5,1091.5,934.5,1087.5" style="stroke:#181818;stroke-width:1.0;"/></g><!--reverse link 5.1.3 to patient--><g id="link_5.1.3_patient"><path d="M565.5,1444.12 C565.5,1455.85 565.5,1461.58 565.5,1473.3 " fill="none" id="5.1.3-backto-patient" style="stroke:#181818;stroke-width:1.0;"/><polygon fill="#181818" points="565.5,1438.12,561.5,1447.12,565.5,1443.12,569.5,1447.12,565.5,1438.12" style="stroke:#181818;stroke-width:1.0;"/></g><!--reverse link 5.1.4 to patient--><g id="link_5.1.4_patient"><path d="M212.71,1513.5 C314.05,1513.5 473.65,1513.5 537.87,1513.5 " fill="none" id="5.1.4-backto-patient" style="stroke:#181818;stroke-width:1.0;"/><polygon fill="#181818" points="206.71,1513.5,215.71,1517.5,211.71,1513.5,215.71,1509.5,206.71,1513.5" style="stroke:#181818;stroke-width:1.0;"/></g><!--link patient to 5.1.5--><g id="link_patient_5.1.5"><path d="M565.5,1553.54 C565.5,1565.13 565.5,1570.72 565.5,1582.32 " fill="none" id="patient-to-5.1.5" style="stroke:#181818;stroke-width:1.0;"/><polygon fill="#181818" points="565.5,1588.32,569.5,1579.32,565.5,1583.32,561.5,1579.32,565.5,1588.32" style="stroke:#181818;stroke-width:1.0;"/></g><!--reverse link 5.1.7 to patient--><g id="link_5.1.7_patient"><path d="M375.4563,1323.8737 C295.9063,1343.5937 233.96,1377 269,1438 C322.18,1530.58 474.63,1524.33 537.69,1517.36 " fill="none" id="5.1.7-backto-patient" style="stroke:#181818;stroke-width:1.0;"/><polygon fill="#181818" points="381.28,1322.43,371.582,1320.713,376.4269,1323.6331,373.5069,1328.478,381.28,1322.43" style="stroke:#181818;stroke-width:1.0;"/></g><!--reverse link 5.1.2 to BUser--><g id="link_5.1.2_BUser"><path d="M214.01,1727.5 C305.54,1727.5 442.38,1727.5 516.4,1727.5 " fill="none" id="5.1.2-backto-BUser" style="stroke:#181818;stroke-width:1.0;"/><polygon fill="#181818" points="208.01,1727.5,217.01,1731.5,213.01,1727.5,217.01,1723.5,208.01,1727.5" style="stroke:#181818;stroke-width:1.0;"/></g><!--link NBUSer to 5.1.6--><g id="link_NBUSer_5.1.6"><path d="M230.54,45.5 C287.51,45.5 352.38,45.5 414.16,45.5 " fill="none" id="NBUSer-to-5.1.6" style="stroke:#181818;stroke-width:1.0;"/><polygon fill="#181818" points="420.16,45.5,411.16,41.5,415.16,45.5,411.16,49.5,420.16,45.5" style="stroke:#181818;stroke-width:1.0;"/></g><!--SRC=[ZLN1Rjim3BtxAtHhUqWJkqcRvZ2WNNSOi1R3Ydu0Oz69K5bo9RbP_dwKl4Ioumox10Br-CZtoCWNM-SQkvfE6mdAjRMyBdKzRIrEIg0VBc1ZeCxikr0Dq8b1wRHvTNk937PeTOsPnCenfvaHcwrZN1WidT0gorRF81HxuBLGAmQsEsMhHoZVTLM94jcRHHEk7lqfMxreDO7MRL4vKO93piR0Buzlhnxz4vmWP8WrtPbbgoVjMmn17evPTlaBDy8wD4pXZgqZ9GarbdqAOA2ORjr4LvCrACuQeqkqzigpN2wky-lyAj1OTApUKpLhTzhmU5zSfMKgRHYfO5i4wROb67AhQQJNHCx4h1kVzTPmaXfwyNKh8J4YvXxnX189GOMXB7LBCdsF82N1h2v5S8f88EOjVDuFlM4q0PgDRyRkgRUQwWYryLobGUwD1fdel3tDIqGCAV0tgLKWsVU7vt6-Ey_trQ1N2C7-mwJ-IWrIpC4ugYV81PgAzhGS7GXf0wP6Jlv9jYMaDljOOkbBVEF2kq8TqRNlRb0cmkyJH-4yB9y59uXjQX5CkHr2BLllQTkh2esFWdD6h5k7wTBa9-gjWwhgQGVElUpwQBUsZN0WBompsfkIy1LHQiT4eDFERpg5z5SLdrtbNjK4EJzgVEqqze2faaMttnyjsk2pfXaDbZc_JROvXT1uFrfXnG1-rr7M-lE_uCjXhwC9QSzXqWzahpVUxHiQcQvYMW8jPaTZZmiKwKDg0iwJnlNQwh1Az8zNcacjDXWMc9u0sjX_i1J3_JeFzGFDmkl99lwrdNo9Zz98U1d3RNC8tiTWUAYF7BDumVLE7UDdoCCEdh27dHkbdv-XNupJ5xCn-Y8_GryKu_J1ikxv7xH_crma_TybuRw0PNBJK-0TFRm9lHetwKMiCK_3lHgBSqo-g_1fx9b1mUuJo2Q7c5UL_G40]--></g></svg>