<svg xmlns="http://www.w3.org/2000/svg" xmlns:xlink="http://www.w3.org/1999/xlink" contentStyleType="text/css" height="792px" preserveAspectRatio="none" style="width:1194px;height:792px;background:#FFFFFF;" version="1.1" viewBox="0 0 1194 792" width="1194px" zoomAndPan="magnify"><defs/><g><rect fill="#DDDDDD" height="780.6445" style="stroke:#181818;stroke-width:0.5;" width="1136.8789" x="51.6587" y="6"/><text fill="#000000" font-family="sans-serif" font-size="13" font-weight="bold" lengthAdjust="spacing" textLength="104.019" x="532.6973" y="20.0283">&#171;Container (C4)&#187;</text><text fill="#000000" font-family="sans-serif" font-size="13" font-weight="bold" lengthAdjust="spacing" textLength="171.1899" x="536.3091" y="37.3193">Backoffice Web Application</text><rect fill="#FFFFFF" height="629.5293" style="stroke:#181818;stroke-width:1.0;" width="10" x="98.1309" y="111.4941"/><rect fill="#FFFFFF" height="557.9473" style="stroke:#181818;stroke-width:1.0;" width="10" x="247.4707" y="142.7852"/><rect fill="#FFFFFF" height="31.291" style="stroke:#181818;stroke-width:1.0;" width="10" x="478.4541" y="218.3672"/><rect fill="#FFFFFF" height="31.291" style="stroke:#181818;stroke-width:1.0;" width="10" x="478.4541" y="593.8594"/><rect fill="#FFFFFF" height="281.6191" style="stroke:#181818;stroke-width:1.0;" width="10" x="600.8848" y="280.9492"/><rect fill="#FFFFFF" height="93.873" style="stroke:#181818;stroke-width:1.0;" width="10" x="777.6528" y="312.2402"/><rect fill="#FFFFFF" height="31.291" style="stroke:#181818;stroke-width:1.0;" width="10" x="777.6528" y="499.9863"/><rect fill="#FFFFFF" height="31.291" style="stroke:#181818;stroke-width:1.0;" width="10" x="877.8491" y="343.5313"/><rect fill="#FFFFFF" height="31.291" style="stroke:#181818;stroke-width:1.0;" width="10" x="980.8384" y="437.4043"/><line style="stroke:#181818;stroke-width:0.5;stroke-dasharray:5.0,5.0;" x1="102.6587" x2="102.6587" y1="78.2031" y2="750.0234"/><line style="stroke:#181818;stroke-width:0.5;stroke-dasharray:5.0,5.0;" x1="252.333" x2="252.333" y1="78.2031" y2="750.0234"/><line style="stroke:#181818;stroke-width:0.5;stroke-dasharray:5.0,5.0;" x1="483.1577" x2="483.1577" y1="78.2031" y2="750.0234"/><line style="stroke:#181818;stroke-width:0.5;stroke-dasharray:5.0,5.0;" x1="605.7505" x2="605.7505" y1="78.2031" y2="750.0234"/><line style="stroke:#181818;stroke-width:0.5;stroke-dasharray:5.0,5.0;" x1="782.1255" x2="782.1255" y1="78.2031" y2="750.0234"/><line style="stroke:#181818;stroke-width:0.5;stroke-dasharray:5.0,5.0;" x1="882.0562" x2="882.0562" y1="78.2031" y2="750.0234"/><line style="stroke:#181818;stroke-width:0.5;stroke-dasharray:5.0,5.0;" x1="985.6421" x2="985.6421" y1="78.2031" y2="750.0234"/><line style="stroke:#181818;stroke-width:0.5;stroke-dasharray:5.0,5.0;" x1="1122.0347" x2="1122.0347" y1="78.2031" y2="750.0234"/><rect fill="#E2E2F0" height="32.6211" rx="2.5" ry="2.5" style="stroke:#181818;stroke-width:0.5;" width="94.9443" x="55.6587" y="44.582"/><text fill="#000000" font-family="sans-serif" font-size="14" lengthAdjust="spacing" textLength="80.9443" x="62.6587" y="66.6895">PatientRoute</text><rect fill="#E2E2F0" height="32.6211" rx="2.5" ry="2.5" style="stroke:#181818;stroke-width:0.5;" width="94.9443" x="55.6587" y="749.0234"/><text fill="#000000" font-family="sans-serif" font-size="14" lengthAdjust="spacing" textLength="80.9443" x="62.6587" y="771.1309">PatientRoute</text><rect fill="#E2E2F0" height="32.6211" rx="2.5" ry="2.5" style="stroke:#181818;stroke-width:0.5;" width="118.2754" x="193.333" y="44.582"/><text fill="#000000" font-family="sans-serif" font-size="14" lengthAdjust="spacing" textLength="104.2754" x="200.333" y="66.6895">PatientController</text><rect fill="#E2E2F0" height="32.6211" rx="2.5" ry="2.5" style="stroke:#181818;stroke-width:0.5;" width="118.2754" x="193.333" y="749.0234"/><text fill="#000000" font-family="sans-serif" font-size="14" lengthAdjust="spacing" textLength="104.2754" x="200.333" y="771.1309">PatientController</text><rect fill="#E2E2F0" height="32.6211" rx="2.5" ry="2.5" style="stroke:#181818;stroke-width:0.5;" width="120.5928" x="423.1577" y="44.582"/><text fill="#000000" font-family="sans-serif" font-size="14" lengthAdjust="spacing" textLength="106.5928" x="430.1577" y="66.6895">JsonDTOMapper</text><rect fill="#E2E2F0" height="32.6211" rx="2.5" ry="2.5" style="stroke:#181818;stroke-width:0.5;" width="120.5928" x="423.1577" y="749.0234"/><text fill="#000000" font-family="sans-serif" font-size="14" lengthAdjust="spacing" textLength="106.5928" x="430.1577" y="771.1309">JsonDTOMapper</text><rect fill="#E2E2F0" height="32.6211" rx="2.5" ry="2.5" style="stroke:#181818;stroke-width:0.5;" width="104.2686" x="553.7505" y="44.582"/><text fill="#000000" font-family="sans-serif" font-size="14" lengthAdjust="spacing" textLength="90.2686" x="560.7505" y="66.6895">PatientService</text><rect fill="#E2E2F0" height="32.6211" rx="2.5" ry="2.5" style="stroke:#181818;stroke-width:0.5;" width="104.2686" x="553.7505" y="749.0234"/><text fill="#000000" font-family="sans-serif" font-size="14" lengthAdjust="spacing" textLength="90.2686" x="560.7505" y="771.1309">PatientService</text><rect fill="#E2E2F0" height="32.6211" rx="2.5" ry="2.5" style="stroke:#181818;stroke-width:0.5;" width="105.0547" x="730.1255" y="44.582"/><text fill="#000000" font-family="sans-serif" font-size="14" lengthAdjust="spacing" textLength="91.0547" x="737.1255" y="66.6895">PatientMapper</text><rect fill="#E2E2F0" height="32.6211" rx="2.5" ry="2.5" style="stroke:#181818;stroke-width:0.5;" width="105.0547" x="730.1255" y="749.0234"/><text fill="#000000" font-family="sans-serif" font-size="14" lengthAdjust="spacing" textLength="91.0547" x="737.1255" y="771.1309">PatientMapper</text><rect fill="#E2E2F0" height="32.6211" rx="2.5" ry="2.5" style="stroke:#181818;stroke-width:0.5;" width="57.5859" x="854.0562" y="44.582"/><text fill="#000000" font-family="sans-serif" font-size="14" lengthAdjust="spacing" textLength="43.5859" x="861.0562" y="66.6895">Patient</text><rect fill="#E2E2F0" height="32.6211" rx="2.5" ry="2.5" style="stroke:#181818;stroke-width:0.5;" width="57.5859" x="854.0562" y="749.0234"/><text fill="#000000" font-family="sans-serif" font-size="14" lengthAdjust="spacing" textLength="43.5859" x="861.0562" y="771.1309">Patient</text><rect fill="#E2E2F0" height="32.6211" rx="2.5" ry="2.5" style="stroke:#181818;stroke-width:0.5;" width="128.3926" x="921.6421" y="44.582"/><text fill="#000000" font-family="sans-serif" font-size="14" lengthAdjust="spacing" textLength="114.3926" x="928.6421" y="66.6895">IPatientRepository</text><rect fill="#E2E2F0" height="32.6211" rx="2.5" ry="2.5" style="stroke:#181818;stroke-width:0.5;" width="128.3926" x="921.6421" y="749.0234"/><text fill="#000000" font-family="sans-serif" font-size="14" lengthAdjust="spacing" textLength="114.3926" x="928.6421" y="771.1309">IPatientRepository</text><rect fill="#E2E2F0" height="32.6211" rx="2.5" ry="2.5" style="stroke:#181818;stroke-width:0.5;" width="124.5029" x="1060.0347" y="44.582"/><text fill="#000000" font-family="sans-serif" font-size="14" lengthAdjust="spacing" textLength="110.5029" x="1067.0347" y="66.6895">PatientRepository</text><rect fill="#E2E2F0" height="32.6211" rx="2.5" ry="2.5" style="stroke:#181818;stroke-width:0.5;" width="124.5029" x="1060.0347" y="749.0234"/><text fill="#000000" font-family="sans-serif" font-size="14" lengthAdjust="spacing" textLength="110.5029" x="1067.0347" y="771.1309">PatientRepository</text><rect fill="#FFFFFF" height="629.5293" style="stroke:#181818;stroke-width:1.0;" width="10" x="98.1309" y="111.4941"/><rect fill="#FFFFFF" height="557.9473" style="stroke:#181818;stroke-width:1.0;" width="10" x="247.4707" y="142.7852"/><rect fill="#FFFFFF" height="31.291" style="stroke:#181818;stroke-width:1.0;" width="10" x="478.4541" y="218.3672"/><rect fill="#FFFFFF" height="31.291" style="stroke:#181818;stroke-width:1.0;" width="10" x="478.4541" y="593.8594"/><rect fill="#FFFFFF" height="281.6191" style="stroke:#181818;stroke-width:1.0;" width="10" x="600.8848" y="280.9492"/><rect fill="#FFFFFF" height="93.873" style="stroke:#181818;stroke-width:1.0;" width="10" x="777.6528" y="312.2402"/><rect fill="#FFFFFF" height="31.291" style="stroke:#181818;stroke-width:1.0;" width="10" x="777.6528" y="499.9863"/><rect fill="#FFFFFF" height="31.291" style="stroke:#181818;stroke-width:1.0;" width="10" x="877.8491" y="343.5313"/><rect fill="#FFFFFF" height="31.291" style="stroke:#181818;stroke-width:1.0;" width="10" x="980.8384" y="437.4043"/><polygon fill="#181818" points="86.1309,107.4941,96.1309,111.4941,86.1309,115.4941,90.1309,111.4941" style="stroke:#181818;stroke-width:1.0;"/><line style="stroke:#181818;stroke-width:1.0;" x1="0" x2="92.1309" y1="111.4941" y2="111.4941"/><text fill="#000000" font-family="sans-serif" font-size="13" font-weight="bold" lengthAdjust="spacing" textLength="7.23" x="7" y="106.2314">1</text><text fill="#000000" font-family="sans-serif" font-size="13" lengthAdjust="spacing" textLength="67.9009" x="18.23" y="106.2314">POST(json)</text><polygon fill="#181818" points="235.4707,138.7852,245.4707,142.7852,235.4707,146.7852,239.4707,142.7852" style="stroke:#181818;stroke-width:1.0;"/><line style="stroke:#181818;stroke-width:1.0;" x1="108.1309" x2="241.4707" y1="142.7852" y2="142.7852"/><text fill="#000000" font-family="sans-serif" font-size="13" font-weight="bold" lengthAdjust="spacing" textLength="7.23" x="115.1309" y="137.5225">2</text><text fill="#000000" font-family="sans-serif" font-size="13" lengthAdjust="spacing" textLength="109.1099" x="126.3608" y="137.5225">createPatient(json)</text><line style="stroke:#181818;stroke-width:1.0;" x1="257.4707" x2="299.4707" y1="174.0762" y2="174.0762"/><line style="stroke:#181818;stroke-width:1.0;" x1="299.4707" x2="299.4707" y1="174.0762" y2="187.0762"/><line style="stroke:#181818;stroke-width:1.0;" x1="258.4707" x2="299.4707" y1="187.0762" y2="187.0762"/><polygon fill="#181818" points="268.4707,183.0762,258.4707,187.0762,268.4707,191.0762,264.4707,187.0762" style="stroke:#181818;stroke-width:1.0;"/><text fill="#000000" font-family="sans-serif" font-size="13" font-weight="bold" lengthAdjust="spacing" textLength="7.23" x="264.4707" y="168.8135">3</text><text fill="#000000" font-family="sans-serif" font-size="13" lengthAdjust="spacing" textLength="77.3145" x="275.7007" y="168.8135">validate(json)</text><polygon fill="#181818" points="466.4541,214.3672,476.4541,218.3672,466.4541,222.3672,470.4541,218.3672" style="stroke:#181818;stroke-width:1.0;"/><line style="stroke:#181818;stroke-width:1.0;" x1="257.4707" x2="472.4541" y1="218.3672" y2="218.3672"/><text fill="#000000" font-family="sans-serif" font-size="13" font-weight="bold" lengthAdjust="spacing" textLength="7.23" x="264.4707" y="213.1045">4</text><text fill="#000000" font-family="sans-serif" font-size="13" lengthAdjust="spacing" textLength="140.8799" x="275.7007" y="213.1045">mapToDTOPatient(json)</text><polygon fill="#181818" points="268.4707,245.6582,258.4707,249.6582,268.4707,253.6582,264.4707,249.6582" style="stroke:#181818;stroke-width:1.0;"/><line style="stroke:#181818;stroke-width:1.0;stroke-dasharray:2.0,2.0;" x1="262.4707" x2="482.4541" y1="249.6582" y2="249.6582"/><text fill="#000000" font-family="sans-serif" font-size="13" font-weight="bold" lengthAdjust="spacing" textLength="7.23" x="274.4707" y="244.3955">5</text><text fill="#000000" font-family="sans-serif" font-size="13" lengthAdjust="spacing" textLength="67.9136" x="285.7007" y="244.3955">PatientDTO</text><polygon fill="#181818" points="588.8848,276.9492,598.8848,280.9492,588.8848,284.9492,592.8848,280.9492" style="stroke:#181818;stroke-width:1.0;"/><line style="stroke:#181818;stroke-width:1.0;" x1="257.4707" x2="594.8848" y1="280.9492" y2="280.9492"/><text fill="#000000" font-family="sans-serif" font-size="13" font-weight="bold" lengthAdjust="spacing" textLength="7.23" x="264.4707" y="275.6865">6</text><text fill="#000000" font-family="sans-serif" font-size="13" lengthAdjust="spacing" textLength="153.1753" x="275.7007" y="275.6865">createPatient(PatientDTO)</text><polygon fill="#181818" points="765.6528,308.2402,775.6528,312.2402,765.6528,316.2402,769.6528,312.2402" style="stroke:#181818;stroke-width:1.0;"/><line style="stroke:#181818;stroke-width:1.0;" x1="610.8848" x2="771.6528" y1="312.2402" y2="312.2402"/><text fill="#000000" font-family="sans-serif" font-size="13" font-weight="bold" lengthAdjust="spacing" textLength="7.23" x="617.8848" y="306.9775">7</text><text fill="#000000" font-family="sans-serif" font-size="13" lengthAdjust="spacing" textLength="136.5381" x="629.1147" y="306.9775">ToDomain(PatientDTO)</text><polygon fill="#181818" points="865.8491,339.5313,875.8491,343.5313,865.8491,347.5313,869.8491,343.5313" style="stroke:#181818;stroke-width:1.0;"/><line style="stroke:#181818;stroke-width:1.0;" x1="787.6528" x2="871.8491" y1="343.5313" y2="343.5313"/><text fill="#000000" font-family="sans-serif" font-size="13" font-weight="bold" lengthAdjust="spacing" textLength="7.23" x="794.6528" y="338.2686">8</text><text fill="#000000" font-family="sans-serif" font-size="13" lengthAdjust="spacing" textLength="59.9663" x="805.8828" y="338.2686">Patient(...)</text><polygon fill="#181818" points="798.6528,370.8223,788.6528,374.8223,798.6528,378.8223,794.6528,374.8223" style="stroke:#181818;stroke-width:1.0;"/><line style="stroke:#181818;stroke-width:1.0;stroke-dasharray:2.0,2.0;" x1="792.6528" x2="881.8491" y1="374.8223" y2="374.8223"/><text fill="#000000" font-family="sans-serif" font-size="13" font-weight="bold" lengthAdjust="spacing" textLength="7.23" x="804.6528" y="369.5596">9</text><text fill="#000000" font-family="sans-serif" font-size="13" lengthAdjust="spacing" textLength="39.0317" x="815.8828" y="369.5596">patient</text><polygon fill="#181818" points="621.8848,402.1133,611.8848,406.1133,621.8848,410.1133,617.8848,406.1133" style="stroke:#181818;stroke-width:1.0;"/><line style="stroke:#181818;stroke-width:1.0;stroke-dasharray:2.0,2.0;" x1="615.8848" x2="781.6528" y1="406.1133" y2="406.1133"/><text fill="#000000" font-family="sans-serif" font-size="13" font-weight="bold" lengthAdjust="spacing" textLength="14.46" x="627.8848" y="400.8506">10</text><text fill="#000000" font-family="sans-serif" font-size="13" lengthAdjust="spacing" textLength="39.0317" x="646.3447" y="400.8506">patient</text><polygon fill="#181818" points="968.8384,433.4043,978.8384,437.4043,968.8384,441.4043,972.8384,437.4043" style="stroke:#181818;stroke-width:1.0;"/><line style="stroke:#181818;stroke-width:1.0;" x1="610.8848" x2="974.8384" y1="437.4043" y2="437.4043"/><text fill="#000000" font-family="sans-serif" font-size="13" font-weight="bold" lengthAdjust="spacing" textLength="14.46" x="617.8848" y="432.1416">11</text><text fill="#000000" font-family="sans-serif" font-size="13" lengthAdjust="spacing" textLength="75.1499" x="636.3447" y="432.1416">save(patient)</text><polygon fill="#181818" points="1110.2861,464.6953,1120.2861,468.6953,1110.2861,472.6953,1114.2861,468.6953" style="stroke:#181818;stroke-width:1.0;"/><line style="stroke:#181818;stroke-width:1.0;" x1="985.8384" x2="1116.2861" y1="468.6953" y2="468.6953"/><text fill="#000000" font-family="sans-serif" font-size="13" font-weight="bold" lengthAdjust="spacing" textLength="14.46" x="992.8384" y="463.4326">12</text><text fill="#000000" font-family="sans-serif" font-size="13" lengthAdjust="spacing" textLength="75.1499" x="1011.2983" y="463.4326">save(patient)</text><polygon fill="#181818" points="765.6528,495.9863,775.6528,499.9863,765.6528,503.9863,769.6528,499.9863" style="stroke:#181818;stroke-width:1.0;"/><line style="stroke:#181818;stroke-width:1.0;" x1="610.8848" x2="771.6528" y1="499.9863" y2="499.9863"/><text fill="#000000" font-family="sans-serif" font-size="13" font-weight="bold" lengthAdjust="spacing" textLength="14.46" x="617.8848" y="494.7236">13</text><text fill="#000000" font-family="sans-serif" font-size="13" lengthAdjust="spacing" textLength="90.3018" x="636.3447" y="494.7236">ToDTO(patient)</text><polygon fill="#181818" points="621.8848,527.2773,611.8848,531.2773,621.8848,535.2773,617.8848,531.2773" style="stroke:#181818;stroke-width:1.0;"/><line style="stroke:#181818;stroke-width:1.0;stroke-dasharray:2.0,2.0;" x1="615.8848" x2="781.6528" y1="531.2773" y2="531.2773"/><text fill="#000000" font-family="sans-serif" font-size="13" font-weight="bold" lengthAdjust="spacing" textLength="14.46" x="627.8848" y="526.0146">14</text><text fill="#000000" font-family="sans-serif" font-size="13" lengthAdjust="spacing" textLength="66.4727" x="646.3447" y="526.0146">patientDTO</text><polygon fill="#181818" points="268.4707,558.5684,258.4707,562.5684,268.4707,566.5684,264.4707,562.5684" style="stroke:#181818;stroke-width:1.0;"/><line style="stroke:#181818;stroke-width:1.0;stroke-dasharray:2.0,2.0;" x1="262.4707" x2="604.8848" y1="562.5684" y2="562.5684"/><text fill="#000000" font-family="sans-serif" font-size="13" font-weight="bold" lengthAdjust="spacing" textLength="14.46" x="274.4707" y="557.3057">15</text><text fill="#000000" font-family="sans-serif" font-size="13" lengthAdjust="spacing" textLength="66.4727" x="292.9307" y="557.3057">patientDTO</text><polygon fill="#181818" points="466.4541,589.8594,476.4541,593.8594,466.4541,597.8594,470.4541,593.8594" style="stroke:#181818;stroke-width:1.0;"/><line style="stroke:#181818;stroke-width:1.0;" x1="257.4707" x2="472.4541" y1="593.8594" y2="593.8594"/><text fill="#000000" font-family="sans-serif" font-size="13" font-weight="bold" lengthAdjust="spacing" textLength="14.46" x="264.4707" y="588.5967">16</text><text fill="#000000" font-family="sans-serif" font-size="13" lengthAdjust="spacing" textLength="183.5234" x="282.9307" y="588.5967">mapToJsonPatient(patientDTO)</text><polygon fill="#181818" points="268.4707,621.1504,258.4707,625.1504,268.4707,629.1504,264.4707,625.1504" style="stroke:#181818;stroke-width:1.0;"/><line style="stroke:#181818;stroke-width:1.0;stroke-dasharray:2.0,2.0;" x1="262.4707" x2="482.4541" y1="625.1504" y2="625.1504"/><text fill="#000000" font-family="sans-serif" font-size="13" font-weight="bold" lengthAdjust="spacing" textLength="14.46" x="274.4707" y="619.8877">17</text><text fill="#000000" font-family="sans-serif" font-size="13" lengthAdjust="spacing" textLength="23.8481" x="292.9307" y="619.8877">json</text><line style="stroke:#181818;stroke-width:1.0;" x1="257.4707" x2="299.4707" y1="656.4414" y2="656.4414"/><line style="stroke:#181818;stroke-width:1.0;" x1="299.4707" x2="299.4707" y1="656.4414" y2="669.4414"/><line style="stroke:#181818;stroke-width:1.0;" x1="258.4707" x2="299.4707" y1="669.4414" y2="669.4414"/><polygon fill="#181818" points="268.4707,665.4414,258.4707,669.4414,268.4707,673.4414,264.4707,669.4414" style="stroke:#181818;stroke-width:1.0;"/><text fill="#000000" font-family="sans-serif" font-size="13" font-weight="bold" lengthAdjust="spacing" textLength="14.46" x="264.4707" y="651.1787">18</text><text fill="#000000" font-family="sans-serif" font-size="13" lengthAdjust="spacing" textLength="142.3652" x="282.9307" y="651.1787">generateResponse(json)</text><polygon fill="#181818" points="119.1309,696.7324,109.1309,700.7324,119.1309,704.7324,115.1309,700.7324" style="stroke:#181818;stroke-width:1.0;"/><line style="stroke:#181818;stroke-width:1.0;stroke-dasharray:2.0,2.0;" x1="113.1309" x2="251.4707" y1="700.7324" y2="700.7324"/><text fill="#000000" font-family="sans-serif" font-size="13" font-weight="bold" lengthAdjust="spacing" textLength="14.46" x="125.1309" y="695.4697">19</text><text fill="#000000" font-family="sans-serif" font-size="13" lengthAdjust="spacing" textLength="53.479" x="143.5908" y="695.4697">response</text><polygon fill="#181818" points="11,728.0234,1,732.0234,11,736.0234,7,732.0234" style="stroke:#181818;stroke-width:1.0;"/><line style="stroke:#181818;stroke-width:1.0;stroke-dasharray:2.0,2.0;" x1="5" x2="97.1309" y1="732.0234" y2="732.0234"/><text fill="#000000" font-family="sans-serif" font-size="13" font-weight="bold" lengthAdjust="spacing" textLength="14.46" x="17" y="726.7607">20</text><text fill="#000000" font-family="sans-serif" font-size="13" lengthAdjust="spacing" textLength="53.479" x="35.46" y="726.7607">response</text><!--SRC=[dPMnJiCm48PtFuN5GZeaNPYYgXAK1IJKget4mkAcRZ4ajd6S2DwUg-GqjkEOYcwzottvx_UTS_kkjMpo-LnMXEkshh9IrFE6VhMKbpGzC79If4Q8j5hmjjvJXU2t5z_uPh5O2Qu9urJXP7KtMoxVE7uWvQSu7bb9yIlTutifArOIpGI_GKWIfLd99Bm9Ro18kTwALjDWvWnNeghERxJJputWZyNwXKZffqpbZgeE10HpaJ8t-DGBf58qJ0lr4zPlfL6wTDh2ETwiTqNo0OfdO66fMKSWxBRkL0o4eNt0b8f2eSbCyMp3nf09SaSgTW183mqMEfRdk2Qo4F1_IeztGWWv0PnEI34nU12X0vsYnJep1pyoR207RBjCYmSPi4PtZg5hKSF0Eq0y8dfI-xOllA7N9CkoWAHBgUrLxxxidx4yykl6JW_MHEezuPOJusq0KaCwcXYStKLeTG80QriYL4jbY7lLeHNhaCpuQKMiyoVq3_ScnZqEywSoif3OREGvsC-L34wyjqhNhULvk_-xa0xeHE5B0O0jRQJWJUpA6L-aoXI5lB8llaMQkgLExIy0]--></g></svg>