<svg xmlns="http://www.w3.org/2000/svg" xmlns:xlink="http://www.w3.org/1999/xlink" contentStyleType="text/css" height="379px" preserveAspectRatio="none" style="width:578px;height:379px;background:#FFFFFF;" version="1.1" viewBox="0 0 578 379" width="578px" zoomAndPan="magnify"><defs/><g><rect fill="#DDDDDD" height="367.5313" style="stroke:#181818;stroke-width:0.5;" width="352.0786" x="213.4121" y="6"/><text fill="#000000" font-family="sans-serif" font-size="13" font-weight="bold" lengthAdjust="spacing" textLength="91.7363" x="233.7878" y="20.0283">&#171;Context (C4)&#187;</text><text fill="#000000" font-family="sans-serif" font-size="13" font-weight="bold" lengthAdjust="spacing" textLength="307.7153" x="237.3997" y="37.3193">Surgical Appointment and Resource Management</text><rect fill="#FFFFFF" height="176.0859" style="stroke:#181818;stroke-width:1.0;" width="10" x="22.8413" y="106.8242"/><rect fill="#FFFFFF" height="152.7949" style="stroke:#181818;stroke-width:1.0;" width="10" x="271.1602" y="130.1152"/><rect fill="#FFFFFF" height="120.5039" style="stroke:#181818;stroke-width:1.0;" width="10" x="497.7427" y="161.4063"/><rect fill="none" height="98.5039" style="stroke:#000000;stroke-width:1.5;" width="364.0786" x="207.4121" y="176.4063"/><line style="stroke:#181818;stroke-width:0.5;stroke-dasharray:5.0,5.0;" x1="27" x2="27" y1="96.8242" y2="291.9102"/><line style="stroke:#181818;stroke-width:0.5;stroke-dasharray:5.0,5.0;" x1="275.4121" x2="275.4121" y1="96.8242" y2="291.9102"/><line style="stroke:#181818;stroke-width:0.5;stroke-dasharray:5.0,5.0;" x1="501.9946" x2="501.9946" y1="96.8242" y2="291.9102"/><text fill="#000000" font-family="sans-serif" font-size="14" lengthAdjust="spacing" textLength="39.6826" x="5" y="93.3105">Admin</text><ellipse cx="27.8413" cy="26.7031" fill="#E2E2F0" rx="8" ry="8" style="stroke:#181818;stroke-width:0.5;"/><path d="M27.8413,34.7031 L27.8413,61.7031 M14.8413,42.7031 L40.8413,42.7031 M27.8413,61.7031 L14.8413,76.7031 M27.8413,61.7031 L40.8413,76.7031 " fill="none" style="stroke:#181818;stroke-width:0.5;"/><text fill="#000000" font-family="sans-serif" font-size="14" lengthAdjust="spacing" textLength="39.6826" x="5" y="306.0176">Admin</text><ellipse cx="27.8413" cy="318.0313" fill="#E2E2F0" rx="8" ry="8" style="stroke:#181818;stroke-width:0.5;"/><path d="M27.8413,326.0313 L27.8413,353.0313 M14.8413,334.0313 L40.8413,334.0313 M27.8413,353.0313 L14.8413,368.0313 M27.8413,353.0313 L40.8413,368.0313 " fill="none" style="stroke:#181818;stroke-width:0.5;"/><rect fill="#E2E2F0" height="51.2422" rx="2.5" ry="2.5" style="stroke:#181818;stroke-width:0.5;" width="117.4961" x="217.4121" y="44.582"/><text fill="#000000" font-family="sans-serif" font-size="14" font-style="italic" lengthAdjust="spacing" textLength="103.4961" x="224.4121" y="66.6895">&#171;Container(C4)&#187;</text><text fill="#000000" font-family="sans-serif" font-size="14" lengthAdjust="spacing" textLength="78.5996" x="236.8604" y="85.3105">Visualization</text><rect fill="#E2E2F0" height="51.2422" rx="2.5" ry="2.5" style="stroke:#181818;stroke-width:0.5;" width="117.4961" x="217.4121" y="290.9102"/><text fill="#000000" font-family="sans-serif" font-size="14" font-style="italic" lengthAdjust="spacing" textLength="103.4961" x="224.4121" y="313.0176">&#171;Container(C4)&#187;</text><text fill="#000000" font-family="sans-serif" font-size="14" lengthAdjust="spacing" textLength="78.5996" x="236.8604" y="331.6387">Visualization</text><rect fill="#E2E2F0" height="51.2422" rx="2.5" ry="2.5" style="stroke:#181818;stroke-width:0.5;" width="117.4961" x="443.9946" y="44.582"/><text fill="#000000" font-family="sans-serif" font-size="14" font-style="italic" lengthAdjust="spacing" textLength="103.4961" x="450.9946" y="66.6895">&#171;Container(C4)&#187;</text><text fill="#000000" font-family="sans-serif" font-size="14" lengthAdjust="spacing" textLength="64.5859" x="470.4497" y="85.3105">Backoffice</text><rect fill="#E2E2F0" height="51.2422" rx="2.5" ry="2.5" style="stroke:#181818;stroke-width:0.5;" width="117.4961" x="443.9946" y="290.9102"/><text fill="#000000" font-family="sans-serif" font-size="14" font-style="italic" lengthAdjust="spacing" textLength="103.4961" x="450.9946" y="313.0176">&#171;Container(C4)&#187;</text><text fill="#000000" font-family="sans-serif" font-size="14" lengthAdjust="spacing" textLength="64.5859" x="470.4497" y="331.6387">Backoffice</text><rect fill="#FFFFFF" height="176.0859" style="stroke:#181818;stroke-width:1.0;" width="10" x="22.8413" y="106.8242"/><rect fill="#FFFFFF" height="152.7949" style="stroke:#181818;stroke-width:1.0;" width="10" x="271.1602" y="130.1152"/><rect fill="#FFFFFF" height="120.5039" style="stroke:#181818;stroke-width:1.0;" width="10" x="497.7427" y="161.4063"/><polygon fill="#181818" points="259.1602,126.1152,269.1602,130.1152,259.1602,134.1152,263.1602,130.1152" style="stroke:#181818;stroke-width:1.0;"/><line style="stroke:#181818;stroke-width:1.0;" x1="32.8413" x2="265.1602" y1="130.1152" y2="130.1152"/><text fill="#000000" font-family="sans-serif" font-size="13" font-weight="bold" lengthAdjust="spacing" textLength="7.23" x="39.8413" y="124.8525">1</text><text fill="#000000" font-family="sans-serif" font-size="13" lengthAdjust="spacing" textLength="208.0889" x="51.0713" y="124.8525">Asks to register new backoffice user</text><polygon fill="#181818" points="485.7427,157.4063,495.7427,161.4063,485.7427,165.4063,489.7427,161.4063" style="stroke:#181818;stroke-width:1.0;"/><line style="stroke:#181818;stroke-width:1.0;" x1="281.1602" x2="491.7427" y1="161.4063" y2="161.4063"/><text fill="#000000" font-family="sans-serif" font-size="13" font-weight="bold" lengthAdjust="spacing" textLength="7.23" x="288.1602" y="156.1436">2</text><text fill="#000000" font-family="sans-serif" font-size="13" lengthAdjust="spacing" textLength="173.3989" x="299.3901" y="156.1436">POST register backoffice user</text><path d="M207.4121,176.4063 L267.583,176.4063 L267.583,185.6973 L257.583,195.6973 L207.4121,195.6973 L207.4121,176.4063 " fill="#EEEEEE" style="stroke:#000000;stroke-width:1.5;"/><rect fill="none" height="98.5039" style="stroke:#000000;stroke-width:1.5;" width="364.0786" x="207.4121" y="176.4063"/><text fill="#000000" font-family="sans-serif" font-size="13" font-weight="bold" lengthAdjust="spacing" textLength="15.1709" x="222.4121" y="191.4346">alt</text><text fill="#000000" font-family="sans-serif" font-size="11" font-weight="bold" lengthAdjust="spacing" textLength="50.7515" x="282.583" y="190.2764">[success]</text><polygon fill="#181818" points="292.1602,214.9883,282.1602,218.9883,292.1602,222.9883,288.1602,218.9883" style="stroke:#181818;stroke-width:1.0;"/><line style="stroke:#181818;stroke-width:1.0;stroke-dasharray:2.0,2.0;" x1="286.1602" x2="496.7427" y1="218.9883" y2="218.9883"/><text fill="#000000" font-family="sans-serif" font-size="13" font-weight="bold" lengthAdjust="spacing" textLength="7.23" x="298.1602" y="213.7256">3</text><text fill="#000000" font-family="sans-serif" font-size="13" lengthAdjust="spacing" textLength="178.4897" x="309.3901" y="213.7256">Status Code 201, User created</text><line style="stroke:#000000;stroke-width:1.0;stroke-dasharray:2.0,2.0;" x1="207.4121" x2="571.4907" y1="227.9883" y2="227.9883"/><text fill="#000000" font-family="sans-serif" font-size="11" font-weight="bold" lengthAdjust="spacing" textLength="40.3369" x="212.4121" y="239.8584">[failure]</text><polygon fill="#181818" points="292.1602,262.9102,282.1602,266.9102,292.1602,270.9102,288.1602,266.9102" style="stroke:#181818;stroke-width:1.0;"/><line style="stroke:#181818;stroke-width:1.0;stroke-dasharray:2.0,2.0;" x1="286.1602" x2="496.7427" y1="266.9102" y2="266.9102"/><text fill="#000000" font-family="sans-serif" font-size="13" font-weight="bold" lengthAdjust="spacing" textLength="7.23" x="298.1602" y="261.6475">4</text><text fill="#000000" font-family="sans-serif" font-size="13" lengthAdjust="spacing" textLength="181.3525" x="309.3901" y="261.6475">Client/Server error Status Code</text><!--SRC=[RP51JyCm38Nl-HLMBu34A21ErJHfz8n033XnSLElM4kJaZXZujVZhg0DH0vH7FbxxyKvUHCPKbMMWqClkNSNDlHbelTCtjAiPUmYziPWbk1ptr3KivKGeLYsFVi2C06ssc6Qi8DYFg-35ze9dDOtPul5guTLZXrRTB0SXi1UUl82w5juf1Hoj0HtwB6ZyRum0qPXouEcWHTE6Hr_ed3mer5cc0oGFSN9uHTnYtOJrcjMKMrlmZ_j-_oyHQ4fjsumMupI5IpJ9e44YDHn4ehWwGEQWsPEt- -V-Cp6AAUqEbNmSBzwEg1_C3ZYcg254qZPMaff71tCVZAi12Kdg4DBS7rvTGxF8sqZATaQGouHh95TZdG4LW2rOvrWkQAuLO1Yr4yw4bFKAz_IhnZxzGK0]--></g></svg>