<svg xmlns="http://www.w3.org/2000/svg" xmlns:xlink="http://www.w3.org/1999/xlink" contentStyleType="text/css" height="442px" preserveAspectRatio="none" style="width:592px;height:442px;background:#FFFFFF;" version="1.1" viewBox="0 0 592 442" width="592px" zoomAndPan="magnify"><defs/><g><rect fill="#DDDDDD" height="430.1133" style="stroke:#181818;stroke-width:0.5;" width="362.2412" x="217.2144" y="6"/><text fill="#000000" font-family="sans-serif" font-size="13" font-weight="bold" lengthAdjust="spacing" textLength="91.7363" x="242.6714" y="20.0283">&#171;Context (C4)&#187;</text><text fill="#000000" font-family="sans-serif" font-size="13" font-weight="bold" lengthAdjust="spacing" textLength="307.7153" x="246.2832" y="37.3193">Surgical Appointment and Resource Management</text><rect fill="#FFFFFF" height="238.668" style="stroke:#181818;stroke-width:1.0;" width="10" x="59.2344" y="106.8242"/><rect fill="#FFFFFF" height="199.377" style="stroke:#181818;stroke-width:1.0;" width="10" x="274.9624" y="130.1152"/><rect fill="#FFFFFF" height="136.7949" style="stroke:#181818;stroke-width:1.0;" width="10" x="511.7075" y="161.4063"/><rect fill="none" height="161.0859" style="stroke:#000000;stroke-width:1.5;" width="575.4556" x="10" y="176.4063"/><line style="stroke:#181818;stroke-width:0.5;stroke-dasharray:5.0,5.0;" x1="64" x2="64" y1="96.8242" y2="354.4922"/><line style="stroke:#181818;stroke-width:0.5;stroke-dasharray:5.0,5.0;" x1="279.2144" x2="279.2144" y1="96.8242" y2="354.4922"/><line style="stroke:#181818;stroke-width:0.5;stroke-dasharray:5.0,5.0;" x1="515.9595" x2="515.9595" y1="96.8242" y2="354.4922"/><text fill="#000000" font-family="sans-serif" font-size="14" lengthAdjust="spacing" textLength="82.4688" x="20" y="93.3105">Administrator</text><ellipse cx="64.2344" cy="26.7031" fill="#E2E2F0" rx="8" ry="8" style="stroke:#181818;stroke-width:0.5;"/><path d="M64.2344,34.7031 L64.2344,61.7031 M51.2344,42.7031 L77.2344,42.7031 M64.2344,61.7031 L51.2344,76.7031 M64.2344,61.7031 L77.2344,76.7031 " fill="none" style="stroke:#181818;stroke-width:0.5;"/><text fill="#000000" font-family="sans-serif" font-size="14" lengthAdjust="spacing" textLength="82.4688" x="20" y="368.5996">Administrator</text><ellipse cx="64.2344" cy="380.6133" fill="#E2E2F0" rx="8" ry="8" style="stroke:#181818;stroke-width:0.5;"/><path d="M64.2344,388.6133 L64.2344,415.6133 M51.2344,396.6133 L77.2344,396.6133 M64.2344,415.6133 L51.2344,430.6133 M64.2344,415.6133 L77.2344,430.6133 " fill="none" style="stroke:#181818;stroke-width:0.5;"/><rect fill="#E2E2F0" height="51.2422" rx="2.5" ry="2.5" style="stroke:#181818;stroke-width:0.5;" width="117.4961" x="221.2144" y="44.582"/><text fill="#000000" font-family="sans-serif" font-size="14" font-style="italic" lengthAdjust="spacing" textLength="103.4961" x="228.2144" y="66.6895">&#171;Container(C4)&#187;</text><text fill="#000000" font-family="sans-serif" font-size="14" lengthAdjust="spacing" textLength="78.5996" x="240.6626" y="85.3105">Visualization</text><rect fill="#E2E2F0" height="51.2422" rx="2.5" ry="2.5" style="stroke:#181818;stroke-width:0.5;" width="117.4961" x="221.2144" y="353.4922"/><text fill="#000000" font-family="sans-serif" font-size="14" font-style="italic" lengthAdjust="spacing" textLength="103.4961" x="228.2144" y="375.5996">&#171;Container(C4)&#187;</text><text fill="#000000" font-family="sans-serif" font-size="14" lengthAdjust="spacing" textLength="78.5996" x="240.6626" y="394.2207">Visualization</text><rect fill="#E2E2F0" height="51.2422" rx="2.5" ry="2.5" style="stroke:#181818;stroke-width:0.5;" width="117.4961" x="457.9595" y="44.582"/><text fill="#000000" font-family="sans-serif" font-size="14" font-style="italic" lengthAdjust="spacing" textLength="103.4961" x="464.9595" y="66.6895">&#171;Container(C4)&#187;</text><text fill="#000000" font-family="sans-serif" font-size="14" lengthAdjust="spacing" textLength="64.5859" x="484.4146" y="85.3105">Backoffice</text><rect fill="#E2E2F0" height="51.2422" rx="2.5" ry="2.5" style="stroke:#181818;stroke-width:0.5;" width="117.4961" x="457.9595" y="353.4922"/><text fill="#000000" font-family="sans-serif" font-size="14" font-style="italic" lengthAdjust="spacing" textLength="103.4961" x="464.9595" y="375.5996">&#171;Container(C4)&#187;</text><text fill="#000000" font-family="sans-serif" font-size="14" lengthAdjust="spacing" textLength="64.5859" x="484.4146" y="394.2207">Backoffice</text><rect fill="#FFFFFF" height="238.668" style="stroke:#181818;stroke-width:1.0;" width="10" x="59.2344" y="106.8242"/><rect fill="#FFFFFF" height="199.377" style="stroke:#181818;stroke-width:1.0;" width="10" x="274.9624" y="130.1152"/><rect fill="#FFFFFF" height="136.7949" style="stroke:#181818;stroke-width:1.0;" width="10" x="511.7075" y="161.4063"/><polygon fill="#181818" points="262.9624,126.1152,272.9624,130.1152,262.9624,134.1152,266.9624,130.1152" style="stroke:#181818;stroke-width:1.0;"/><line style="stroke:#181818;stroke-width:1.0;" x1="69.2344" x2="268.9624" y1="130.1152" y2="130.1152"/><text fill="#000000" font-family="sans-serif" font-size="13" font-weight="bold" lengthAdjust="spacing" textLength="7.23" x="76.2344" y="124.8525">1</text><text fill="#000000" font-family="sans-serif" font-size="13" lengthAdjust="spacing" textLength="171.2471" x="87.4644" y="124.8525">Asks to register patient profile</text><polygon fill="#181818" points="499.7075,157.4063,509.7075,161.4063,499.7075,165.4063,503.7075,161.4063" style="stroke:#181818;stroke-width:1.0;"/><line style="stroke:#181818;stroke-width:1.0;" x1="284.9624" x2="505.7075" y1="161.4063" y2="161.4063"/><text fill="#000000" font-family="sans-serif" font-size="13" font-weight="bold" lengthAdjust="spacing" textLength="7.23" x="291.9624" y="156.1436">2</text><text fill="#000000" font-family="sans-serif" font-size="13" lengthAdjust="spacing" textLength="126.439" x="303.1924" y="156.1436">POST register Patient</text><path d="M10,176.4063 L70.1709,176.4063 L70.1709,185.6973 L60.1709,195.6973 L10,195.6973 L10,176.4063 " fill="#EEEEEE" style="stroke:#000000;stroke-width:1.5;"/><rect fill="none" height="161.0859" style="stroke:#000000;stroke-width:1.5;" width="575.4556" x="10" y="176.4063"/><text fill="#000000" font-family="sans-serif" font-size="13" font-weight="bold" lengthAdjust="spacing" textLength="15.1709" x="25" y="191.4346">alt</text><text fill="#000000" font-family="sans-serif" font-size="11" font-weight="bold" lengthAdjust="spacing" textLength="50.7515" x="85.1709" y="190.2764">[success]</text><polygon fill="#181818" points="295.9624,214.9883,285.9624,218.9883,295.9624,222.9883,291.9624,218.9883" style="stroke:#181818;stroke-width:1.0;"/><line style="stroke:#181818;stroke-width:1.0;stroke-dasharray:2.0,2.0;" x1="289.9624" x2="510.7075" y1="218.9883" y2="218.9883"/><text fill="#000000" font-family="sans-serif" font-size="13" font-weight="bold" lengthAdjust="spacing" textLength="7.23" x="301.9624" y="213.7256">3</text><text fill="#000000" font-family="sans-serif" font-size="13" lengthAdjust="spacing" textLength="191.5151" x="313.1924" y="213.7256">Status Code 201, Patient created</text><polygon fill="#181818" points="80.2344,246.2793,70.2344,250.2793,80.2344,254.2793,76.2344,250.2793" style="stroke:#181818;stroke-width:1.0;"/><line style="stroke:#181818;stroke-width:1.0;stroke-dasharray:2.0,2.0;" x1="74.2344" x2="273.9624" y1="250.2793" y2="250.2793"/><text fill="#000000" font-family="sans-serif" font-size="13" font-weight="bold" lengthAdjust="spacing" textLength="7.23" x="86.2344" y="245.0166">4</text><text fill="#000000" font-family="sans-serif" font-size="13" lengthAdjust="spacing" textLength="170.498" x="97.4644" y="245.0166">Confirms registration success</text><line style="stroke:#000000;stroke-width:1.0;stroke-dasharray:2.0,2.0;" x1="10" x2="585.4556" y1="259.2793" y2="259.2793"/><text fill="#000000" font-family="sans-serif" font-size="11" font-weight="bold" lengthAdjust="spacing" textLength="40.3369" x="15" y="271.1494">[failure]</text><polygon fill="#181818" points="295.9624,294.2012,285.9624,298.2012,295.9624,302.2012,291.9624,298.2012" style="stroke:#181818;stroke-width:1.0;"/><line style="stroke:#181818;stroke-width:1.0;stroke-dasharray:2.0,2.0;" x1="289.9624" x2="515.7075" y1="298.2012" y2="298.2012"/><text fill="#000000" font-family="sans-serif" font-size="13" font-weight="bold" lengthAdjust="spacing" textLength="7.23" x="301.9624" y="292.9385">5</text><text fill="#000000" font-family="sans-serif" font-size="13" lengthAdjust="spacing" textLength="181.3525" x="313.1924" y="292.9385">Client/Server error Status Code</text><polygon fill="#181818" points="80.2344,325.4922,70.2344,329.4922,80.2344,333.4922,76.2344,329.4922" style="stroke:#181818;stroke-width:1.0;"/><line style="stroke:#181818;stroke-width:1.0;stroke-dasharray:2.0,2.0;" x1="74.2344" x2="278.9624" y1="329.4922" y2="329.4922"/><text fill="#000000" font-family="sans-serif" font-size="13" font-weight="bold" lengthAdjust="spacing" textLength="7.23" x="86.2344" y="324.2295">6</text><text fill="#000000" font-family="sans-serif" font-size="13" lengthAdjust="spacing" textLength="150.2808" x="97.4644" y="324.2295">Informs registration failure</text><!--SRC=[RP7DJWCn38JlUGgh5q2Y512dLLMfzCG1KL74YOkRzHQhsMHn78HuUhmib4LmoezcvfiuHy-gNQvciovWrDA6Cv_QMQQNGj7Jj6RS2RREOT4KIxibiRtN931PrYr7pYfenmbW1knld7FRz0QJ-NoLejARml7gwcInU8gmAR9ZZm6MNPSuQajH0MCDzvHJ4KzmYn5trDzFN8UYxBcpNl38kM3WTrHEiKSLXW6074a6mY_7DVfzQXgsK9Dlqp_opvVmAofzD_zSOBheuojOvdq6JI2qisUIG6Vuld8dgU508tzXvynZJYDLiBxRFFpOrb-saNwRx10KSl6USkv71jDlxaPHIuPLgWakpozE3m5UoCprW3BrKBSoPMnOslo5b65AXsmAcQ113aLeHAe0Lg7FdMr8NgqdYTY_ZkZErVIhyfXRmKriqX_gWJEozjEXQBq_0000]--></g></svg>