<svg xmlns="http://www.w3.org/2000/svg" xmlns:xlink="http://www.w3.org/1999/xlink" contentStyleType="text/css" height="861px" preserveAspectRatio="none" style="width:2118px;height:861px;background:#FFFFFF;" version="1.1" viewBox="0 0 2118 861" width="2118px" zoomAndPan="magnify"><defs/><g><rect fill="#FFFFFF" height="643.1113" style="stroke:#181818;stroke-width:1.0;" width="10" x="279.1455" y="116.9121"/><rect fill="#FFFFFF" height="563.2383" style="stroke:#181818;stroke-width:1.0;" width="10" x="516.627" y="148.2031"/><rect fill="#FFFFFF" height="500.6563" style="stroke:#181818;stroke-width:1.0;" width="10" x="815.543" y="179.4941"/><rect fill="#FFFFFF" height="93.873" style="stroke:#181818;stroke-width:1.0;" width="10" x="1006.0835" y="210.7852"/><rect fill="#FFFFFF" height="31.291" style="stroke:#181818;stroke-width:1.0;" width="10" x="1122.3105" y="242.0762"/><rect fill="#FFFFFF" height="93.873" style="stroke:#181818;stroke-width:1.0;" width="10" x="1240.4824" y="335.9492"/><rect fill="#FFFFFF" height="93.873" style="stroke:#181818;stroke-width:1.0;" width="10" x="1240.4824" y="554.9863"/><rect fill="#FFFFFF" height="31.291" style="stroke:#181818;stroke-width:1.0;" width="10" x="1431.7422" y="367.2402"/><rect fill="#FFFFFF" height="62.582" style="stroke:#181818;stroke-width:1.0;" width="10" x="1629.6689" y="461.1133"/><rect fill="#FFFFFF" height="31.291" style="stroke:#181818;stroke-width:1.0;" width="10" x="1849.7715" y="492.4043"/><rect fill="#FFFFFF" height="31.291" style="stroke:#181818;stroke-width:1.0;" width="10" x="2025.9053" y="586.2773"/><line style="stroke:#181818;stroke-width:0.5;stroke-dasharray:5.0,5.0;" x1="27" x2="27" y1="83.6211" y2="778.0234"/><line style="stroke:#181818;stroke-width:0.5;stroke-dasharray:5.0,5.0;" x1="283.6733" x2="283.6733" y1="83.6211" y2="778.0234"/><line style="stroke:#181818;stroke-width:0.5;stroke-dasharray:5.0,5.0;" x1="521.4893" x2="521.4893" y1="83.6211" y2="778.0234"/><line style="stroke:#181818;stroke-width:0.5;stroke-dasharray:5.0,5.0;" x1="819.585" x2="819.585" y1="83.6211" y2="778.0234"/><line style="stroke:#181818;stroke-width:0.5;stroke-dasharray:5.0,5.0;" x1="1010.501" x2="1010.501" y1="83.6211" y2="778.0234"/><line style="stroke:#181818;stroke-width:0.5;stroke-dasharray:5.0,5.0;" x1="1126.666" x2="1126.666" y1="83.6211" y2="778.0234"/><line style="stroke:#181818;stroke-width:0.5;stroke-dasharray:5.0,5.0;" x1="1244.9551" x2="1244.9551" y1="83.6211" y2="778.0234"/><line style="stroke:#181818;stroke-width:0.5;stroke-dasharray:5.0,5.0;" x1="1436.0977" x2="1436.0977" y1="83.6211" y2="778.0234"/><line style="stroke:#181818;stroke-width:0.5;stroke-dasharray:5.0,5.0;" x1="1634.3867" x2="1634.3867" y1="83.6211" y2="778.0234"/><line style="stroke:#181818;stroke-width:0.5;stroke-dasharray:5.0,5.0;" x1="1853.9512" x2="1853.9512" y1="83.6211" y2="778.0234"/><line style="stroke:#181818;stroke-width:0.5;stroke-dasharray:5.0,5.0;" x1="2030.5918" x2="2030.5918" y1="83.6211" y2="778.0234"/><text fill="#000000" font-family="sans-serif" font-size="14" lengthAdjust="spacing" textLength="39.6826" x="5" y="80.1074">Admin</text><ellipse cx="27.8413" cy="13.5" fill="#E2E2F0" rx="8" ry="8" style="stroke:#181818;stroke-width:0.5;"/><path d="M27.8413,21.5 L27.8413,48.5 M14.8413,29.5 L40.8413,29.5 M27.8413,48.5 L14.8413,63.5 M27.8413,48.5 L40.8413,63.5 " fill="none" style="stroke:#181818;stroke-width:0.5;"/><text fill="#000000" font-family="sans-serif" font-size="14" lengthAdjust="spacing" textLength="39.6826" x="5" y="792.1309">Admin</text><ellipse cx="27.8413" cy="804.1445" fill="#E2E2F0" rx="8" ry="8" style="stroke:#181818;stroke-width:0.5;"/><path d="M27.8413,812.1445 L27.8413,839.1445 M14.8413,820.1445 L40.8413,820.1445 M27.8413,839.1445 L14.8413,854.1445 M27.8413,839.1445 L40.8413,854.1445 " fill="none" style="stroke:#181818;stroke-width:0.5;"/><rect fill="#E2E2F0" height="32.6211" rx="2.5" ry="2.5" style="stroke:#181818;stroke-width:0.5;" width="94.9443" x="236.6733" y="50"/><text fill="#000000" font-family="sans-serif" font-size="14" lengthAdjust="spacing" textLength="80.9443" x="243.6733" y="72.1074">PatientRoute</text><rect fill="#E2E2F0" height="32.6211" rx="2.5" ry="2.5" style="stroke:#181818;stroke-width:0.5;" width="94.9443" x="236.6733" y="777.0234"/><text fill="#000000" font-family="sans-serif" font-size="14" lengthAdjust="spacing" textLength="80.9443" x="243.6733" y="799.1309">PatientRoute</text><rect fill="#E2E2F0" height="32.6211" rx="2.5" ry="2.5" style="stroke:#181818;stroke-width:0.5;" width="118.2754" x="462.4893" y="50"/><text fill="#000000" font-family="sans-serif" font-size="14" lengthAdjust="spacing" textLength="104.2754" x="469.4893" y="72.1074">PatientController</text><rect fill="#E2E2F0" height="32.6211" rx="2.5" ry="2.5" style="stroke:#181818;stroke-width:0.5;" width="118.2754" x="462.4893" y="777.0234"/><text fill="#000000" font-family="sans-serif" font-size="14" lengthAdjust="spacing" textLength="104.2754" x="469.4893" y="799.1309">PatientController</text><rect fill="#E2E2F0" height="32.6211" rx="2.5" ry="2.5" style="stroke:#181818;stroke-width:0.5;" width="259.916" x="690.585" y="50"/><text fill="#000000" font-family="sans-serif" font-size="14" lengthAdjust="spacing" textLength="245.916" x="697.585" y="72.1074">PatientAppService : IPatientAppService</text><rect fill="#E2E2F0" height="32.6211" rx="2.5" ry="2.5" style="stroke:#181818;stroke-width:0.5;" width="259.916" x="690.585" y="777.0234"/><text fill="#000000" font-family="sans-serif" font-size="14" lengthAdjust="spacing" textLength="245.916" x="697.585" y="799.1309">PatientAppService : IPatientAppService</text><rect fill="#E2E2F0" height="32.6211" rx="2.5" ry="2.5" style="stroke:#181818;stroke-width:0.5;" width="101.165" x="960.501" y="50"/><text fill="#000000" font-family="sans-serif" font-size="14" lengthAdjust="spacing" textLength="87.165" x="967.501" y="72.1074">PatientBuilder</text><rect fill="#E2E2F0" height="32.6211" rx="2.5" ry="2.5" style="stroke:#181818;stroke-width:0.5;" width="101.165" x="960.501" y="777.0234"/><text fill="#000000" font-family="sans-serif" font-size="14" lengthAdjust="spacing" textLength="87.165" x="967.501" y="799.1309">PatientBuilder</text><rect fill="#E2E2F0" height="32.6211" rx="2.5" ry="2.5" style="stroke:#181818;stroke-width:0.5;" width="111.2891" x="1071.666" y="50"/><text fill="#000000" font-family="sans-serif" font-size="14" lengthAdjust="spacing" textLength="97.2891" x="1078.666" y="72.1074">patient : Patient</text><rect fill="#E2E2F0" height="32.6211" rx="2.5" ry="2.5" style="stroke:#181818;stroke-width:0.5;" width="111.2891" x="1071.666" y="777.0234"/><text fill="#000000" font-family="sans-serif" font-size="14" lengthAdjust="spacing" textLength="97.2891" x="1078.666" y="799.1309">patient : Patient</text><rect fill="#E2E2F0" height="32.6211" rx="2.5" ry="2.5" style="stroke:#181818;stroke-width:0.5;" width="105.0547" x="1192.9551" y="50"/><text fill="#000000" font-family="sans-serif" font-size="14" lengthAdjust="spacing" textLength="91.0547" x="1199.9551" y="72.1074">PatientMapper</text><rect fill="#E2E2F0" height="32.6211" rx="2.5" ry="2.5" style="stroke:#181818;stroke-width:0.5;" width="105.0547" x="1192.9551" y="777.0234"/><text fill="#000000" font-family="sans-serif" font-size="14" lengthAdjust="spacing" textLength="91.0547" x="1199.9551" y="799.1309">PatientMapper</text><rect fill="#E2E2F0" height="32.6211" rx="2.5" ry="2.5" style="stroke:#181818;stroke-width:0.5;" width="125.2891" x="1374.0977" y="50"/><text fill="#000000" font-family="sans-serif" font-size="14" lengthAdjust="spacing" textLength="111.2891" x="1381.0977" y="72.1074">PatientDataModel</text><rect fill="#E2E2F0" height="32.6211" rx="2.5" ry="2.5" style="stroke:#181818;stroke-width:0.5;" width="125.2891" x="1374.0977" y="777.0234"/><text fill="#000000" font-family="sans-serif" font-size="14" lengthAdjust="spacing" textLength="111.2891" x="1381.0977" y="799.1309">PatientDataModel</text><rect fill="#E2E2F0" height="32.6211" rx="2.5" ry="2.5" style="stroke:#181818;stroke-width:0.5;" width="250.5645" x="1509.3867" y="50"/><text fill="#000000" font-family="sans-serif" font-size="14" lengthAdjust="spacing" textLength="236.5645" x="1516.3867" y="72.1074">PatientRepository : IPatientRepository</text><rect fill="#E2E2F0" height="32.6211" rx="2.5" ry="2.5" style="stroke:#181818;stroke-width:0.5;" width="250.5645" x="1509.3867" y="777.0234"/><text fill="#000000" font-family="sans-serif" font-size="14" lengthAdjust="spacing" textLength="236.5645" x="1516.3867" y="799.1309">PatientRepository : IPatientRepository</text><rect fill="#E2E2F0" height="32.6211" rx="2.5" ry="2.5" style="stroke:#181818;stroke-width:0.5;" width="169.6406" x="1769.9512" y="50"/><text fill="#000000" font-family="sans-serif" font-size="14" lengthAdjust="spacing" textLength="155.6406" x="1776.9512" y="72.1074">BackofficeAppDbContext</text><rect fill="#E2E2F0" height="32.6211" rx="2.5" ry="2.5" style="stroke:#181818;stroke-width:0.5;" width="169.6406" x="1769.9512" y="777.0234"/><text fill="#000000" font-family="sans-serif" font-size="14" lengthAdjust="spacing" textLength="155.6406" x="1776.9512" y="799.1309">BackofficeAppDbContext</text><rect fill="#E2E2F0" height="32.6211" rx="2.5" ry="2.5" style="stroke:#181818;stroke-width:0.5;" width="162.627" x="1949.5918" y="50"/><text fill="#000000" font-family="sans-serif" font-size="14" lengthAdjust="spacing" textLength="148.627" x="1956.5918" y="72.1074">patientDto : PatientDTO</text><rect fill="#E2E2F0" height="32.6211" rx="2.5" ry="2.5" style="stroke:#181818;stroke-width:0.5;" width="162.627" x="1949.5918" y="777.0234"/><text fill="#000000" font-family="sans-serif" font-size="14" lengthAdjust="spacing" textLength="148.627" x="1956.5918" y="799.1309">patientDto : PatientDTO</text><rect fill="#FFFFFF" height="643.1113" style="stroke:#181818;stroke-width:1.0;" width="10" x="279.1455" y="116.9121"/><rect fill="#FFFFFF" height="563.2383" style="stroke:#181818;stroke-width:1.0;" width="10" x="516.627" y="148.2031"/><rect fill="#FFFFFF" height="500.6563" style="stroke:#181818;stroke-width:1.0;" width="10" x="815.543" y="179.4941"/><rect fill="#FFFFFF" height="93.873" style="stroke:#181818;stroke-width:1.0;" width="10" x="1006.0835" y="210.7852"/><rect fill="#FFFFFF" height="31.291" style="stroke:#181818;stroke-width:1.0;" width="10" x="1122.3105" y="242.0762"/><rect fill="#FFFFFF" height="93.873" style="stroke:#181818;stroke-width:1.0;" width="10" x="1240.4824" y="335.9492"/><rect fill="#FFFFFF" height="93.873" style="stroke:#181818;stroke-width:1.0;" width="10" x="1240.4824" y="554.9863"/><rect fill="#FFFFFF" height="31.291" style="stroke:#181818;stroke-width:1.0;" width="10" x="1431.7422" y="367.2402"/><rect fill="#FFFFFF" height="62.582" style="stroke:#181818;stroke-width:1.0;" width="10" x="1629.6689" y="461.1133"/><rect fill="#FFFFFF" height="31.291" style="stroke:#181818;stroke-width:1.0;" width="10" x="1849.7715" y="492.4043"/><rect fill="#FFFFFF" height="31.291" style="stroke:#181818;stroke-width:1.0;" width="10" x="2025.9053" y="586.2773"/><polygon fill="#181818" points="267.1455,112.9121,277.1455,116.9121,267.1455,120.9121,271.1455,116.9121" style="stroke:#181818;stroke-width:1.0;"/><line style="stroke:#181818;stroke-width:1.0;" x1="27.8413" x2="273.1455" y1="116.9121" y2="116.9121"/><text fill="#000000" font-family="sans-serif" font-size="13" font-weight="bold" lengthAdjust="spacing" textLength="7.23" x="34.8413" y="111.6494">1</text><text fill="#000000" font-family="sans-serif" font-size="13" lengthAdjust="spacing" textLength="191.4771" x="46.0713" y="111.6494">POST register new patient profile</text><polygon fill="#181818" points="504.627,144.2031,514.627,148.2031,504.627,152.2031,508.627,148.2031" style="stroke:#181818;stroke-width:1.0;"/><line style="stroke:#181818;stroke-width:1.0;" x1="289.1455" x2="510.627" y1="148.2031" y2="148.2031"/><text fill="#000000" font-family="sans-serif" font-size="13" font-weight="bold" lengthAdjust="spacing" textLength="7.23" x="296.1455" y="142.9404">2</text><text fill="#000000" font-family="sans-serif" font-size="13" lengthAdjust="spacing" textLength="143.0508" x="307.3755" y="142.9404">createsPatientDTO(json)</text><polygon fill="#181818" points="803.543,175.4941,813.543,179.4941,803.543,183.4941,807.543,179.4941" style="stroke:#181818;stroke-width:1.0;"/><line style="stroke:#181818;stroke-width:1.0;" x1="526.627" x2="809.543" y1="179.4941" y2="179.4941"/><text fill="#000000" font-family="sans-serif" font-size="13" font-weight="bold" lengthAdjust="spacing" textLength="7.23" x="533.627" y="174.2314">3</text><text fill="#000000" font-family="sans-serif" font-size="13" lengthAdjust="spacing" textLength="258.686" x="544.8569" y="174.2314">RegisterPatient(receivedPatient : PatientDto)</text><polygon fill="#181818" points="994.0835,206.7852,1004.0835,210.7852,994.0835,214.7852,998.0835,210.7852" style="stroke:#181818;stroke-width:1.0;"/><line style="stroke:#181818;stroke-width:1.0;" x1="825.543" x2="1000.0835" y1="210.7852" y2="210.7852"/><text fill="#000000" font-family="sans-serif" font-size="13" font-weight="bold" lengthAdjust="spacing" textLength="7.23" x="832.543" y="205.5225">4</text><text fill="#000000" font-family="sans-serif" font-size="13" lengthAdjust="spacing" textLength="36.1245" x="843.7729" y="205.5225">build()</text><polygon fill="#181818" points="1110.3105,238.0762,1120.3105,242.0762,1110.3105,246.0762,1114.3105,242.0762" style="stroke:#181818;stroke-width:1.0;"/><line style="stroke:#181818;stroke-width:1.0;" x1="1016.0835" x2="1116.3105" y1="242.0762" y2="242.0762"/><text fill="#000000" font-family="sans-serif" font-size="13" font-weight="bold" lengthAdjust="spacing" textLength="7.23" x="1023.0835" y="236.8135">5</text><text fill="#000000" font-family="sans-serif" font-size="13" lengthAdjust="spacing" textLength="59.9663" x="1034.3135" y="236.8135">Patient(...)</text><polygon fill="#181818" points="1027.0835,269.3672,1017.0835,273.3672,1027.0835,277.3672,1023.0835,273.3672" style="stroke:#181818;stroke-width:1.0;"/><line style="stroke:#181818;stroke-width:1.0;stroke-dasharray:2.0,2.0;" x1="1021.0835" x2="1126.3105" y1="273.3672" y2="273.3672"/><text fill="#000000" font-family="sans-serif" font-size="13" font-weight="bold" lengthAdjust="spacing" textLength="7.23" x="1033.0835" y="268.1045">6</text><text fill="#000000" font-family="sans-serif" font-size="13" lengthAdjust="spacing" textLength="39.0317" x="1044.3135" y="268.1045">patient</text><polygon fill="#181818" points="836.543,300.6582,826.543,304.6582,836.543,308.6582,832.543,304.6582" style="stroke:#181818;stroke-width:1.0;"/><line style="stroke:#181818;stroke-width:1.0;stroke-dasharray:2.0,2.0;" x1="830.543" x2="1010.0835" y1="304.6582" y2="304.6582"/><text fill="#000000" font-family="sans-serif" font-size="13" font-weight="bold" lengthAdjust="spacing" textLength="7.23" x="842.543" y="299.3955">7</text><text fill="#000000" font-family="sans-serif" font-size="13" lengthAdjust="spacing" textLength="39.0317" x="853.7729" y="299.3955">patient</text><polygon fill="#181818" points="1228.4824,331.9492,1238.4824,335.9492,1228.4824,339.9492,1232.4824,335.9492" style="stroke:#181818;stroke-width:1.0;"/><line style="stroke:#181818;stroke-width:1.0;" x1="825.543" x2="1234.4824" y1="335.9492" y2="335.9492"/><text fill="#000000" font-family="sans-serif" font-size="13" font-weight="bold" lengthAdjust="spacing" textLength="7.23" x="832.543" y="330.6865">8</text><text fill="#000000" font-family="sans-serif" font-size="13" lengthAdjust="spacing" textLength="125.728" x="843.7729" y="330.6865">ToDataModel(patient)</text><polygon fill="#181818" points="1419.7422,363.2402,1429.7422,367.2402,1419.7422,371.2402,1423.7422,367.2402" style="stroke:#181818;stroke-width:1.0;"/><line style="stroke:#181818;stroke-width:1.0;" x1="1250.4824" x2="1425.7422" y1="367.2402" y2="367.2402"/><text fill="#000000" font-family="sans-serif" font-size="13" font-weight="bold" lengthAdjust="spacing" textLength="7.23" x="1257.4824" y="361.9775">9</text><text fill="#000000" font-family="sans-serif" font-size="13" lengthAdjust="spacing" textLength="151.0298" x="1268.7124" y="361.9775">PatientDataModel(patient)</text><polygon fill="#181818" points="1261.4824,394.5313,1251.4824,398.5313,1261.4824,402.5313,1257.4824,398.5313" style="stroke:#181818;stroke-width:1.0;"/><line style="stroke:#181818;stroke-width:1.0;stroke-dasharray:2.0,2.0;" x1="1255.4824" x2="1435.7422" y1="398.5313" y2="398.5313"/><text fill="#000000" font-family="sans-serif" font-size="13" font-weight="bold" lengthAdjust="spacing" textLength="14.46" x="1267.4824" y="393.2686">10</text><text fill="#000000" font-family="sans-serif" font-size="13" lengthAdjust="spacing" textLength="101.8989" x="1285.9424" y="393.2686">patientDataModel</text><polygon fill="#181818" points="836.543,425.8223,826.543,429.8223,836.543,433.8223,832.543,429.8223" style="stroke:#181818;stroke-width:1.0;"/><line style="stroke:#181818;stroke-width:1.0;stroke-dasharray:2.0,2.0;" x1="830.543" x2="1244.4824" y1="429.8223" y2="429.8223"/><text fill="#000000" font-family="sans-serif" font-size="13" font-weight="bold" lengthAdjust="spacing" textLength="14.46" x="842.543" y="424.5596">11</text><text fill="#000000" font-family="sans-serif" font-size="13" lengthAdjust="spacing" textLength="101.8989" x="861.0029" y="424.5596">patientDataModel</text><polygon fill="#181818" points="1617.6689,457.1133,1627.6689,461.1133,1617.6689,465.1133,1621.6689,461.1133" style="stroke:#181818;stroke-width:1.0;"/><line style="stroke:#181818;stroke-width:1.0;" x1="825.543" x2="1623.6689" y1="461.1133" y2="461.1133"/><text fill="#000000" font-family="sans-serif" font-size="13" font-weight="bold" lengthAdjust="spacing" textLength="14.46" x="832.543" y="455.8506">12</text><text fill="#000000" font-family="sans-serif" font-size="13" lengthAdjust="spacing" textLength="174.1606" x="851.0029" y="455.8506">AddPatient(patientDataModel)</text><polygon fill="#181818" points="1837.7715,488.4043,1847.7715,492.4043,1837.7715,496.4043,1841.7715,492.4043" style="stroke:#181818;stroke-width:1.0;"/><line style="stroke:#181818;stroke-width:1.0;" x1="1639.6689" x2="1843.7715" y1="492.4043" y2="492.4043"/><text fill="#000000" font-family="sans-serif" font-size="13" font-weight="bold" lengthAdjust="spacing" textLength="14.46" x="1646.6689" y="487.1416">13</text><text fill="#000000" font-family="sans-serif" font-size="13" lengthAdjust="spacing" textLength="106.2217" x="1665.1289" y="487.1416">AddAsync(patient)</text><polygon fill="#181818" points="1842.7715,519.6953,1852.7715,523.6953,1842.7715,527.6953,1846.7715,523.6953" style="stroke:#181818;stroke-width:1.0;"/><line style="stroke:#181818;stroke-width:1.0;" x1="1634.6689" x2="1848.7715" y1="523.6953" y2="523.6953"/><text fill="#000000" font-family="sans-serif" font-size="13" font-weight="bold" lengthAdjust="spacing" textLength="14.46" x="1641.6689" y="518.4326">14</text><text fill="#000000" font-family="sans-serif" font-size="13" lengthAdjust="spacing" textLength="125.728" x="1660.1289" y="518.4326">SaveChangesAsync()</text><polygon fill="#181818" points="1228.4824,550.9863,1238.4824,554.9863,1228.4824,558.9863,1232.4824,554.9863" style="stroke:#181818;stroke-width:1.0;"/><line style="stroke:#181818;stroke-width:1.0;" x1="825.543" x2="1234.4824" y1="554.9863" y2="554.9863"/><text fill="#000000" font-family="sans-serif" font-size="13" font-weight="bold" lengthAdjust="spacing" textLength="14.46" x="832.543" y="549.7236">15</text><text fill="#000000" font-family="sans-serif" font-size="13" lengthAdjust="spacing" textLength="90.3018" x="851.0029" y="549.7236">ToDTO(patient)</text><polygon fill="#181818" points="2013.9053,582.2773,2023.9053,586.2773,2013.9053,590.2773,2017.9053,586.2773" style="stroke:#181818;stroke-width:1.0;"/><line style="stroke:#181818;stroke-width:1.0;" x1="1250.4824" x2="2019.9053" y1="586.2773" y2="586.2773"/><text fill="#000000" font-family="sans-serif" font-size="13" font-weight="bold" lengthAdjust="spacing" textLength="14.46" x="1257.4824" y="581.0146">16</text><text fill="#000000" font-family="sans-serif" font-size="13" lengthAdjust="spacing" textLength="87.4072" x="1275.9424" y="581.0146">PatientDTO(...)</text><polygon fill="#181818" points="1261.4824,613.5684,1251.4824,617.5684,1261.4824,621.5684,1257.4824,617.5684" style="stroke:#181818;stroke-width:1.0;"/><line style="stroke:#181818;stroke-width:1.0;stroke-dasharray:2.0,2.0;" x1="1255.4824" x2="2029.9053" y1="617.5684" y2="617.5684"/><text fill="#000000" font-family="sans-serif" font-size="13" font-weight="bold" lengthAdjust="spacing" textLength="14.46" x="1267.4824" y="612.3057">17</text><text fill="#000000" font-family="sans-serif" font-size="13" lengthAdjust="spacing" textLength="59.2617" x="1285.9424" y="612.3057">patientDto</text><polygon fill="#181818" points="836.543,644.8594,826.543,648.8594,836.543,652.8594,832.543,648.8594" style="stroke:#181818;stroke-width:1.0;"/><line style="stroke:#181818;stroke-width:1.0;stroke-dasharray:2.0,2.0;" x1="830.543" x2="1244.4824" y1="648.8594" y2="648.8594"/><text fill="#000000" font-family="sans-serif" font-size="13" font-weight="bold" lengthAdjust="spacing" textLength="14.46" x="842.543" y="643.5967">18</text><text fill="#000000" font-family="sans-serif" font-size="13" lengthAdjust="spacing" textLength="59.2617" x="861.0029" y="643.5967">patientDto</text><polygon fill="#181818" points="537.627,676.1504,527.627,680.1504,537.627,684.1504,533.627,680.1504" style="stroke:#181818;stroke-width:1.0;"/><line style="stroke:#181818;stroke-width:1.0;stroke-dasharray:2.0,2.0;" x1="531.627" x2="819.543" y1="680.1504" y2="680.1504"/><text fill="#000000" font-family="sans-serif" font-size="13" font-weight="bold" lengthAdjust="spacing" textLength="14.46" x="543.627" y="674.8877">19</text><text fill="#000000" font-family="sans-serif" font-size="13" lengthAdjust="spacing" textLength="57.1035" x="562.0869" y="674.8877">patientdto</text><polygon fill="#181818" points="300.1455,707.4414,290.1455,711.4414,300.1455,715.4414,296.1455,711.4414" style="stroke:#181818;stroke-width:1.0;"/><line style="stroke:#181818;stroke-width:1.0;stroke-dasharray:2.0,2.0;" x1="294.1455" x2="520.627" y1="711.4414" y2="711.4414"/><text fill="#000000" font-family="sans-serif" font-size="13" font-weight="bold" lengthAdjust="spacing" textLength="14.46" x="306.1455" y="706.1787">20</text><text fill="#000000" font-family="sans-serif" font-size="13" lengthAdjust="spacing" textLength="185.0215" x="324.6055" y="706.1787">Status Code 200 and patientDto</text><polygon fill="#181818" points="38.8413,756.0234,28.8413,760.0234,38.8413,764.0234,34.8413,760.0234" style="stroke:#181818;stroke-width:1.0;"/><line style="stroke:#181818;stroke-width:1.0;stroke-dasharray:2.0,2.0;" x1="32.8413" x2="283.1455" y1="760.0234" y2="760.0234"/><text fill="#000000" font-family="sans-serif" font-size="13" font-weight="bold" lengthAdjust="spacing" textLength="14.46" x="44.8413" y="746.1152">21</text><text fill="#000000" font-family="sans-serif" font-size="13" lengthAdjust="spacing" textLength="141.5845" x="63.3013" y="737.4697">Confirms POST success</text><text fill="#000000" font-family="sans-serif" font-size="13" lengthAdjust="spacing" textLength="205.2324" x="66.9131" y="754.7607">and shows registered patient profile</text><!--SRC=[VLGzaziW4EtrAnWt9nUsRrAwo8pFRgwukHlRPHgCrZQ910IGB_VlimWGw2Ff5kczjxliOv_krYgptMnKJOLjcthDPBCnyBi5mM1LSNhJj2aAsbefskO26cDcfIQBNTLmiI3K4EgYeb1KMywuGY7oGIq7OO-ojU0WsWLpYBqKLikw1krWh3yDi8i0tYbr0ltW3CYMl4u-TiKeumzpoLvQNbS-qyM7mpJAmr0y4BoYZ-S4twXINg_feZdCWLhw9Yke7Qp2G-CEi_qTGKd3yNQ_ilxInwuQhl4yOBzGzajUhzWpNiNXucuK_jXudHZEDdcmClLvEB_dhLPM5ZXdDrQo-kw7vy3lfpFHSEF6OjC2FYEUA2sll8RE6_n14Uq7xfaeaGQBEam3GapANVuqKYmJERD1HaIPE5mKEOOwWagfWG5_GFKndY4skimAwoNGi354vMW8v7LHcNEYMOe8SgMCyvJhzNgGgBUD1wwGb9B4lnLC22dBiEF-VyRfAyjxyLv4nbdsvYi3EwymU3R0aTYxCxkzgK3FJsPEn5MUNuqqyieJEUQVxNQM6meVDDsz2-JjgcY1SYoHz-wVKU5PmQ3krNG2E_Cbs4p3yJtDi4xq0Vix5JSmdhtC2ux4_5keu5-3mrSnBM0oiVHW1u_PUt7iBFUiCyBig10ojQGZ_dzAGzfqFkCLa2-QF5zSteDtdwsWawMsDMIFuoJVdfy95LLUm_ZEmnA9UmY5_5BReeAuSjqOlzHConWOGtw8Jj7SvQVfDnrKqpsNvV6RhlWB]--></g></svg>