<svg xmlns="http://www.w3.org/2000/svg" xmlns:xlink="http://www.w3.org/1999/xlink" contentStyleType="text/css" height="1012px" preserveAspectRatio="none" style="width:2098px;height:1012px;background:#FFFFFF;" version="1.1" viewBox="0 0 2098 1012" width="2098px" zoomAndPan="magnify"><defs/><g><rect fill="#FFFFFF" height="802.9844" style="stroke:#181818;stroke-width:1.0;" width="10" x="258.9302" y="116.9121"/><rect fill="#FFFFFF" height="771.6934" style="stroke:#181818;stroke-width:1.0;" width="10" x="395.9219" y="148.2031"/><rect fill="#FFFFFF" height="31.291" style="stroke:#181818;stroke-width:1.0;" width="10" x="589.3208" y="223.7852"/><rect fill="#FFFFFF" height="155.1641" style="stroke:#181818;stroke-width:1.0;" width="10" x="589.3208" y="693.1504"/><rect fill="#FFFFFF" height="30" style="stroke:#181818;stroke-width:1.0;" width="10" x="806.5679" y="818.3145"/><rect fill="#FFFFFF" height="312.9102" style="stroke:#181818;stroke-width:1.0;" width="10" x="905.6538" y="286.3672"/><rect fill="#FFFFFF" height="31.291" style="stroke:#181818;stroke-width:1.0;" width="10" x="1045.561" y="317.6582"/><rect fill="#FFFFFF" height="62.582" style="stroke:#181818;stroke-width:1.0;" width="10" x="1142.3057" y="442.8223"/><rect fill="#FFFFFF" height="250.3281" style="stroke:#181818;stroke-width:1.0;" width="10" x="1233.9951" y="380.2402"/><rect fill="#FFFFFF" height="250.3281" style="stroke:#181818;stroke-width:1.0;" width="10" x="1433.1177" y="411.5313"/><rect fill="#FFFFFF" height="31.291" style="stroke:#181818;stroke-width:1.0;" width="10" x="1734.2646" y="567.9863"/><rect fill="#FFFFFF" height="125.1641" style="stroke:#181818;stroke-width:1.0;" width="10" x="2026.9175" y="661.8594"/><line style="stroke:#181818;stroke-width:0.5;stroke-dasharray:5.0,5.0;" x1="27" x2="27" y1="83.6211" y2="928.8965"/><line style="stroke:#181818;stroke-width:0.5;stroke-dasharray:5.0,5.0;" x1="263.4717" x2="263.4717" y1="83.6211" y2="928.8965"/><line style="stroke:#181818;stroke-width:0.5;stroke-dasharray:5.0,5.0;" x1="400.7979" x2="400.7979" y1="83.6211" y2="928.8965"/><line style="stroke:#181818;stroke-width:0.5;stroke-dasharray:5.0,5.0;" x1="593.5347" x2="593.5347" y1="83.6211" y2="928.8965"/><line style="stroke:#181818;stroke-width:0.5;stroke-dasharray:5.0,5.0;" x1="811.0576" x2="811.0576" y1="83.6211" y2="928.8965"/><line style="stroke:#181818;stroke-width:0.5;stroke-dasharray:5.0,5.0;" x1="910.0781" x2="910.0781" y1="83.6211" y2="928.8965"/><line style="stroke:#181818;stroke-width:0.5;stroke-dasharray:5.0,5.0;" x1="1050.0474" x2="1050.0474" y1="83.6211" y2="928.8965"/><line style="stroke:#181818;stroke-width:0.5;stroke-dasharray:5.0,5.0;" x1="1147.0747" x2="1147.0747" y1="83.6211" y2="928.8965"/><line style="stroke:#181818;stroke-width:0.5;stroke-dasharray:5.0,5.0;" x1="1238.5366" x2="1238.5366" y1="83.6211" y2="928.8965"/><line style="stroke:#181818;stroke-width:0.5;stroke-dasharray:5.0,5.0;" x1="1438.042" x2="1438.042" y1="83.6211" y2="928.8965"/><line style="stroke:#181818;stroke-width:0.5;stroke-dasharray:5.0,5.0;" x1="1654.7993" x2="1654.7993" y1="83.6211" y2="928.8965"/><line style="stroke:#181818;stroke-width:0.5;stroke-dasharray:5.0,5.0;" x1="1738.9302" x2="1738.9302" y1="83.6211" y2="928.8965"/><line style="stroke:#181818;stroke-width:0.5;stroke-dasharray:5.0,5.0;" x1="1884.1216" x2="1884.1216" y1="83.6211" y2="928.8965"/><line style="stroke:#181818;stroke-width:0.5;stroke-dasharray:5.0,5.0;" x1="2031.8384" x2="2031.8384" y1="83.6211" y2="928.8965"/><text fill="#000000" font-family="sans-serif" font-size="14" lengthAdjust="spacing" textLength="39.6826" x="5" y="80.1074">Admin</text><ellipse cx="27.8413" cy="13.5" fill="#E2E2F0" rx="8" ry="8" style="stroke:#181818;stroke-width:0.5;"/><path d="M27.8413,21.5 L27.8413,48.5 M14.8413,29.5 L40.8413,29.5 M27.8413,48.5 L14.8413,63.5 M27.8413,48.5 L40.8413,63.5 " fill="none" style="stroke:#181818;stroke-width:0.5;"/><text fill="#000000" font-family="sans-serif" font-size="14" lengthAdjust="spacing" textLength="39.6826" x="5" y="943.0039">Admin</text><ellipse cx="27.8413" cy="955.0176" fill="#E2E2F0" rx="8" ry="8" style="stroke:#181818;stroke-width:0.5;"/><path d="M27.8413,963.0176 L27.8413,990.0176 M14.8413,971.0176 L40.8413,971.0176 M27.8413,990.0176 L14.8413,1005.0176 M27.8413,990.0176 L40.8413,1005.0176 " fill="none" style="stroke:#181818;stroke-width:0.5;"/><rect fill="#E2E2F0" height="32.6211" rx="2.5" ry="2.5" style="stroke:#181818;stroke-width:0.5;" width="80.917" x="223.4717" y="50"/><text fill="#000000" font-family="sans-serif" font-size="14" lengthAdjust="spacing" textLength="66.917" x="230.4717" y="72.1074">RouteUser</text><rect fill="#E2E2F0" height="32.6211" rx="2.5" ry="2.5" style="stroke:#181818;stroke-width:0.5;" width="80.917" x="223.4717" y="927.8965"/><text fill="#000000" font-family="sans-serif" font-size="14" lengthAdjust="spacing" textLength="66.917" x="230.4717" y="950.0039">RouteUser</text><rect fill="#E2E2F0" height="32.6211" rx="2.5" ry="2.5" style="stroke:#181818;stroke-width:0.5;" width="104.248" x="348.7979" y="50"/><text fill="#000000" font-family="sans-serif" font-size="14" lengthAdjust="spacing" textLength="90.248" x="355.7979" y="72.1074">ControllerUser</text><rect fill="#E2E2F0" height="32.6211" rx="2.5" ry="2.5" style="stroke:#181818;stroke-width:0.5;" width="104.248" x="348.7979" y="927.8965"/><text fill="#000000" font-family="sans-serif" font-size="14" lengthAdjust="spacing" textLength="90.248" x="355.7979" y="950.0039">ControllerUser</text><rect fill="#E2E2F0" height="32.6211" rx="2.5" ry="2.5" style="stroke:#181818;stroke-width:0.5;" width="85.5723" x="551.5347" y="50"/><text fill="#000000" font-family="sans-serif" font-size="14" lengthAdjust="spacing" textLength="71.5723" x="558.5347" y="72.1074">jsonToDTO</text><rect fill="#E2E2F0" height="32.6211" rx="2.5" ry="2.5" style="stroke:#181818;stroke-width:0.5;" width="85.5723" x="551.5347" y="927.8965"/><text fill="#000000" font-family="sans-serif" font-size="14" lengthAdjust="spacing" textLength="71.5723" x="558.5347" y="950.0039">jsonToDTO</text><rect fill="#E2E2F0" height="32.6211" rx="2.5" ry="2.5" style="stroke:#181818;stroke-width:0.5;" width="63.0205" x="780.0576" y="50"/><text fill="#000000" font-family="sans-serif" font-size="14" lengthAdjust="spacing" textLength="49.0205" x="787.0576" y="72.1074">dtoUser</text><rect fill="#E2E2F0" height="32.6211" rx="2.5" ry="2.5" style="stroke:#181818;stroke-width:0.5;" width="63.0205" x="780.0576" y="927.8965"/><text fill="#000000" font-family="sans-serif" font-size="14" lengthAdjust="spacing" textLength="49.0205" x="787.0576" y="950.0039">dtoUser</text><rect fill="#E2E2F0" height="32.6211" rx="2.5" ry="2.5" style="stroke:#181818;stroke-width:0.5;" width="115.1514" x="853.0781" y="50"/><text fill="#000000" font-family="sans-serif" font-size="14" lengthAdjust="spacing" textLength="101.1514" x="860.0781" y="72.1074">AppServiceUser</text><rect fill="#E2E2F0" height="32.6211" rx="2.5" ry="2.5" style="stroke:#181818;stroke-width:0.5;" width="115.1514" x="853.0781" y="927.8965"/><text fill="#000000" font-family="sans-serif" font-size="14" lengthAdjust="spacing" textLength="101.1514" x="860.0781" y="950.0039">AppServiceUser</text><rect fill="#E2E2F0" height="32.6211" rx="2.5" ry="2.5" style="stroke:#181818;stroke-width:0.5;" width="91.0273" x="1005.0474" y="50"/><text fill="#000000" font-family="sans-serif" font-size="14" lengthAdjust="spacing" textLength="77.0273" x="1012.0474" y="72.1074">UserMapper</text><rect fill="#E2E2F0" height="32.6211" rx="2.5" ry="2.5" style="stroke:#181818;stroke-width:0.5;" width="91.0273" x="1005.0474" y="927.8965"/><text fill="#000000" font-family="sans-serif" font-size="14" lengthAdjust="spacing" textLength="77.0273" x="1012.0474" y="950.0039">UserMapper</text><rect fill="#E2E2F0" height="32.6211" rx="2.5" ry="2.5" style="stroke:#181818;stroke-width:0.5;" width="82.4619" x="1106.0747" y="50"/><text fill="#000000" font-family="sans-serif" font-size="14" lengthAdjust="spacing" textLength="68.4619" x="1113.0747" y="72.1074">user : User</text><rect fill="#E2E2F0" height="32.6211" rx="2.5" ry="2.5" style="stroke:#181818;stroke-width:0.5;" width="82.4619" x="1106.0747" y="927.8965"/><text fill="#000000" font-family="sans-serif" font-size="14" lengthAdjust="spacing" textLength="68.4619" x="1113.0747" y="950.0039">user : User</text><rect fill="#E2E2F0" height="32.6211" rx="2.5" ry="2.5" style="stroke:#181818;stroke-width:0.5;" width="80.917" x="1198.5366" y="50"/><text fill="#000000" font-family="sans-serif" font-size="14" lengthAdjust="spacing" textLength="66.917" x="1205.5366" y="72.1074">IRepoUser</text><rect fill="#E2E2F0" height="32.6211" rx="2.5" ry="2.5" style="stroke:#181818;stroke-width:0.5;" width="80.917" x="1198.5366" y="927.8965"/><text fill="#000000" font-family="sans-serif" font-size="14" lengthAdjust="spacing" textLength="66.917" x="1205.5366" y="950.0039">IRepoUser</text><rect fill="#E2E2F0" height="32.6211" rx="2.5" ry="2.5" style="stroke:#181818;stroke-width:0.5;" width="108.1514" x="1384.042" y="50"/><text fill="#000000" font-family="sans-serif" font-size="14" lengthAdjust="spacing" textLength="94.1514" x="1391.042" y="72.1074">DomainToData</text><rect fill="#E2E2F0" height="32.6211" rx="2.5" ry="2.5" style="stroke:#181818;stroke-width:0.5;" width="108.1514" x="1384.042" y="927.8965"/><text fill="#000000" font-family="sans-serif" font-size="14" lengthAdjust="spacing" textLength="94.1514" x="1391.042" y="950.0039">DomainToData</text><rect fill="#E2E2F0" height="32.6211" rx="2.5" ry="2.5" style="stroke:#181818;stroke-width:0.5;" width="73.1309" x="1618.7993" y="50"/><text fill="#000000" font-family="sans-serif" font-size="14" lengthAdjust="spacing" textLength="59.1309" x="1625.7993" y="72.1074">DataUser</text><rect fill="#E2E2F0" height="32.6211" rx="2.5" ry="2.5" style="stroke:#181818;stroke-width:0.5;" width="73.1309" x="1618.7993" y="927.8965"/><text fill="#000000" font-family="sans-serif" font-size="14" lengthAdjust="spacing" textLength="59.1309" x="1625.7993" y="950.0039">DataUser</text><rect fill="#E2E2F0" height="32.6211" rx="2.5" ry="2.5" style="stroke:#181818;stroke-width:0.5;" width="74.6689" x="1701.9302" y="50"/><text fill="#000000" font-family="sans-serif" font-size="14" lengthAdjust="spacing" textLength="60.6689" x="1708.9302" y="72.1074">IDBDriver</text><rect fill="#E2E2F0" height="32.6211" rx="2.5" ry="2.5" style="stroke:#181818;stroke-width:0.5;" width="74.6689" x="1701.9302" y="927.8965"/><text fill="#000000" font-family="sans-serif" font-size="14" lengthAdjust="spacing" textLength="60.6689" x="1708.9302" y="950.0039">IDBDriver</text><rect fill="#E2E2F0" height="32.6211" rx="2.5" ry="2.5" style="stroke:#181818;stroke-width:0.5;" width="151.7168" x="1809.1216" y="50"/><text fill="#000000" font-family="sans-serif" font-size="14" lengthAdjust="spacing" textLength="137.7168" x="1816.1216" y="72.1074">savedUser : DataUser</text><rect fill="#E2E2F0" height="32.6211" rx="2.5" ry="2.5" style="stroke:#181818;stroke-width:0.5;" width="151.7168" x="1809.1216" y="927.8965"/><text fill="#000000" font-family="sans-serif" font-size="14" lengthAdjust="spacing" textLength="137.7168" x="1816.1216" y="950.0039">savedUser : DataUser</text><rect fill="#E2E2F0" height="32.6211" rx="2.5" ry="2.5" style="stroke:#181818;stroke-width:0.5;" width="122.1582" x="1970.8384" y="50"/><text fill="#000000" font-family="sans-serif" font-size="14" lengthAdjust="spacing" textLength="108.1582" x="1977.8384" y="72.1074">userSaved : User</text><rect fill="#E2E2F0" height="32.6211" rx="2.5" ry="2.5" style="stroke:#181818;stroke-width:0.5;" width="122.1582" x="1970.8384" y="927.8965"/><text fill="#000000" font-family="sans-serif" font-size="14" lengthAdjust="spacing" textLength="108.1582" x="1977.8384" y="950.0039">userSaved : User</text><rect fill="#FFFFFF" height="802.9844" style="stroke:#181818;stroke-width:1.0;" width="10" x="258.9302" y="116.9121"/><rect fill="#FFFFFF" height="771.6934" style="stroke:#181818;stroke-width:1.0;" width="10" x="395.9219" y="148.2031"/><rect fill="#FFFFFF" height="31.291" style="stroke:#181818;stroke-width:1.0;" width="10" x="589.3208" y="223.7852"/><rect fill="#FFFFFF" height="155.1641" style="stroke:#181818;stroke-width:1.0;" width="10" x="589.3208" y="693.1504"/><rect fill="#FFFFFF" height="30" style="stroke:#181818;stroke-width:1.0;" width="10" x="806.5679" y="818.3145"/><rect fill="#FFFFFF" height="312.9102" style="stroke:#181818;stroke-width:1.0;" width="10" x="905.6538" y="286.3672"/><rect fill="#FFFFFF" height="31.291" style="stroke:#181818;stroke-width:1.0;" width="10" x="1045.561" y="317.6582"/><rect fill="#FFFFFF" height="62.582" style="stroke:#181818;stroke-width:1.0;" width="10" x="1142.3057" y="442.8223"/><rect fill="#FFFFFF" height="250.3281" style="stroke:#181818;stroke-width:1.0;" width="10" x="1233.9951" y="380.2402"/><rect fill="#FFFFFF" height="250.3281" style="stroke:#181818;stroke-width:1.0;" width="10" x="1433.1177" y="411.5313"/><rect fill="#FFFFFF" height="31.291" style="stroke:#181818;stroke-width:1.0;" width="10" x="1734.2646" y="567.9863"/><rect fill="#FFFFFF" height="125.1641" style="stroke:#181818;stroke-width:1.0;" width="10" x="2026.9175" y="661.8594"/><polygon fill="#181818" points="246.9302,112.9121,256.9302,116.9121,246.9302,120.9121,250.9302,116.9121" style="stroke:#181818;stroke-width:1.0;"/><line style="stroke:#181818;stroke-width:1.0;stroke-dasharray:2.0,2.0;" x1="27.8413" x2="252.9302" y1="116.9121" y2="116.9121"/><text fill="#000000" font-family="sans-serif" font-size="13" font-weight="bold" lengthAdjust="spacing" textLength="7.23" x="34.8413" y="111.6494">1</text><text fill="#000000" font-family="sans-serif" font-size="13" lengthAdjust="spacing" textLength="200.8589" x="46.0713" y="111.6494">POST register new backoffice user</text><polygon fill="#181818" points="383.9219,144.2031,393.9219,148.2031,383.9219,152.2031,387.9219,148.2031" style="stroke:#181818;stroke-width:1.0;"/><line style="stroke:#181818;stroke-width:1.0;stroke-dasharray:2.0,2.0;" x1="268.9302" x2="389.9219" y1="148.2031" y2="148.2031"/><text fill="#000000" font-family="sans-serif" font-size="13" font-weight="bold" lengthAdjust="spacing" textLength="7.23" x="275.9302" y="142.9404">2</text><text fill="#000000" font-family="sans-serif" font-size="13" lengthAdjust="spacing" textLength="96.0845" x="287.1602" y="142.9404">createUser(json)</text><line style="stroke:#181818;stroke-width:1.0;stroke-dasharray:2.0,2.0;" x1="405.9219" x2="447.9219" y1="179.4941" y2="179.4941"/><line style="stroke:#181818;stroke-width:1.0;stroke-dasharray:2.0,2.0;" x1="447.9219" x2="447.9219" y1="179.4941" y2="192.4941"/><line style="stroke:#181818;stroke-width:1.0;stroke-dasharray:2.0,2.0;" x1="406.9219" x2="447.9219" y1="192.4941" y2="192.4941"/><polygon fill="#181818" points="416.9219,188.4941,406.9219,192.4941,416.9219,196.4941,412.9219,192.4941" style="stroke:#181818;stroke-width:1.0;"/><text fill="#000000" font-family="sans-serif" font-size="13" font-weight="bold" lengthAdjust="spacing" textLength="7.23" x="412.9219" y="174.2314">3</text><text fill="#000000" font-family="sans-serif" font-size="13" lengthAdjust="spacing" textLength="77.3145" x="424.1519" y="174.2314">validate(json)</text><polygon fill="#181818" points="577.3208,219.7852,587.3208,223.7852,577.3208,227.7852,581.3208,223.7852" style="stroke:#181818;stroke-width:1.0;"/><line style="stroke:#181818;stroke-width:1.0;stroke-dasharray:2.0,2.0;" x1="405.9219" x2="583.3208" y1="223.7852" y2="223.7852"/><text fill="#000000" font-family="sans-serif" font-size="13" font-weight="bold" lengthAdjust="spacing" textLength="7.23" x="412.9219" y="218.5225">4</text><text fill="#000000" font-family="sans-serif" font-size="13" lengthAdjust="spacing" textLength="127.8545" x="424.1519" y="218.5225">mapToDTOUser(json)</text><polygon fill="#181818" points="416.9219,251.0762,406.9219,255.0762,416.9219,259.0762,412.9219,255.0762" style="stroke:#181818;stroke-width:1.0;"/><line style="stroke:#181818;stroke-width:1.0;stroke-dasharray:2.0,2.0;" x1="410.9219" x2="593.3208" y1="255.0762" y2="255.0762"/><text fill="#000000" font-family="sans-serif" font-size="13" font-weight="bold" lengthAdjust="spacing" textLength="7.23" x="422.9219" y="249.8135">5</text><text fill="#000000" font-family="sans-serif" font-size="13" lengthAdjust="spacing" textLength="54.8882" x="434.1519" y="249.8135">UserDTO</text><polygon fill="#181818" points="893.6538,282.3672,903.6538,286.3672,893.6538,290.3672,897.6538,286.3672" style="stroke:#181818;stroke-width:1.0;"/><line style="stroke:#181818;stroke-width:1.0;stroke-dasharray:2.0,2.0;" x1="405.9219" x2="899.6538" y1="286.3672" y2="286.3672"/><text fill="#000000" font-family="sans-serif" font-size="13" font-weight="bold" lengthAdjust="spacing" textLength="7.23" x="412.9219" y="281.1045">6</text><text fill="#000000" font-family="sans-serif" font-size="13" lengthAdjust="spacing" textLength="127.1245" x="424.1519" y="281.1045">createUser(UserDTO)</text><polygon fill="#181818" points="1033.561,313.6582,1043.561,317.6582,1033.561,321.6582,1037.561,317.6582" style="stroke:#181818;stroke-width:1.0;"/><line style="stroke:#181818;stroke-width:1.0;stroke-dasharray:2.0,2.0;" x1="915.6538" x2="1039.561" y1="317.6582" y2="317.6582"/><text fill="#000000" font-family="sans-serif" font-size="13" font-weight="bold" lengthAdjust="spacing" textLength="7.23" x="922.6538" y="312.3955">7</text><text fill="#000000" font-family="sans-serif" font-size="13" lengthAdjust="spacing" textLength="99.6772" x="933.8838" y="312.3955">create(UserDTO)</text><polygon fill="#181818" points="1135.3057,344.9492,1145.3057,348.9492,1135.3057,352.9492,1139.3057,348.9492" style="stroke:#181818;stroke-width:1.0;"/><line style="stroke:#181818;stroke-width:1.0;stroke-dasharray:2.0,2.0;" x1="1050.561" x2="1141.3057" y1="348.9492" y2="348.9492"/><text fill="#000000" font-family="sans-serif" font-size="13" font-weight="bold" lengthAdjust="spacing" textLength="7.23" x="1057.561" y="343.6865">8</text><text fill="#000000" font-family="sans-serif" font-size="13" lengthAdjust="spacing" textLength="44.7891" x="1068.791" y="343.6865">create()</text><polygon fill="#181818" points="1221.9951,376.2402,1231.9951,380.2402,1221.9951,384.2402,1225.9951,380.2402" style="stroke:#181818;stroke-width:1.0;"/><line style="stroke:#181818;stroke-width:1.0;stroke-dasharray:2.0,2.0;" x1="915.6538" x2="1227.9951" y1="380.2402" y2="380.2402"/><text fill="#000000" font-family="sans-serif" font-size="13" font-weight="bold" lengthAdjust="spacing" textLength="7.23" x="922.6538" y="374.9775">9</text><text fill="#000000" font-family="sans-serif" font-size="13" lengthAdjust="spacing" textLength="61.4072" x="933.8838" y="374.9775">save(user)</text><polygon fill="#181818" points="1421.1177,407.5313,1431.1177,411.5313,1421.1177,415.5313,1425.1177,411.5313" style="stroke:#181818;stroke-width:1.0;"/><line style="stroke:#181818;stroke-width:1.0;stroke-dasharray:2.0,2.0;" x1="1243.9951" x2="1427.1177" y1="411.5313" y2="411.5313"/><text fill="#000000" font-family="sans-serif" font-size="13" font-weight="bold" lengthAdjust="spacing" textLength="14.46" x="1250.9951" y="406.2686">10</text><text fill="#000000" font-family="sans-serif" font-size="13" lengthAdjust="spacing" textLength="129.3145" x="1269.4551" y="406.2686">mapToDataUser(user)</text><polygon fill="#181818" points="1163.3057,438.8223,1153.3057,442.8223,1163.3057,446.8223,1159.3057,442.8223" style="stroke:#181818;stroke-width:1.0;"/><line style="stroke:#181818;stroke-width:1.0;stroke-dasharray:2.0,2.0;" x1="1157.3057" x2="1432.1177" y1="442.8223" y2="442.8223"/><text fill="#000000" font-family="sans-serif" font-size="13" font-weight="bold" lengthAdjust="spacing" textLength="14.46" x="1169.3057" y="437.5596">11</text><text fill="#000000" font-family="sans-serif" font-size="13" lengthAdjust="spacing" textLength="59.2363" x="1187.7656" y="437.5596">getEmail()</text><polygon fill="#181818" points="1163.3057,470.1133,1153.3057,474.1133,1163.3057,478.1133,1159.3057,474.1133" style="stroke:#181818;stroke-width:1.0;"/><line style="stroke:#181818;stroke-width:1.0;stroke-dasharray:2.0,2.0;" x1="1157.3057" x2="1432.1177" y1="474.1133" y2="474.1133"/><text fill="#000000" font-family="sans-serif" font-size="13" font-weight="bold" lengthAdjust="spacing" textLength="14.46" x="1169.3057" y="468.8506">12</text><text fill="#000000" font-family="sans-serif" font-size="13" lengthAdjust="spacing" textLength="86.6963" x="1187.7656" y="468.8506">getUsername()</text><polygon fill="#181818" points="1158.3057,501.4043,1148.3057,505.4043,1158.3057,509.4043,1154.3057,505.4043" style="stroke:#181818;stroke-width:1.0;"/><line style="stroke:#181818;stroke-width:1.0;stroke-dasharray:2.0,2.0;" x1="1152.3057" x2="1432.1177" y1="505.4043" y2="505.4043"/><text fill="#000000" font-family="sans-serif" font-size="13" font-weight="bold" lengthAdjust="spacing" textLength="14.46" x="1164.3057" y="500.1416">13</text><text fill="#000000" font-family="sans-serif" font-size="13" lengthAdjust="spacing" textLength="53.4663" x="1182.7656" y="500.1416">getRole()</text><polygon fill="#181818" points="1643.3647,532.6953,1653.3647,536.6953,1643.3647,540.6953,1647.3647,536.6953" style="stroke:#181818;stroke-width:1.0;"/><line style="stroke:#181818;stroke-width:1.0;stroke-dasharray:2.0,2.0;" x1="1443.1177" x2="1649.3647" y1="536.6953" y2="536.6953"/><text fill="#000000" font-family="sans-serif" font-size="13" font-weight="bold" lengthAdjust="spacing" textLength="14.46" x="1450.1177" y="531.4326">14</text><text fill="#000000" font-family="sans-serif" font-size="13" lengthAdjust="spacing" textLength="169.7871" x="1468.5776" y="531.4326">create(username, email, role)</text><polygon fill="#181818" points="1722.2646,563.9863,1732.2646,567.9863,1722.2646,571.9863,1726.2646,567.9863" style="stroke:#181818;stroke-width:1.0;"/><line style="stroke:#181818;stroke-width:1.0;stroke-dasharray:2.0,2.0;" x1="1243.9951" x2="1728.2646" y1="567.9863" y2="567.9863"/><text fill="#000000" font-family="sans-serif" font-size="13" font-weight="bold" lengthAdjust="spacing" textLength="14.46" x="1250.9951" y="562.7236">15</text><text fill="#000000" font-family="sans-serif" font-size="13" lengthAdjust="spacing" textLength="88.8672" x="1269.4551" y="562.7236">save(dataUser)</text><polygon fill="#181818" points="1872.98,595.2773,1882.98,599.2773,1872.98,603.2773,1876.98,599.2773" style="stroke:#181818;stroke-width:1.0;"/><line style="stroke:#181818;stroke-width:1.0;stroke-dasharray:2.0,2.0;" x1="1739.2646" x2="1878.98" y1="599.2773" y2="599.2773"/><text fill="#000000" font-family="sans-serif" font-size="13" font-weight="bold" lengthAdjust="spacing" textLength="14.46" x="1746.2646" y="594.0146">16</text><text fill="#000000" font-family="sans-serif" font-size="13" lengthAdjust="spacing" textLength="98.2554" x="1764.7246" y="594.0146">save(savedUser)</text><polygon fill="#181818" points="1421.1177,626.5684,1431.1177,630.5684,1421.1177,634.5684,1425.1177,630.5684" style="stroke:#181818;stroke-width:1.0;"/><line style="stroke:#181818;stroke-width:1.0;stroke-dasharray:2.0,2.0;" x1="1238.9951" x2="1427.1177" y1="630.5684" y2="630.5684"/><text fill="#000000" font-family="sans-serif" font-size="13" font-weight="bold" lengthAdjust="spacing" textLength="14.46" x="1245.9951" y="625.3057">17</text><text fill="#000000" font-family="sans-serif" font-size="13" lengthAdjust="spacing" textLength="146.6626" x="1264.4551" y="625.3057">mapToModel(savedUser)</text><polygon fill="#181818" points="2014.9175,657.8594,2024.9175,661.8594,2014.9175,665.8594,2018.9175,661.8594" style="stroke:#181818;stroke-width:1.0;"/><line style="stroke:#181818;stroke-width:1.0;stroke-dasharray:2.0,2.0;" x1="1438.1177" x2="2020.9175" y1="661.8594" y2="661.8594"/><text fill="#000000" font-family="sans-serif" font-size="13" font-weight="bold" lengthAdjust="spacing" textLength="14.46" x="1445.1177" y="656.5967">18</text><text fill="#000000" font-family="sans-serif" font-size="13" lengthAdjust="spacing" textLength="3.6118" x="1463.5776" y="656.5967">&#160;</text><polygon fill="#181818" points="577.3208,689.1504,587.3208,693.1504,577.3208,697.1504,581.3208,693.1504" style="stroke:#181818;stroke-width:1.0;"/><line style="stroke:#181818;stroke-width:1.0;stroke-dasharray:2.0,2.0;" x1="405.9219" x2="583.3208" y1="693.1504" y2="693.1504"/><text fill="#000000" font-family="sans-serif" font-size="13" font-weight="bold" lengthAdjust="spacing" textLength="14.46" x="412.9219" y="687.8877">19</text><text fill="#000000" font-family="sans-serif" font-size="13" lengthAdjust="spacing" textLength="145.939" x="431.3818" y="687.8877">mapToJSON(userSaved)</text><polygon fill="#181818" points="2014.9175,720.4414,2024.9175,724.4414,2014.9175,728.4414,2018.9175,724.4414" style="stroke:#181818;stroke-width:1.0;"/><line style="stroke:#181818;stroke-width:1.0;stroke-dasharray:2.0,2.0;" x1="599.3208" x2="2020.9175" y1="724.4414" y2="724.4414"/><text fill="#000000" font-family="sans-serif" font-size="13" font-weight="bold" lengthAdjust="spacing" textLength="14.46" x="606.3208" y="719.1787">20</text><text fill="#000000" font-family="sans-serif" font-size="13" lengthAdjust="spacing" textLength="86.6963" x="624.7808" y="719.1787">getUsername()</text><polygon fill="#181818" points="2014.9175,751.7324,2024.9175,755.7324,2014.9175,759.7324,2018.9175,755.7324" style="stroke:#181818;stroke-width:1.0;"/><line style="stroke:#181818;stroke-width:1.0;stroke-dasharray:2.0,2.0;" x1="599.3208" x2="2020.9175" y1="755.7324" y2="755.7324"/><text fill="#000000" font-family="sans-serif" font-size="13" font-weight="bold" lengthAdjust="spacing" textLength="14.46" x="606.3208" y="750.4697">21</text><text fill="#000000" font-family="sans-serif" font-size="13" lengthAdjust="spacing" textLength="59.2363" x="624.7808" y="750.4697">getEmail()</text><polygon fill="#181818" points="2019.9175,783.0234,2029.9175,787.0234,2019.9175,791.0234,2023.9175,787.0234" style="stroke:#181818;stroke-width:1.0;"/><line style="stroke:#181818;stroke-width:1.0;stroke-dasharray:2.0,2.0;" x1="599.3208" x2="2025.9175" y1="787.0234" y2="787.0234"/><text fill="#000000" font-family="sans-serif" font-size="13" font-weight="bold" lengthAdjust="spacing" textLength="14.46" x="606.3208" y="781.7607">22</text><text fill="#000000" font-family="sans-serif" font-size="13" lengthAdjust="spacing" textLength="53.4663" x="624.7808" y="781.7607">getRole()</text><polygon fill="#181818" points="794.5679,814.3145,804.5679,818.3145,794.5679,822.3145,798.5679,818.3145" style="stroke:#181818;stroke-width:1.0;"/><line style="stroke:#181818;stroke-width:1.0;stroke-dasharray:2.0,2.0;" x1="599.3208" x2="800.5679" y1="818.3145" y2="818.3145"/><text fill="#000000" font-family="sans-serif" font-size="13" font-weight="bold" lengthAdjust="spacing" textLength="14.46" x="606.3208" y="813.0518">23</text><text fill="#000000" font-family="sans-serif" font-size="13" lengthAdjust="spacing" textLength="169.7871" x="624.7808" y="813.0518">create(username, email, role)</text><polygon fill="#181818" points="279.9302,875.6055,269.9302,879.6055,279.9302,883.6055,275.9302,879.6055" style="stroke:#181818;stroke-width:1.0;"/><line style="stroke:#181818;stroke-width:1.0;stroke-dasharray:2.0,2.0;" x1="273.9302" x2="394.9219" y1="879.6055" y2="879.6055"/><text fill="#000000" font-family="sans-serif" font-size="13" font-weight="bold" lengthAdjust="spacing" textLength="14.46" x="285.9302" y="874.3428">24</text><text fill="#000000" font-family="sans-serif" font-size="13" lengthAdjust="spacing" textLength="84.5317" x="304.3901" y="874.3428">return success</text><polygon fill="#181818" points="38.8413,906.8965,28.8413,910.8965,38.8413,914.8965,34.8413,910.8965" style="stroke:#181818;stroke-width:1.0;"/><line style="stroke:#181818;stroke-width:1.0;stroke-dasharray:2.0,2.0;" x1="32.8413" x2="257.9302" y1="910.8965" y2="910.8965"/><text fill="#000000" font-family="sans-serif" font-size="13" font-weight="bold" lengthAdjust="spacing" textLength="14.46" x="44.8413" y="905.6338">25</text><text fill="#000000" font-family="sans-serif" font-size="13" lengthAdjust="spacing" textLength="132.1963" x="63.3013" y="905.6338">confirm POST success</text><!--SRC=[VPF9SXen48RlF8MAIw3AXBiFgNA23tQLWmlm0mYf8R97IxICNp_TisX6mpWtcF_hzMzz-nEZ2_VRhQkuYKbNtuNLsm1_4nW16wdurNEzMF0KhKdw31v_YsWzMpv8hSoIyS2uHC9n7vLG3jEmWqqHtW9uKdqij5_MH6-h2dmFY19u3zQSxEwq9-rTHbke-B-FcqeFpXt1rqhaqZoaWg3lBzovLbMNKbqc2hjlg6QkKduwWCkrbI_5dTLSKTiyyhOtMUhuFVSzoRlxkVEgxhHp6RSCl0RvrZRM9scQ2tAc-oFHnGW1_PAQRJO_q0XKNlV74_DmLI5YJWEVxCp5XxrSS6sCKf2zgkOHo3WCeKX1aS83RrrTaKNh0KG3nGYiUQKaVk-mJY8dKTJSDUREvMdCRhYSYp2a5mi99TPbHOVBrhg0KLOw0i88HyipFeFIHH12w0XSZwiJazDveiYY5Qrkd0dlWrIYy1Rou9s3KvpEXR2-y1NY8nvKjHenQKfG8iDrqr-f76mrwNe8bgF1KfVXZW5LksFuC64zD7wM_NYoQtpSCvug4KG6cHUH3xQety1GU3ApdXSheVeY0sqqZncAtBYyOT0mTt3Fn_tlLNuWNvvS2ZURlT5wNsw4cQM7WMgR-V_UHnFPcuCl1ixttxnf3p5vmq8I0aBe7oqzUwnepKLvtRxxdlW7]--></g></svg>