<svg xmlns="http://www.w3.org/2000/svg" xmlns:xlink="http://www.w3.org/1999/xlink" contentStyleType="text/css" height="442px" preserveAspectRatio="none" style="width:558px;height:442px;background:#FFFFFF;" version="1.1" viewBox="0 0 558 442" width="558px" zoomAndPan="magnify"><defs/><g><rect fill="#DDDDDD" height="430.1133" style="stroke:#181818;stroke-width:0.5;" width="354.3003" x="191.2144" y="6"/><text fill="#000000" font-family="sans-serif" font-size="13" font-weight="bold" lengthAdjust="spacing" textLength="91.7363" x="212.7009" y="20.0283">&#171;Context (C4)&#187;</text><text fill="#000000" font-family="sans-serif" font-size="13" font-weight="bold" lengthAdjust="spacing" textLength="307.7153" x="216.3127" y="37.3193">Surgical Appointment and Resource Management</text><rect fill="#FFFFFF" height="238.668" style="stroke:#181818;stroke-width:1.0;" width="10" x="59.2344" y="106.8242"/><rect fill="#FFFFFF" height="199.377" style="stroke:#181818;stroke-width:1.0;" width="10" x="248.9624" y="130.1152"/><rect fill="#FFFFFF" height="136.7949" style="stroke:#181818;stroke-width:1.0;" width="10" x="477.7666" y="161.4063"/><rect fill="none" height="161.0859" style="stroke:#000000;stroke-width:1.5;" width="541.5146" x="10" y="176.4063"/><line style="stroke:#181818;stroke-width:0.5;stroke-dasharray:5.0,5.0;" x1="64" x2="64" y1="96.8242" y2="354.4922"/><line style="stroke:#181818;stroke-width:0.5;stroke-dasharray:5.0,5.0;" x1="253.2144" x2="253.2144" y1="96.8242" y2="354.4922"/><line style="stroke:#181818;stroke-width:0.5;stroke-dasharray:5.0,5.0;" x1="482.0186" x2="482.0186" y1="96.8242" y2="354.4922"/><text fill="#000000" font-family="sans-serif" font-size="14" lengthAdjust="spacing" textLength="82.4688" x="20" y="93.3105">Administrator</text><ellipse cx="64.2344" cy="26.7031" fill="#E2E2F0" rx="8" ry="8" style="stroke:#181818;stroke-width:0.5;"/><path d="M64.2344,34.7031 L64.2344,61.7031 M51.2344,42.7031 L77.2344,42.7031 M64.2344,61.7031 L51.2344,76.7031 M64.2344,61.7031 L77.2344,76.7031 " fill="none" style="stroke:#181818;stroke-width:0.5;"/><text fill="#000000" font-family="sans-serif" font-size="14" lengthAdjust="spacing" textLength="82.4688" x="20" y="368.5996">Administrator</text><ellipse cx="64.2344" cy="380.6133" fill="#E2E2F0" rx="8" ry="8" style="stroke:#181818;stroke-width:0.5;"/><path d="M64.2344,388.6133 L64.2344,415.6133 M51.2344,396.6133 L77.2344,396.6133 M64.2344,415.6133 L51.2344,430.6133 M64.2344,415.6133 L77.2344,430.6133 " fill="none" style="stroke:#181818;stroke-width:0.5;"/><rect fill="#E2E2F0" height="51.2422" rx="2.5" ry="2.5" style="stroke:#181818;stroke-width:0.5;" width="117.4961" x="195.2144" y="44.582"/><text fill="#000000" font-family="sans-serif" font-size="14" font-style="italic" lengthAdjust="spacing" textLength="103.4961" x="202.2144" y="66.6895">&#171;Container(C4)&#187;</text><text fill="#000000" font-family="sans-serif" font-size="14" lengthAdjust="spacing" textLength="78.5996" x="214.6626" y="85.3105">Visualization</text><rect fill="#E2E2F0" height="51.2422" rx="2.5" ry="2.5" style="stroke:#181818;stroke-width:0.5;" width="117.4961" x="195.2144" y="353.4922"/><text fill="#000000" font-family="sans-serif" font-size="14" font-style="italic" lengthAdjust="spacing" textLength="103.4961" x="202.2144" y="375.5996">&#171;Container(C4)&#187;</text><text fill="#000000" font-family="sans-serif" font-size="14" lengthAdjust="spacing" textLength="78.5996" x="214.6626" y="394.2207">Visualization</text><rect fill="#E2E2F0" height="51.2422" rx="2.5" ry="2.5" style="stroke:#181818;stroke-width:0.5;" width="117.4961" x="424.0186" y="44.582"/><text fill="#000000" font-family="sans-serif" font-size="14" font-style="italic" lengthAdjust="spacing" textLength="103.4961" x="431.0186" y="66.6895">&#171;Container(C4)&#187;</text><text fill="#000000" font-family="sans-serif" font-size="14" lengthAdjust="spacing" textLength="64.5859" x="450.4736" y="85.3105">Backoffice</text><rect fill="#E2E2F0" height="51.2422" rx="2.5" ry="2.5" style="stroke:#181818;stroke-width:0.5;" width="117.4961" x="424.0186" y="353.4922"/><text fill="#000000" font-family="sans-serif" font-size="14" font-style="italic" lengthAdjust="spacing" textLength="103.4961" x="431.0186" y="375.5996">&#171;Container(C4)&#187;</text><text fill="#000000" font-family="sans-serif" font-size="14" lengthAdjust="spacing" textLength="64.5859" x="450.4736" y="394.2207">Backoffice</text><rect fill="#FFFFFF" height="238.668" style="stroke:#181818;stroke-width:1.0;" width="10" x="59.2344" y="106.8242"/><rect fill="#FFFFFF" height="199.377" style="stroke:#181818;stroke-width:1.0;" width="10" x="248.9624" y="130.1152"/><rect fill="#FFFFFF" height="136.7949" style="stroke:#181818;stroke-width:1.0;" width="10" x="477.7666" y="161.4063"/><polygon fill="#181818" points="236.9624,126.1152,246.9624,130.1152,236.9624,134.1152,240.9624,130.1152" style="stroke:#181818;stroke-width:1.0;"/><line style="stroke:#181818;stroke-width:1.0;" x1="69.2344" x2="242.9624" y1="130.1152" y2="130.1152"/><text fill="#000000" font-family="sans-serif" font-size="13" font-weight="bold" lengthAdjust="spacing" textLength="7.23" x="76.2344" y="124.8525">1</text><text fill="#000000" font-family="sans-serif" font-size="13" lengthAdjust="spacing" textLength="148.8589" x="87.4644" y="124.8525">Asks to edit patient profile</text><polygon fill="#181818" points="465.7666,157.4063,475.7666,161.4063,465.7666,165.4063,469.7666,161.4063" style="stroke:#181818;stroke-width:1.0;"/><line style="stroke:#181818;stroke-width:1.0;" x1="258.9624" x2="471.7666" y1="161.4063" y2="161.4063"/><text fill="#000000" font-family="sans-serif" font-size="13" font-weight="bold" lengthAdjust="spacing" textLength="7.23" x="265.9624" y="156.1436">2</text><text fill="#000000" font-family="sans-serif" font-size="13" lengthAdjust="spacing" textLength="94.6563" x="277.1924" y="156.1436">PUT edit Patient</text><path d="M10,176.4063 L70.1709,176.4063 L70.1709,185.6973 L60.1709,195.6973 L10,195.6973 L10,176.4063 " fill="#EEEEEE" style="stroke:#000000;stroke-width:1.5;"/><rect fill="none" height="161.0859" style="stroke:#000000;stroke-width:1.5;" width="541.5146" x="10" y="176.4063"/><text fill="#000000" font-family="sans-serif" font-size="13" font-weight="bold" lengthAdjust="spacing" textLength="15.1709" x="25" y="191.4346">alt</text><text fill="#000000" font-family="sans-serif" font-size="11" font-weight="bold" lengthAdjust="spacing" textLength="50.7515" x="85.1709" y="190.2764">[success]</text><polygon fill="#181818" points="269.9624,214.9883,259.9624,218.9883,269.9624,222.9883,265.9624,218.9883" style="stroke:#181818;stroke-width:1.0;"/><line style="stroke:#181818;stroke-width:1.0;stroke-dasharray:2.0,2.0;" x1="263.9624" x2="476.7666" y1="218.9883" y2="218.9883"/><text fill="#000000" font-family="sans-serif" font-size="13" font-weight="bold" lengthAdjust="spacing" textLength="7.23" x="275.9624" y="213.7256">3</text><text fill="#000000" font-family="sans-serif" font-size="13" lengthAdjust="spacing" textLength="183.5742" x="287.1924" y="213.7256">Status Code 200, Patient edited</text><polygon fill="#181818" points="80.2344,246.2793,70.2344,250.2793,80.2344,254.2793,76.2344,250.2793" style="stroke:#181818;stroke-width:1.0;"/><line style="stroke:#181818;stroke-width:1.0;stroke-dasharray:2.0,2.0;" x1="74.2344" x2="247.9624" y1="250.2793" y2="250.2793"/><text fill="#000000" font-family="sans-serif" font-size="13" font-weight="bold" lengthAdjust="spacing" textLength="7.23" x="86.2344" y="245.0166">4</text><text fill="#000000" font-family="sans-serif" font-size="13" lengthAdjust="spacing" textLength="144.498" x="97.4644" y="245.0166">Confirms editing success</text><line style="stroke:#000000;stroke-width:1.0;stroke-dasharray:2.0,2.0;" x1="10" x2="551.5146" y1="259.2793" y2="259.2793"/><text fill="#000000" font-family="sans-serif" font-size="11" font-weight="bold" lengthAdjust="spacing" textLength="40.3369" x="15" y="271.1494">[failure]</text><polygon fill="#181818" points="269.9624,294.2012,259.9624,298.2012,269.9624,302.2012,265.9624,298.2012" style="stroke:#181818;stroke-width:1.0;"/><line style="stroke:#181818;stroke-width:1.0;stroke-dasharray:2.0,2.0;" x1="263.9624" x2="481.7666" y1="298.2012" y2="298.2012"/><text fill="#000000" font-family="sans-serif" font-size="13" font-weight="bold" lengthAdjust="spacing" textLength="7.23" x="275.9624" y="292.9385">5</text><text fill="#000000" font-family="sans-serif" font-size="13" lengthAdjust="spacing" textLength="181.3525" x="287.1924" y="292.9385">Client/Server error Status Code</text><polygon fill="#181818" points="80.2344,325.4922,70.2344,329.4922,80.2344,333.4922,76.2344,329.4922" style="stroke:#181818;stroke-width:1.0;"/><line style="stroke:#181818;stroke-width:1.0;stroke-dasharray:2.0,2.0;" x1="74.2344" x2="252.9624" y1="329.4922" y2="329.4922"/><text fill="#000000" font-family="sans-serif" font-size="13" font-weight="bold" lengthAdjust="spacing" textLength="7.23" x="86.2344" y="324.2295">6</text><text fill="#000000" font-family="sans-serif" font-size="13" lengthAdjust="spacing" textLength="124.2808" x="97.4644" y="324.2295">Informs editing failure</text><!--SRC=[RP7DJiCm48JlVefLBu14IOKuHLMbaXC7f8e29ouRPnDMTUnWhwkAfyTkQ4abJlwRcMziNtsA3A4iYi6WbTYRE-tw8j1N9AjftZ1s7dkbC8gpiQ_9fxaMvs6sRdgs7CHZMiu00s3UKKhLxW2pvR9oLkWWS5qztAnM7nQsqNUiqS1w61nRwSaAe6tWXOABNXCyeyMEylvC3UY5DG-f5xnpY6Zu6uMTpQZ8C0AGBVcHSE5uHBrpRSifDCbhzu_yU1FUez2f-N60-Ih7bx0Ekm3YW1eM618wrnsyQzdGn1jPgQHFhaGfOVFsEZesluw9j7PfOGH2r9f2o2y5ynDkAoWnGEKQWll5ulOSaDEe6I59F9Oiaz2sxFjmF6VR_QMI2GGjiecU9emIe38viTYItvC7yZvzv8IhL4CNPQV84fviwwR0CsBYogz1DhNz0G00]--></g></svg>