<svg xmlns="http://www.w3.org/2000/svg" xmlns:xlink="http://www.w3.org/1999/xlink" contentStyleType="text/css" height="700px" preserveAspectRatio="none" style="width:2075px;height:700px;background:#FFFFFF;" version="1.1" viewBox="0 0 2075 700" width="2075px" zoomAndPan="magnify"><defs/><g><rect fill="#FFFFFF" height="482.3652" style="stroke:#181818;stroke-width:1.0;" width="10" x="227.063" y="116.9121"/><rect fill="#FFFFFF" height="419.7832" style="stroke:#181818;stroke-width:1.0;" width="10" x="400.2319" y="148.2031"/><rect fill="#FFFFFF" height="357.2012" style="stroke:#181818;stroke-width:1.0;" width="10" x="727.2998" y="179.4941"/><rect fill="#FFFFFF" height="37.291" style="stroke:#181818;stroke-width:1.0;" width="10" x="1277.4111" y="398.5313"/><rect fill="#FFFFFF" height="93.873" style="stroke:#181818;stroke-width:1.0;" width="10" x="1475.3379" y="210.7852"/><rect fill="#FFFFFF" height="62.582" style="stroke:#181818;stroke-width:1.0;" width="10" x="1475.3379" y="474.1133"/><rect fill="#FFFFFF" height="31.291" style="stroke:#181818;stroke-width:1.0;" width="10" x="1695.4404" y="242.0762"/><rect fill="#FFFFFF" height="31.291" style="stroke:#181818;stroke-width:1.0;" width="10" x="1695.4404" y="505.4043"/><rect fill="#FFFFFF" height="31.291" style="stroke:#181818;stroke-width:1.0;" width="10" x="2013.4702" y="335.9492"/><line style="stroke:#181818;stroke-width:0.5;stroke-dasharray:5.0,5.0;" x1="27" x2="27" y1="83.6211" y2="617.2773"/><line style="stroke:#181818;stroke-width:0.5;stroke-dasharray:5.0,5.0;" x1="231.5908" x2="231.5908" y1="83.6211" y2="617.2773"/><line style="stroke:#181818;stroke-width:0.5;stroke-dasharray:5.0,5.0;" x1="405.0942" x2="405.0942" y1="83.6211" y2="617.2773"/><line style="stroke:#181818;stroke-width:0.5;stroke-dasharray:5.0,5.0;" x1="731.3418" x2="731.3418" y1="83.6211" y2="617.2773"/><line style="stroke:#181818;stroke-width:0.5;stroke-dasharray:5.0,5.0;" x1="922.2578" x2="922.2578" y1="83.6211" y2="617.2773"/><line style="stroke:#181818;stroke-width:0.5;stroke-dasharray:5.0,5.0;" x1="1038.4229" x2="1038.4229" y1="83.6211" y2="617.2773"/><line style="stroke:#181818;stroke-width:0.5;stroke-dasharray:5.0,5.0;" x1="1156.7119" x2="1156.7119" y1="83.6211" y2="617.2773"/><line style="stroke:#181818;stroke-width:0.5;stroke-dasharray:5.0,5.0;" x1="1281.7666" x2="1281.7666" y1="83.6211" y2="617.2773"/><line style="stroke:#181818;stroke-width:0.5;stroke-dasharray:5.0,5.0;" x1="1480.0557" x2="1480.0557" y1="83.6211" y2="617.2773"/><line style="stroke:#181818;stroke-width:0.5;stroke-dasharray:5.0,5.0;" x1="1699.6201" x2="1699.6201" y1="83.6211" y2="617.2773"/><line style="stroke:#181818;stroke-width:0.5;stroke-dasharray:5.0,5.0;" x1="1876.2607" x2="1876.2607" y1="83.6211" y2="617.2773"/><line style="stroke:#181818;stroke-width:0.5;stroke-dasharray:5.0,5.0;" x1="2017.8877" x2="2017.8877" y1="83.6211" y2="617.2773"/><text fill="#000000" font-family="sans-serif" font-size="14" lengthAdjust="spacing" textLength="39.6826" x="5" y="80.1074">Admin</text><ellipse cx="27.8413" cy="13.5" fill="#E2E2F0" rx="8" ry="8" style="stroke:#181818;stroke-width:0.5;"/><path d="M27.8413,21.5 L27.8413,48.5 M14.8413,29.5 L40.8413,29.5 M27.8413,48.5 L14.8413,63.5 M27.8413,48.5 L40.8413,63.5 " fill="none" style="stroke:#181818;stroke-width:0.5;"/><text fill="#000000" font-family="sans-serif" font-size="14" lengthAdjust="spacing" textLength="39.6826" x="5" y="631.3848">Admin</text><ellipse cx="27.8413" cy="643.3984" fill="#E2E2F0" rx="8" ry="8" style="stroke:#181818;stroke-width:0.5;"/><path d="M27.8413,651.3984 L27.8413,678.3984 M14.8413,659.3984 L40.8413,659.3984 M27.8413,678.3984 L14.8413,693.3984 M27.8413,678.3984 L40.8413,693.3984 " fill="none" style="stroke:#181818;stroke-width:0.5;"/><rect fill="#E2E2F0" height="32.6211" rx="2.5" ry="2.5" style="stroke:#181818;stroke-width:0.5;" width="94.9443" x="184.5908" y="50"/><text fill="#000000" font-family="sans-serif" font-size="14" lengthAdjust="spacing" textLength="80.9443" x="191.5908" y="72.1074">PatientRoute</text><rect fill="#E2E2F0" height="32.6211" rx="2.5" ry="2.5" style="stroke:#181818;stroke-width:0.5;" width="94.9443" x="184.5908" y="616.2773"/><text fill="#000000" font-family="sans-serif" font-size="14" lengthAdjust="spacing" textLength="80.9443" x="191.5908" y="638.3848">PatientRoute</text><rect fill="#E2E2F0" height="32.6211" rx="2.5" ry="2.5" style="stroke:#181818;stroke-width:0.5;" width="118.2754" x="346.0942" y="50"/><text fill="#000000" font-family="sans-serif" font-size="14" lengthAdjust="spacing" textLength="104.2754" x="353.0942" y="72.1074">PatientController</text><rect fill="#E2E2F0" height="32.6211" rx="2.5" ry="2.5" style="stroke:#181818;stroke-width:0.5;" width="118.2754" x="346.0942" y="616.2773"/><text fill="#000000" font-family="sans-serif" font-size="14" lengthAdjust="spacing" textLength="104.2754" x="353.0942" y="638.3848">PatientController</text><rect fill="#E2E2F0" height="32.6211" rx="2.5" ry="2.5" style="stroke:#181818;stroke-width:0.5;" width="259.916" x="602.3418" y="50"/><text fill="#000000" font-family="sans-serif" font-size="14" lengthAdjust="spacing" textLength="245.916" x="609.3418" y="72.1074">PatientAppService : IPatientAppService</text><rect fill="#E2E2F0" height="32.6211" rx="2.5" ry="2.5" style="stroke:#181818;stroke-width:0.5;" width="259.916" x="602.3418" y="616.2773"/><text fill="#000000" font-family="sans-serif" font-size="14" lengthAdjust="spacing" textLength="245.916" x="609.3418" y="638.3848">PatientAppService : IPatientAppService</text><rect fill="#E2E2F0" height="32.6211" rx="2.5" ry="2.5" style="stroke:#181818;stroke-width:0.5;" width="101.165" x="872.2578" y="50"/><text fill="#000000" font-family="sans-serif" font-size="14" lengthAdjust="spacing" textLength="87.165" x="879.2578" y="72.1074">PatientBuilder</text><rect fill="#E2E2F0" height="32.6211" rx="2.5" ry="2.5" style="stroke:#181818;stroke-width:0.5;" width="101.165" x="872.2578" y="616.2773"/><text fill="#000000" font-family="sans-serif" font-size="14" lengthAdjust="spacing" textLength="87.165" x="879.2578" y="638.3848">PatientBuilder</text><rect fill="#E2E2F0" height="32.6211" rx="2.5" ry="2.5" style="stroke:#181818;stroke-width:0.5;" width="111.2891" x="983.4229" y="50"/><text fill="#000000" font-family="sans-serif" font-size="14" lengthAdjust="spacing" textLength="97.2891" x="990.4229" y="72.1074">patient : Patient</text><rect fill="#E2E2F0" height="32.6211" rx="2.5" ry="2.5" style="stroke:#181818;stroke-width:0.5;" width="111.2891" x="983.4229" y="616.2773"/><text fill="#000000" font-family="sans-serif" font-size="14" lengthAdjust="spacing" textLength="97.2891" x="990.4229" y="638.3848">patient : Patient</text><rect fill="#E2E2F0" height="32.6211" rx="2.5" ry="2.5" style="stroke:#181818;stroke-width:0.5;" width="105.0547" x="1104.7119" y="50"/><text fill="#000000" font-family="sans-serif" font-size="14" lengthAdjust="spacing" textLength="91.0547" x="1111.7119" y="72.1074">PatientMapper</text><rect fill="#E2E2F0" height="32.6211" rx="2.5" ry="2.5" style="stroke:#181818;stroke-width:0.5;" width="105.0547" x="1104.7119" y="616.2773"/><text fill="#000000" font-family="sans-serif" font-size="14" lengthAdjust="spacing" textLength="91.0547" x="1111.7119" y="638.3848">PatientMapper</text><rect fill="#E2E2F0" height="32.6211" rx="2.5" ry="2.5" style="stroke:#181818;stroke-width:0.5;" width="125.2891" x="1219.7666" y="50"/><text fill="#000000" font-family="sans-serif" font-size="14" lengthAdjust="spacing" textLength="111.2891" x="1226.7666" y="72.1074">PatientDataModel</text><rect fill="#E2E2F0" height="32.6211" rx="2.5" ry="2.5" style="stroke:#181818;stroke-width:0.5;" width="125.2891" x="1219.7666" y="616.2773"/><text fill="#000000" font-family="sans-serif" font-size="14" lengthAdjust="spacing" textLength="111.2891" x="1226.7666" y="638.3848">PatientDataModel</text><rect fill="#E2E2F0" height="32.6211" rx="2.5" ry="2.5" style="stroke:#181818;stroke-width:0.5;" width="250.5645" x="1355.0557" y="50"/><text fill="#000000" font-family="sans-serif" font-size="14" lengthAdjust="spacing" textLength="236.5645" x="1362.0557" y="72.1074">PatientRepository : IPatientRepository</text><rect fill="#E2E2F0" height="32.6211" rx="2.5" ry="2.5" style="stroke:#181818;stroke-width:0.5;" width="250.5645" x="1355.0557" y="616.2773"/><text fill="#000000" font-family="sans-serif" font-size="14" lengthAdjust="spacing" textLength="236.5645" x="1362.0557" y="638.3848">PatientRepository : IPatientRepository</text><rect fill="#E2E2F0" height="32.6211" rx="2.5" ry="2.5" style="stroke:#181818;stroke-width:0.5;" width="169.6406" x="1615.6201" y="50"/><text fill="#000000" font-family="sans-serif" font-size="14" lengthAdjust="spacing" textLength="155.6406" x="1622.6201" y="72.1074">BackofficeAppDbContext</text><rect fill="#E2E2F0" height="32.6211" rx="2.5" ry="2.5" style="stroke:#181818;stroke-width:0.5;" width="169.6406" x="1615.6201" y="616.2773"/><text fill="#000000" font-family="sans-serif" font-size="14" lengthAdjust="spacing" textLength="155.6406" x="1622.6201" y="638.3848">BackofficeAppDbContext</text><rect fill="#E2E2F0" height="32.6211" rx="2.5" ry="2.5" style="stroke:#181818;stroke-width:0.5;" width="162.627" x="1795.2607" y="50"/><text fill="#000000" font-family="sans-serif" font-size="14" lengthAdjust="spacing" textLength="148.627" x="1802.2607" y="72.1074">patientDto : PatientDTO</text><rect fill="#E2E2F0" height="32.6211" rx="2.5" ry="2.5" style="stroke:#181818;stroke-width:0.5;" width="162.627" x="1795.2607" y="616.2773"/><text fill="#000000" font-family="sans-serif" font-size="14" lengthAdjust="spacing" textLength="148.627" x="1802.2607" y="638.3848">patientDto : PatientDTO</text><rect fill="#E2E2F0" height="32.6211" rx="2.5" ry="2.5" style="stroke:#181818;stroke-width:0.5;" width="101.165" x="1967.8877" y="50"/><text fill="#000000" font-family="sans-serif" font-size="14" lengthAdjust="spacing" textLength="87.165" x="1974.8877" y="72.1074">IConfiguration</text><rect fill="#E2E2F0" height="32.6211" rx="2.5" ry="2.5" style="stroke:#181818;stroke-width:0.5;" width="101.165" x="1967.8877" y="616.2773"/><text fill="#000000" font-family="sans-serif" font-size="14" lengthAdjust="spacing" textLength="87.165" x="1974.8877" y="638.3848">IConfiguration</text><rect fill="#FFFFFF" height="482.3652" style="stroke:#181818;stroke-width:1.0;" width="10" x="227.063" y="116.9121"/><rect fill="#FFFFFF" height="419.7832" style="stroke:#181818;stroke-width:1.0;" width="10" x="400.2319" y="148.2031"/><rect fill="#FFFFFF" height="357.2012" style="stroke:#181818;stroke-width:1.0;" width="10" x="727.2998" y="179.4941"/><rect fill="#FFFFFF" height="37.291" style="stroke:#181818;stroke-width:1.0;" width="10" x="1277.4111" y="398.5313"/><rect fill="#FFFFFF" height="93.873" style="stroke:#181818;stroke-width:1.0;" width="10" x="1475.3379" y="210.7852"/><rect fill="#FFFFFF" height="62.582" style="stroke:#181818;stroke-width:1.0;" width="10" x="1475.3379" y="474.1133"/><rect fill="#FFFFFF" height="31.291" style="stroke:#181818;stroke-width:1.0;" width="10" x="1695.4404" y="242.0762"/><rect fill="#FFFFFF" height="31.291" style="stroke:#181818;stroke-width:1.0;" width="10" x="1695.4404" y="505.4043"/><rect fill="#FFFFFF" height="31.291" style="stroke:#181818;stroke-width:1.0;" width="10" x="2013.4702" y="335.9492"/><polygon fill="#181818" points="215.063,112.9121,225.063,116.9121,215.063,120.9121,219.063,116.9121" style="stroke:#181818;stroke-width:1.0;"/><line style="stroke:#181818;stroke-width:1.0;" x1="27.8413" x2="221.063" y1="116.9121" y2="116.9121"/><text fill="#000000" font-family="sans-serif" font-size="13" font-weight="bold" lengthAdjust="spacing" textLength="7.23" x="34.8413" y="111.6494">1</text><text fill="#000000" font-family="sans-serif" font-size="13" lengthAdjust="spacing" textLength="146.6943" x="46.0713" y="111.6494">PUT delete patient profile</text><polygon fill="#181818" points="388.2319,144.2031,398.2319,148.2031,388.2319,152.2031,392.2319,148.2031" style="stroke:#181818;stroke-width:1.0;"/><line style="stroke:#181818;stroke-width:1.0;" x1="237.063" x2="394.2319" y1="148.2031" y2="148.2031"/><text fill="#000000" font-family="sans-serif" font-size="13" font-weight="bold" lengthAdjust="spacing" textLength="7.23" x="244.063" y="142.9404">2</text><text fill="#000000" font-family="sans-serif" font-size="13" lengthAdjust="spacing" textLength="132.939" x="255.293" y="142.9404">medicalRecordNumber</text><polygon fill="#181818" points="715.2998,175.4941,725.2998,179.4941,715.2998,183.4941,719.2998,179.4941" style="stroke:#181818;stroke-width:1.0;"/><line style="stroke:#181818;stroke-width:1.0;" x1="410.2319" x2="721.2998" y1="179.4941" y2="179.4941"/><text fill="#000000" font-family="sans-serif" font-size="13" font-weight="bold" lengthAdjust="spacing" textLength="7.23" x="417.2319" y="174.2314">3</text><text fill="#000000" font-family="sans-serif" font-size="13" lengthAdjust="spacing" textLength="286.8379" x="428.4619" y="174.2314">MarkPatientToBeDeleted(medicalRecordNumber)</text><polygon fill="#181818" points="1463.3379,206.7852,1473.3379,210.7852,1463.3379,214.7852,1467.3379,210.7852" style="stroke:#181818;stroke-width:1.0;"/><line style="stroke:#181818;stroke-width:1.0;" x1="737.2998" x2="1469.3379" y1="210.7852" y2="210.7852"/><text fill="#000000" font-family="sans-serif" font-size="13" font-weight="bold" lengthAdjust="spacing" textLength="7.23" x="744.2998" y="205.5225">4</text><text fill="#000000" font-family="sans-serif" font-size="13" lengthAdjust="spacing" textLength="351.1333" x="755.5298" y="205.5225">GetPatientByMedicalRecordNumber(medicalRecordNumber)</text><polygon fill="#181818" points="1683.4404,238.0762,1693.4404,242.0762,1683.4404,246.0762,1687.4404,242.0762" style="stroke:#181818;stroke-width:1.0;"/><line style="stroke:#181818;stroke-width:1.0;" x1="1485.3379" x2="1689.4404" y1="242.0762" y2="242.0762"/><text fill="#000000" font-family="sans-serif" font-size="13" font-weight="bold" lengthAdjust="spacing" textLength="7.23" x="1492.3379" y="236.8135">5</text><text fill="#000000" font-family="sans-serif" font-size="13" lengthAdjust="spacing" textLength="135.7954" x="1503.5679" y="236.8135">FirstOrDefaultAsync(...)</text><polygon fill="#181818" points="1496.3379,269.3672,1486.3379,273.3672,1496.3379,277.3672,1492.3379,273.3672" style="stroke:#181818;stroke-width:1.0;"/><line style="stroke:#181818;stroke-width:1.0;stroke-dasharray:2.0,2.0;" x1="1490.3379" x2="1699.4404" y1="273.3672" y2="273.3672"/><text fill="#000000" font-family="sans-serif" font-size="13" font-weight="bold" lengthAdjust="spacing" textLength="7.23" x="1502.3379" y="268.1045">6</text><text fill="#000000" font-family="sans-serif" font-size="13" lengthAdjust="spacing" textLength="101.8989" x="1513.5679" y="268.1045">patientDataModel</text><polygon fill="#181818" points="748.2998,300.6582,738.2998,304.6582,748.2998,308.6582,744.2998,304.6582" style="stroke:#181818;stroke-width:1.0;"/><line style="stroke:#181818;stroke-width:1.0;stroke-dasharray:2.0,2.0;" x1="742.2998" x2="1479.3379" y1="304.6582" y2="304.6582"/><text fill="#000000" font-family="sans-serif" font-size="13" font-weight="bold" lengthAdjust="spacing" textLength="7.23" x="754.2998" y="299.3955">7</text><text fill="#000000" font-family="sans-serif" font-size="13" lengthAdjust="spacing" textLength="101.8989" x="765.5298" y="299.3955">patientDataModel</text><polygon fill="#181818" points="2001.4702,331.9492,2011.4702,335.9492,2001.4702,339.9492,2005.4702,335.9492" style="stroke:#181818;stroke-width:1.0;"/><line style="stroke:#181818;stroke-width:1.0;" x1="737.2998" x2="2007.4702" y1="335.9492" y2="335.9492"/><text fill="#000000" font-family="sans-serif" font-size="13" font-weight="bold" lengthAdjust="spacing" textLength="7.23" x="744.2998" y="330.6865">8</text><text fill="#000000" font-family="sans-serif" font-size="13" lengthAdjust="spacing" textLength="154.4639" x="755.5298" y="330.6865">["GPRD:RetainInfoPeriod"]</text><polygon fill="#181818" points="748.2998,363.2402,738.2998,367.2402,748.2998,371.2402,744.2998,367.2402" style="stroke:#181818;stroke-width:1.0;"/><line style="stroke:#181818;stroke-width:1.0;stroke-dasharray:2.0,2.0;" x1="742.2998" x2="2017.4702" y1="367.2402" y2="367.2402"/><text fill="#000000" font-family="sans-serif" font-size="13" font-weight="bold" lengthAdjust="spacing" textLength="7.23" x="754.2998" y="361.9775">9</text><text fill="#000000" font-family="sans-serif" font-size="13" lengthAdjust="spacing" textLength="91.7808" x="765.5298" y="361.9775">retainInfoPeriod</text><polygon fill="#181818" points="1265.4111,394.5313,1275.4111,398.5313,1265.4111,402.5313,1269.4111,398.5313" style="stroke:#181818;stroke-width:1.0;"/><line style="stroke:#181818;stroke-width:1.0;" x1="737.2998" x2="1271.4111" y1="398.5313" y2="398.5313"/><text fill="#000000" font-family="sans-serif" font-size="13" font-weight="bold" lengthAdjust="spacing" textLength="14.46" x="744.2998" y="393.2686">10</text><text fill="#000000" font-family="sans-serif" font-size="13" lengthAdjust="spacing" textLength="302.0342" x="762.7598" y="393.2686">patientDataModel.MarkForDeletion(retainInfoPeriod)</text><line style="stroke:#181818;stroke-width:1.0;" x1="1287.4111" x2="1329.4111" y1="434.8223" y2="434.8223"/><line style="stroke:#181818;stroke-width:1.0;" x1="1329.4111" x2="1329.4111" y1="434.8223" y2="447.8223"/><line style="stroke:#181818;stroke-width:1.0;" x1="1282.4111" x2="1329.4111" y1="447.8223" y2="447.8223"/><polygon fill="#181818" points="1292.4111,443.8223,1282.4111,447.8223,1292.4111,451.8223,1288.4111,447.8223" style="stroke:#181818;stroke-width:1.0;"/><text fill="#000000" font-family="sans-serif" font-size="13" font-weight="bold" lengthAdjust="spacing" textLength="14.46" x="1294.4111" y="429.5596">11</text><text fill="#000000" font-family="sans-serif" font-size="13" lengthAdjust="spacing" textLength="104.7427" x="1312.8711" y="429.5596">MarkForDeletion()</text><polygon fill="#181818" points="1463.3379,470.1133,1473.3379,474.1133,1463.3379,478.1133,1467.3379,474.1133" style="stroke:#181818;stroke-width:1.0;"/><line style="stroke:#181818;stroke-width:1.0;" x1="737.2998" x2="1469.3379" y1="474.1133" y2="474.1133"/><text fill="#000000" font-family="sans-serif" font-size="13" font-weight="bold" lengthAdjust="spacing" textLength="14.46" x="744.2998" y="468.8506">12</text><text fill="#000000" font-family="sans-serif" font-size="13" lengthAdjust="spacing" textLength="192.9497" x="762.7598" y="468.8506">UpdatePatient(patientDataModel)</text><polygon fill="#181818" points="1683.4404,501.4043,1693.4404,505.4043,1683.4404,509.4043,1687.4404,505.4043" style="stroke:#181818;stroke-width:1.0;"/><line style="stroke:#181818;stroke-width:1.0;" x1="1485.3379" x2="1689.4404" y1="505.4043" y2="505.4043"/><text fill="#000000" font-family="sans-serif" font-size="13" font-weight="bold" lengthAdjust="spacing" textLength="14.46" x="1492.3379" y="500.1416">13</text><text fill="#000000" font-family="sans-serif" font-size="13" lengthAdjust="spacing" textLength="93.2217" x="1510.7979" y="500.1416">Update(patient);</text><polygon fill="#181818" points="1688.4404,532.6953,1698.4404,536.6953,1688.4404,540.6953,1692.4404,536.6953" style="stroke:#181818;stroke-width:1.0;"/><line style="stroke:#181818;stroke-width:1.0;" x1="1480.3379" x2="1694.4404" y1="536.6953" y2="536.6953"/><text fill="#000000" font-family="sans-serif" font-size="13" font-weight="bold" lengthAdjust="spacing" textLength="14.46" x="1487.3379" y="531.4326">14</text><text fill="#000000" font-family="sans-serif" font-size="13" lengthAdjust="spacing" textLength="129.3398" x="1505.7979" y="531.4326">SaveChangesAsync();</text><polygon fill="#181818" points="248.063,563.9863,238.063,567.9863,248.063,571.9863,244.063,567.9863" style="stroke:#181818;stroke-width:1.0;"/><line style="stroke:#181818;stroke-width:1.0;stroke-dasharray:2.0,2.0;" x1="242.063" x2="404.2319" y1="567.9863" y2="567.9863"/><text fill="#000000" font-family="sans-serif" font-size="13" font-weight="bold" lengthAdjust="spacing" textLength="14.46" x="254.063" y="562.7236">15</text><text fill="#000000" font-family="sans-serif" font-size="13" lengthAdjust="spacing" textLength="96.8462" x="272.5229" y="562.7236">Status Code 200</text><polygon fill="#181818" points="38.8413,595.2773,28.8413,599.2773,38.8413,603.2773,34.8413,599.2773" style="stroke:#181818;stroke-width:1.0;"/><line style="stroke:#181818;stroke-width:1.0;stroke-dasharray:2.0,2.0;" x1="32.8413" x2="231.063" y1="599.2773" y2="599.2773"/><text fill="#000000" font-family="sans-serif" font-size="13" font-weight="bold" lengthAdjust="spacing" textLength="14.46" x="44.8413" y="594.0146">16</text><text fill="#000000" font-family="sans-serif" font-size="13" lengthAdjust="spacing" textLength="156.7617" x="63.3013" y="594.0146">Confirms DELETE success</text><!--SRC=[XLJBZjem5DtxAomsXGKmwf9AbO0m8wJIGS2igYwCSyDOayIkxQ3ozxsEyt0URNVNoJtdFiwnFxrRgyngkLGfossHfGikiwM1NmNa7EQnO3VDCa9OOMLUP5VG67ChDPsiuqpa4yeCPIuYH35j1HSAYUYHMG6vFSd2WalHBXZBsChSQfcce5qQRqwTt4cLl5Rg3FekED0LtGy-biqeumzZnJQ5I6DVwUh3RXdbqv2y0dX67uyH7fXIdYyhex6SY5bsa36aBYt6G-OEe_ETG4aZSBkFOBxsOzcDq7Zke3UCVyWamPbn5T7LRHH-stgT68uE6LdPpXbTNiDHOzkji4VEHDmAZRzbNZ7ZXqIaGD0GJdyw_-fLHbPwVBjG71BmLEzKQUdJqJxYpl2FzuJ78BZL7XaoY0LdwGcurF5tRxm66BWa0255hJqI79Z-g8Qxo0r4PJFnT8Ht5hJK4A2Rwn1vovqZwGlOsacFmv3fV-nUEkBPgecTKYlwBBInhpg2X1MfNPj7pgUBnMBMdTb9MMFcGLkgPpGImm1N5UqkwL_0gjbm3QteYFqnUJcUejK9B1FvFa_a4RIGyUGdwJHTkoJ0zfhGFOPUzutDmawQQpGonC99_onrAJdQTTel44hItiUMiiVVfvk53RRuKSEyAKo0oZFJVgT3RunOmrFKsDaNyZTfGz2PtM7xpl8R66ycn8sOOYXtyALvI3kNBBZbPyjiOUWMHw6Vdvv8lq9rHUiRZaZ_KAne-PpepD1ezsrtsL5JS0x6T1Zywq3-0000]--></g></svg>