<svg xmlns="http://www.w3.org/2000/svg" xmlns:xlink="http://www.w3.org/1999/xlink" contentStyleType="text/css" height="922px" preserveAspectRatio="none" style="width:2310px;height:922px;background:#FFFFFF;" version="1.1" viewBox="0 0 2310 922" width="2310px" zoomAndPan="magnify"><defs/><g><rect fill="#FFFFFF" height="704.6934" style="stroke:#181818;stroke-width:1.0;" width="10" x="256.7573" y="116.9121"/><rect fill="#FFFFFF" height="607.5293" style="stroke:#181818;stroke-width:1.0;" width="10" x="494.2388" y="165.4941"/><rect fill="#FFFFFF" height="544.9473" style="stroke:#181818;stroke-width:1.0;" width="10" x="885.6021" y="196.7852"/><rect fill="#FFFFFF" height="31.291" style="stroke:#181818;stroke-width:1.0;" width="10" x="1331.7896" y="384.5313"/><rect fill="#FFFFFF" height="93.873" style="stroke:#181818;stroke-width:1.0;" width="10" x="1449.9614" y="353.2402"/><rect fill="#FFFFFF" height="93.873" style="stroke:#181818;stroke-width:1.0;" width="10" x="1449.9614" y="616.5684"/><rect fill="#FFFFFF" height="93.873" style="stroke:#181818;stroke-width:1.0;" width="10" x="1773.0601" y="228.0762"/><rect fill="#FFFFFF" height="62.582" style="stroke:#181818;stroke-width:1.0;" width="10" x="1773.0601" y="522.6953"/><rect fill="#FFFFFF" height="31.291" style="stroke:#181818;stroke-width:1.0;" width="10" x="2041.5752" y="259.3672"/><rect fill="#FFFFFF" height="31.291" style="stroke:#181818;stroke-width:1.0;" width="10" x="2041.5752" y="553.9863"/><rect fill="#FFFFFF" height="31.291" style="stroke:#181818;stroke-width:1.0;" width="10" x="2217.709" y="647.8594"/><line style="stroke:#181818;stroke-width:0.5;stroke-dasharray:5.0,5.0;" x1="27" x2="27" y1="83.6211" y2="839.6055"/><line style="stroke:#181818;stroke-width:0.5;stroke-dasharray:5.0,5.0;" x1="261.2852" x2="261.2852" y1="83.6211" y2="839.6055"/><line style="stroke:#181818;stroke-width:0.5;stroke-dasharray:5.0,5.0;" x1="499.1011" x2="499.1011" y1="83.6211" y2="839.6055"/><line style="stroke:#181818;stroke-width:0.5;stroke-dasharray:5.0,5.0;" x1="889.644" x2="889.644" y1="83.6211" y2="839.6055"/><line style="stroke:#181818;stroke-width:0.5;stroke-dasharray:5.0,5.0;" x1="1219.98" x2="1219.98" y1="83.6211" y2="839.6055"/><line style="stroke:#181818;stroke-width:0.5;stroke-dasharray:5.0,5.0;" x1="1336.145" x2="1336.145" y1="83.6211" y2="839.6055"/><line style="stroke:#181818;stroke-width:0.5;stroke-dasharray:5.0,5.0;" x1="1454.4341" x2="1454.4341" y1="83.6211" y2="839.6055"/><line style="stroke:#181818;stroke-width:0.5;stroke-dasharray:5.0,5.0;" x1="1579.4888" x2="1579.4888" y1="83.6211" y2="839.6055"/><line style="stroke:#181818;stroke-width:0.5;stroke-dasharray:5.0,5.0;" x1="1777.7778" x2="1777.7778" y1="83.6211" y2="839.6055"/><line style="stroke:#181818;stroke-width:0.5;stroke-dasharray:5.0,5.0;" x1="2045.7549" x2="2045.7549" y1="83.6211" y2="839.6055"/><line style="stroke:#181818;stroke-width:0.5;stroke-dasharray:5.0,5.0;" x1="2222.3955" x2="2222.3955" y1="83.6211" y2="839.6055"/><text fill="#000000" font-family="sans-serif" font-size="14" lengthAdjust="spacing" textLength="39.6826" x="5" y="80.1074">Admin</text><ellipse cx="27.8413" cy="13.5" fill="#E2E2F0" rx="8" ry="8" style="stroke:#181818;stroke-width:0.5;"/><path d="M27.8413,21.5 L27.8413,48.5 M14.8413,29.5 L40.8413,29.5 M27.8413,48.5 L14.8413,63.5 M27.8413,48.5 L40.8413,63.5 " fill="none" style="stroke:#181818;stroke-width:0.5;"/><text fill="#000000" font-family="sans-serif" font-size="14" lengthAdjust="spacing" textLength="39.6826" x="5" y="853.7129">Admin</text><ellipse cx="27.8413" cy="865.7266" fill="#E2E2F0" rx="8" ry="8" style="stroke:#181818;stroke-width:0.5;"/><path d="M27.8413,873.7266 L27.8413,900.7266 M14.8413,881.7266 L40.8413,881.7266 M27.8413,900.7266 L14.8413,915.7266 M27.8413,900.7266 L40.8413,915.7266 " fill="none" style="stroke:#181818;stroke-width:0.5;"/><rect fill="#E2E2F0" height="32.6211" rx="2.5" ry="2.5" style="stroke:#181818;stroke-width:0.5;" width="94.9443" x="214.2852" y="50"/><text fill="#000000" font-family="sans-serif" font-size="14" lengthAdjust="spacing" textLength="80.9443" x="221.2852" y="72.1074">PatientRoute</text><rect fill="#E2E2F0" height="32.6211" rx="2.5" ry="2.5" style="stroke:#181818;stroke-width:0.5;" width="94.9443" x="214.2852" y="838.6055"/><text fill="#000000" font-family="sans-serif" font-size="14" lengthAdjust="spacing" textLength="80.9443" x="221.2852" y="860.7129">PatientRoute</text><rect fill="#E2E2F0" height="32.6211" rx="2.5" ry="2.5" style="stroke:#181818;stroke-width:0.5;" width="118.2754" x="440.1011" y="50"/><text fill="#000000" font-family="sans-serif" font-size="14" lengthAdjust="spacing" textLength="104.2754" x="447.1011" y="72.1074">PatientController</text><rect fill="#E2E2F0" height="32.6211" rx="2.5" ry="2.5" style="stroke:#181818;stroke-width:0.5;" width="118.2754" x="440.1011" y="838.6055"/><text fill="#000000" font-family="sans-serif" font-size="14" lengthAdjust="spacing" textLength="104.2754" x="447.1011" y="860.7129">PatientController</text><rect fill="#E2E2F0" height="32.6211" rx="2.5" ry="2.5" style="stroke:#181818;stroke-width:0.5;" width="259.916" x="760.644" y="50"/><text fill="#000000" font-family="sans-serif" font-size="14" lengthAdjust="spacing" textLength="245.916" x="767.644" y="72.1074">PatientAppService : IPatientAppService</text><rect fill="#E2E2F0" height="32.6211" rx="2.5" ry="2.5" style="stroke:#181818;stroke-width:0.5;" width="259.916" x="760.644" y="838.6055"/><text fill="#000000" font-family="sans-serif" font-size="14" lengthAdjust="spacing" textLength="245.916" x="767.644" y="860.7129">PatientAppService : IPatientAppService</text><rect fill="#E2E2F0" height="32.6211" rx="2.5" ry="2.5" style="stroke:#181818;stroke-width:0.5;" width="101.165" x="1169.98" y="50"/><text fill="#000000" font-family="sans-serif" font-size="14" lengthAdjust="spacing" textLength="87.165" x="1176.98" y="72.1074">PatientBuilder</text><rect fill="#E2E2F0" height="32.6211" rx="2.5" ry="2.5" style="stroke:#181818;stroke-width:0.5;" width="101.165" x="1169.98" y="838.6055"/><text fill="#000000" font-family="sans-serif" font-size="14" lengthAdjust="spacing" textLength="87.165" x="1176.98" y="860.7129">PatientBuilder</text><rect fill="#E2E2F0" height="32.6211" rx="2.5" ry="2.5" style="stroke:#181818;stroke-width:0.5;" width="111.2891" x="1281.145" y="50"/><text fill="#000000" font-family="sans-serif" font-size="14" lengthAdjust="spacing" textLength="97.2891" x="1288.145" y="72.1074">patient : Patient</text><rect fill="#E2E2F0" height="32.6211" rx="2.5" ry="2.5" style="stroke:#181818;stroke-width:0.5;" width="111.2891" x="1281.145" y="838.6055"/><text fill="#000000" font-family="sans-serif" font-size="14" lengthAdjust="spacing" textLength="97.2891" x="1288.145" y="860.7129">patient : Patient</text><rect fill="#E2E2F0" height="32.6211" rx="2.5" ry="2.5" style="stroke:#181818;stroke-width:0.5;" width="105.0547" x="1402.4341" y="50"/><text fill="#000000" font-family="sans-serif" font-size="14" lengthAdjust="spacing" textLength="91.0547" x="1409.4341" y="72.1074">PatientMapper</text><rect fill="#E2E2F0" height="32.6211" rx="2.5" ry="2.5" style="stroke:#181818;stroke-width:0.5;" width="105.0547" x="1402.4341" y="838.6055"/><text fill="#000000" font-family="sans-serif" font-size="14" lengthAdjust="spacing" textLength="91.0547" x="1409.4341" y="860.7129">PatientMapper</text><rect fill="#E2E2F0" height="32.6211" rx="2.5" ry="2.5" style="stroke:#181818;stroke-width:0.5;" width="125.2891" x="1517.4888" y="50"/><text fill="#000000" font-family="sans-serif" font-size="14" lengthAdjust="spacing" textLength="111.2891" x="1524.4888" y="72.1074">PatientDataModel</text><rect fill="#E2E2F0" height="32.6211" rx="2.5" ry="2.5" style="stroke:#181818;stroke-width:0.5;" width="125.2891" x="1517.4888" y="838.6055"/><text fill="#000000" font-family="sans-serif" font-size="14" lengthAdjust="spacing" textLength="111.2891" x="1524.4888" y="860.7129">PatientDataModel</text><rect fill="#E2E2F0" height="32.6211" rx="2.5" ry="2.5" style="stroke:#181818;stroke-width:0.5;" width="250.5645" x="1652.7778" y="50"/><text fill="#000000" font-family="sans-serif" font-size="14" lengthAdjust="spacing" textLength="236.5645" x="1659.7778" y="72.1074">PatientRepository : IPatientRepository</text><rect fill="#E2E2F0" height="32.6211" rx="2.5" ry="2.5" style="stroke:#181818;stroke-width:0.5;" width="250.5645" x="1652.7778" y="838.6055"/><text fill="#000000" font-family="sans-serif" font-size="14" lengthAdjust="spacing" textLength="236.5645" x="1659.7778" y="860.7129">PatientRepository : IPatientRepository</text><rect fill="#E2E2F0" height="32.6211" rx="2.5" ry="2.5" style="stroke:#181818;stroke-width:0.5;" width="169.6406" x="1961.7549" y="50"/><text fill="#000000" font-family="sans-serif" font-size="14" lengthAdjust="spacing" textLength="155.6406" x="1968.7549" y="72.1074">BackofficeAppDbContext</text><rect fill="#E2E2F0" height="32.6211" rx="2.5" ry="2.5" style="stroke:#181818;stroke-width:0.5;" width="169.6406" x="1961.7549" y="838.6055"/><text fill="#000000" font-family="sans-serif" font-size="14" lengthAdjust="spacing" textLength="155.6406" x="1968.7549" y="860.7129">BackofficeAppDbContext</text><rect fill="#E2E2F0" height="32.6211" rx="2.5" ry="2.5" style="stroke:#181818;stroke-width:0.5;" width="162.627" x="2141.3955" y="50"/><text fill="#000000" font-family="sans-serif" font-size="14" lengthAdjust="spacing" textLength="148.627" x="2148.3955" y="72.1074">patientDto : PatientDTO</text><rect fill="#E2E2F0" height="32.6211" rx="2.5" ry="2.5" style="stroke:#181818;stroke-width:0.5;" width="162.627" x="2141.3955" y="838.6055"/><text fill="#000000" font-family="sans-serif" font-size="14" lengthAdjust="spacing" textLength="148.627" x="2148.3955" y="860.7129">patientDto : PatientDTO</text><rect fill="#FFFFFF" height="704.6934" style="stroke:#181818;stroke-width:1.0;" width="10" x="256.7573" y="116.9121"/><rect fill="#FFFFFF" height="607.5293" style="stroke:#181818;stroke-width:1.0;" width="10" x="494.2388" y="165.4941"/><rect fill="#FFFFFF" height="544.9473" style="stroke:#181818;stroke-width:1.0;" width="10" x="885.6021" y="196.7852"/><rect fill="#FFFFFF" height="31.291" style="stroke:#181818;stroke-width:1.0;" width="10" x="1331.7896" y="384.5313"/><rect fill="#FFFFFF" height="93.873" style="stroke:#181818;stroke-width:1.0;" width="10" x="1449.9614" y="353.2402"/><rect fill="#FFFFFF" height="93.873" style="stroke:#181818;stroke-width:1.0;" width="10" x="1449.9614" y="616.5684"/><rect fill="#FFFFFF" height="93.873" style="stroke:#181818;stroke-width:1.0;" width="10" x="1773.0601" y="228.0762"/><rect fill="#FFFFFF" height="62.582" style="stroke:#181818;stroke-width:1.0;" width="10" x="1773.0601" y="522.6953"/><rect fill="#FFFFFF" height="31.291" style="stroke:#181818;stroke-width:1.0;" width="10" x="2041.5752" y="259.3672"/><rect fill="#FFFFFF" height="31.291" style="stroke:#181818;stroke-width:1.0;" width="10" x="2041.5752" y="553.9863"/><rect fill="#FFFFFF" height="31.291" style="stroke:#181818;stroke-width:1.0;" width="10" x="2217.709" y="647.8594"/><polygon fill="#181818" points="244.7573,112.9121,254.7573,116.9121,244.7573,120.9121,248.7573,116.9121" style="stroke:#181818;stroke-width:1.0;"/><line style="stroke:#181818;stroke-width:1.0;" x1="27.8413" x2="250.7573" y1="116.9121" y2="116.9121"/><text fill="#000000" font-family="sans-serif" font-size="13" font-weight="bold" lengthAdjust="spacing" textLength="7.23" x="34.8413" y="111.6494">1</text><text fill="#000000" font-family="sans-serif" font-size="13" lengthAdjust="spacing" textLength="132.2344" x="46.0713" y="111.6494">PUT edit patient profile</text><polygon fill="#181818" points="482.2388,161.4941,492.2388,165.4941,482.2388,169.4941,486.2388,165.4941" style="stroke:#181818;stroke-width:1.0;"/><line style="stroke:#181818;stroke-width:1.0;" x1="266.7573" x2="488.2388" y1="165.4941" y2="165.4941"/><text fill="#000000" font-family="sans-serif" font-size="13" font-weight="bold" lengthAdjust="spacing" textLength="7.23" x="273.7573" y="151.5859">2</text><text fill="#000000" font-family="sans-serif" font-size="13" lengthAdjust="spacing" textLength="146.6626" x="284.9873" y="142.9404">createsPatientDTO(json),</text><text fill="#000000" font-family="sans-serif" font-size="13" lengthAdjust="spacing" textLength="132.939" x="284.9873" y="160.2314">medicalRecordNumber</text><polygon fill="#181818" points="873.6021,192.7852,883.6021,196.7852,873.6021,200.7852,877.6021,196.7852" style="stroke:#181818;stroke-width:1.0;"/><line style="stroke:#181818;stroke-width:1.0;" x1="504.2388" x2="879.6021" y1="196.7852" y2="196.7852"/><text fill="#000000" font-family="sans-serif" font-size="13" font-weight="bold" lengthAdjust="spacing" textLength="7.23" x="511.2388" y="191.5225">3</text><text fill="#000000" font-family="sans-serif" font-size="13" lengthAdjust="spacing" textLength="351.1333" x="522.4688" y="191.5225">GetPatientByMedicalRecordNumber(medicalRecordNumber)</text><polygon fill="#181818" points="1761.0601,224.0762,1771.0601,228.0762,1761.0601,232.0762,1765.0601,228.0762" style="stroke:#181818;stroke-width:1.0;"/><line style="stroke:#181818;stroke-width:1.0;" x1="895.6021" x2="1767.0601" y1="228.0762" y2="228.0762"/><text fill="#000000" font-family="sans-serif" font-size="13" font-weight="bold" lengthAdjust="spacing" textLength="7.23" x="902.6021" y="222.8135">4</text><text fill="#000000" font-family="sans-serif" font-size="13" lengthAdjust="spacing" textLength="351.1333" x="913.832" y="222.8135">GetPatientByMedicalRecordNumber(medicalRecordNumber)</text><polygon fill="#181818" points="2029.5752,255.3672,2039.5752,259.3672,2029.5752,263.3672,2033.5752,259.3672" style="stroke:#181818;stroke-width:1.0;"/><line style="stroke:#181818;stroke-width:1.0;" x1="1783.0601" x2="2035.5752" y1="259.3672" y2="259.3672"/><text fill="#000000" font-family="sans-serif" font-size="13" font-weight="bold" lengthAdjust="spacing" textLength="7.23" x="1790.0601" y="254.1045">5</text><text fill="#000000" font-family="sans-serif" font-size="13" lengthAdjust="spacing" textLength="135.7954" x="1801.29" y="254.1045">FirstOrDefaultAsync(...)</text><polygon fill="#181818" points="1794.0601,286.6582,1784.0601,290.6582,1794.0601,294.6582,1790.0601,290.6582" style="stroke:#181818;stroke-width:1.0;"/><line style="stroke:#181818;stroke-width:1.0;stroke-dasharray:2.0,2.0;" x1="1788.0601" x2="2045.5752" y1="290.6582" y2="290.6582"/><text fill="#000000" font-family="sans-serif" font-size="13" font-weight="bold" lengthAdjust="spacing" textLength="7.23" x="1800.0601" y="285.3955">6</text><text fill="#000000" font-family="sans-serif" font-size="13" lengthAdjust="spacing" textLength="101.8989" x="1811.29" y="285.3955">patientDataModel</text><polygon fill="#181818" points="906.6021,317.9492,896.6021,321.9492,906.6021,325.9492,902.6021,321.9492" style="stroke:#181818;stroke-width:1.0;"/><line style="stroke:#181818;stroke-width:1.0;stroke-dasharray:2.0,2.0;" x1="900.6021" x2="1777.0601" y1="321.9492" y2="321.9492"/><text fill="#000000" font-family="sans-serif" font-size="13" font-weight="bold" lengthAdjust="spacing" textLength="7.23" x="912.6021" y="316.6865">7</text><text fill="#000000" font-family="sans-serif" font-size="13" lengthAdjust="spacing" textLength="101.8989" x="923.832" y="316.6865">patientDataModel</text><polygon fill="#181818" points="1437.9614,349.2402,1447.9614,353.2402,1437.9614,357.2402,1441.9614,353.2402" style="stroke:#181818;stroke-width:1.0;"/><line style="stroke:#181818;stroke-width:1.0;" x1="895.6021" x2="1443.9614" y1="353.2402" y2="353.2402"/><text fill="#000000" font-family="sans-serif" font-size="13" font-weight="bold" lengthAdjust="spacing" textLength="7.23" x="902.6021" y="347.9775">8</text><text fill="#000000" font-family="sans-serif" font-size="13" lengthAdjust="spacing" textLength="178.4644" x="913.832" y="347.9775">ToDomain(receivedPatientDto)</text><polygon fill="#181818" points="1352.7896,380.5313,1342.7896,384.5313,1352.7896,388.5313,1348.7896,384.5313" style="stroke:#181818;stroke-width:1.0;"/><line style="stroke:#181818;stroke-width:1.0;" x1="1346.7896" x2="1448.9614" y1="384.5313" y2="384.5313"/><text fill="#000000" font-family="sans-serif" font-size="13" font-weight="bold" lengthAdjust="spacing" textLength="7.23" x="1358.7896" y="379.2686">9</text><text fill="#000000" font-family="sans-serif" font-size="13" lengthAdjust="spacing" textLength="59.9663" x="1370.0195" y="379.2686">Patient(...)</text><polygon fill="#181818" points="1437.9614,411.8223,1447.9614,415.8223,1437.9614,419.8223,1441.9614,415.8223" style="stroke:#181818;stroke-width:1.0;"/><line style="stroke:#181818;stroke-width:1.0;stroke-dasharray:2.0,2.0;" x1="1336.7896" x2="1443.9614" y1="415.8223" y2="415.8223"/><text fill="#000000" font-family="sans-serif" font-size="13" font-weight="bold" lengthAdjust="spacing" textLength="14.46" x="1343.7896" y="410.5596">10</text><text fill="#000000" font-family="sans-serif" font-size="13" lengthAdjust="spacing" textLength="39.0317" x="1362.2495" y="410.5596">patient</text><polygon fill="#181818" points="906.6021,443.1133,896.6021,447.1133,906.6021,451.1133,902.6021,447.1133" style="stroke:#181818;stroke-width:1.0;"/><line style="stroke:#181818;stroke-width:1.0;stroke-dasharray:2.0,2.0;" x1="900.6021" x2="1453.9614" y1="447.1133" y2="447.1133"/><text fill="#000000" font-family="sans-serif" font-size="13" font-weight="bold" lengthAdjust="spacing" textLength="14.46" x="912.6021" y="441.8506">11</text><text fill="#000000" font-family="sans-serif" font-size="13" lengthAdjust="spacing" textLength="39.0317" x="931.062" y="441.8506">patient</text><line style="stroke:#181818;stroke-width:1.0;" x1="895.6021" x2="937.6021" y1="478.4043" y2="478.4043"/><line style="stroke:#181818;stroke-width:1.0;" x1="937.6021" x2="937.6021" y1="478.4043" y2="491.4043"/><line style="stroke:#181818;stroke-width:1.0;" x1="896.6021" x2="937.6021" y1="491.4043" y2="491.4043"/><polygon fill="#181818" points="906.6021,487.4043,896.6021,491.4043,906.6021,495.4043,902.6021,491.4043" style="stroke:#181818;stroke-width:1.0;"/><text fill="#000000" font-family="sans-serif" font-size="13" font-weight="bold" lengthAdjust="spacing" textLength="14.46" x="902.6021" y="473.1416">12</text><text fill="#000000" font-family="sans-serif" font-size="13" lengthAdjust="spacing" textLength="277.5005" x="921.062" y="473.1416">UpdatePatientHelper(patient, patientDataModel)</text><polygon fill="#181818" points="1761.0601,518.6953,1771.0601,522.6953,1761.0601,526.6953,1765.0601,522.6953" style="stroke:#181818;stroke-width:1.0;"/><line style="stroke:#181818;stroke-width:1.0;" x1="895.6021" x2="1767.0601" y1="522.6953" y2="522.6953"/><text fill="#000000" font-family="sans-serif" font-size="13" font-weight="bold" lengthAdjust="spacing" textLength="14.46" x="902.6021" y="517.4326">13</text><text fill="#000000" font-family="sans-serif" font-size="13" lengthAdjust="spacing" textLength="192.9497" x="921.062" y="517.4326">UpdatePatient(patientDataModel)</text><polygon fill="#181818" points="2029.5752,549.9863,2039.5752,553.9863,2029.5752,557.9863,2033.5752,553.9863" style="stroke:#181818;stroke-width:1.0;"/><line style="stroke:#181818;stroke-width:1.0;" x1="1783.0601" x2="2035.5752" y1="553.9863" y2="553.9863"/><text fill="#000000" font-family="sans-serif" font-size="13" font-weight="bold" lengthAdjust="spacing" textLength="14.46" x="1790.0601" y="548.7236">14</text><text fill="#000000" font-family="sans-serif" font-size="13" lengthAdjust="spacing" textLength="93.2217" x="1808.52" y="548.7236">Update(patient);</text><polygon fill="#181818" points="2034.5752,581.2773,2044.5752,585.2773,2034.5752,589.2773,2038.5752,585.2773" style="stroke:#181818;stroke-width:1.0;"/><line style="stroke:#181818;stroke-width:1.0;" x1="1778.0601" x2="2040.5752" y1="585.2773" y2="585.2773"/><text fill="#000000" font-family="sans-serif" font-size="13" font-weight="bold" lengthAdjust="spacing" textLength="14.46" x="1785.0601" y="580.0146">15</text><text fill="#000000" font-family="sans-serif" font-size="13" lengthAdjust="spacing" textLength="216.0552" x="1803.52" y="580.0146">await _context.SaveChangesAsync();</text><polygon fill="#181818" points="1437.9614,612.5684,1447.9614,616.5684,1437.9614,620.5684,1441.9614,616.5684" style="stroke:#181818;stroke-width:1.0;"/><line style="stroke:#181818;stroke-width:1.0;" x1="895.6021" x2="1443.9614" y1="616.5684" y2="616.5684"/><text fill="#000000" font-family="sans-serif" font-size="13" font-weight="bold" lengthAdjust="spacing" textLength="14.46" x="902.6021" y="611.3057">16</text><text fill="#000000" font-family="sans-serif" font-size="13" lengthAdjust="spacing" textLength="90.3018" x="921.062" y="611.3057">ToDTO(patient)</text><polygon fill="#181818" points="2205.709,643.8594,2215.709,647.8594,2205.709,651.8594,2209.709,647.8594" style="stroke:#181818;stroke-width:1.0;"/><line style="stroke:#181818;stroke-width:1.0;" x1="1459.9614" x2="2211.709" y1="647.8594" y2="647.8594"/><text fill="#000000" font-family="sans-serif" font-size="13" font-weight="bold" lengthAdjust="spacing" textLength="14.46" x="1466.9614" y="642.5967">17</text><text fill="#000000" font-family="sans-serif" font-size="13" lengthAdjust="spacing" textLength="87.4072" x="1485.4214" y="642.5967">PatientDTO(...)</text><polygon fill="#181818" points="1470.9614,675.1504,1460.9614,679.1504,1470.9614,683.1504,1466.9614,679.1504" style="stroke:#181818;stroke-width:1.0;"/><line style="stroke:#181818;stroke-width:1.0;stroke-dasharray:2.0,2.0;" x1="1464.9614" x2="2221.709" y1="679.1504" y2="679.1504"/><text fill="#000000" font-family="sans-serif" font-size="13" font-weight="bold" lengthAdjust="spacing" textLength="14.46" x="1476.9614" y="673.8877">18</text><text fill="#000000" font-family="sans-serif" font-size="13" lengthAdjust="spacing" textLength="59.2617" x="1495.4214" y="673.8877">patientDto</text><polygon fill="#181818" points="906.6021,706.4414,896.6021,710.4414,906.6021,714.4414,902.6021,710.4414" style="stroke:#181818;stroke-width:1.0;"/><line style="stroke:#181818;stroke-width:1.0;stroke-dasharray:2.0,2.0;" x1="900.6021" x2="1453.9614" y1="710.4414" y2="710.4414"/><text fill="#000000" font-family="sans-serif" font-size="13" font-weight="bold" lengthAdjust="spacing" textLength="14.46" x="912.6021" y="705.1787">19</text><text fill="#000000" font-family="sans-serif" font-size="13" lengthAdjust="spacing" textLength="59.2617" x="931.062" y="705.1787">patientDto</text><polygon fill="#181818" points="515.2388,737.7324,505.2388,741.7324,515.2388,745.7324,511.2388,741.7324" style="stroke:#181818;stroke-width:1.0;"/><line style="stroke:#181818;stroke-width:1.0;stroke-dasharray:2.0,2.0;" x1="509.2388" x2="889.6021" y1="741.7324" y2="741.7324"/><text fill="#000000" font-family="sans-serif" font-size="13" font-weight="bold" lengthAdjust="spacing" textLength="14.46" x="521.2388" y="736.4697">20</text><text fill="#000000" font-family="sans-serif" font-size="13" lengthAdjust="spacing" textLength="57.1035" x="539.6987" y="736.4697">patientdto</text><polygon fill="#181818" points="277.7573,769.0234,267.7573,773.0234,277.7573,777.0234,273.7573,773.0234" style="stroke:#181818;stroke-width:1.0;"/><line style="stroke:#181818;stroke-width:1.0;stroke-dasharray:2.0,2.0;" x1="271.7573" x2="498.2388" y1="773.0234" y2="773.0234"/><text fill="#000000" font-family="sans-serif" font-size="13" font-weight="bold" lengthAdjust="spacing" textLength="14.46" x="283.7573" y="767.7607">21</text><text fill="#000000" font-family="sans-serif" font-size="13" lengthAdjust="spacing" textLength="185.0215" x="302.2173" y="767.7607">Status Code 200 and patientDto</text><polygon fill="#181818" points="38.8413,817.6055,28.8413,821.6055,38.8413,825.6055,34.8413,821.6055" style="stroke:#181818;stroke-width:1.0;"/><line style="stroke:#181818;stroke-width:1.0;stroke-dasharray:2.0,2.0;" x1="32.8413" x2="260.7573" y1="821.6055" y2="821.6055"/><text fill="#000000" font-family="sans-serif" font-size="13" font-weight="bold" lengthAdjust="spacing" textLength="14.46" x="44.8413" y="807.6973">22</text><text fill="#000000" font-family="sans-serif" font-size="13" lengthAdjust="spacing" textLength="132.1899" x="63.3013" y="799.0518">Confirms PUT success</text><text fill="#000000" font-family="sans-serif" font-size="13" lengthAdjust="spacing" textLength="182.8442" x="66.9131" y="816.3428">and shows edited patient profile</text><!--SRC=[fLLDZzem4BtdLrXS2j82gnwfL8a5zUD0TmMxjqgLiOV5RMAxjiEMVzzn78EJUBU7tiREl3SVRpnvTtHEsyLyhaigNLsLCwQgkONVDKW6Koxeiw5LKT3QALbNUp1eCwSC6Irv9UI8K4kejuf2K-C44ng9o0Dr0gJRgjg1Tp7Uo7cib7H6bIKOxyOkfuxlg7LUQhq3Sn8Co89y7LmsoMWR3hbWTxKeUOYq3sOtZ0vkIDu20cEmSuGRgdNWgnehvxEcZcuKXzAxSJnK_f2jRmjQMO7TFIVrNI-RR8J1SmTzHzalTJXWpTYAzTvt5Fwus4uqiqMkdRhMkNwyJqlbJXMeivULJ3y6yRppqoC1Bbnq8zgeWoYX6GbnekWKT0u0H5xrH3WpW2xs6dByqoevkI7VPOMqZ9PROChmRs7EBfp9K2Hyo1wbHkxFuAB6vysGR9m9C4dIlZ3X54SJ0pIz_d_s85aHsDgkU8KMv9CmrjsRDHneNRgbFKisdircasxnNiA8cIPfwTw05Hm6k3Pejrjl0TjaqpQ4sKRSerghYWevDi10d80_N6OfIRbz2YtAH-u_grwDrmSM_APfpFWnIJ5UnGZPub90cr6dg0JnfF5PGflR5oZHTzoot0nwXS9cPwH3CiwWUXtEJ4EWYDZ9X-8rDLCGVQ7u8d-q5xCTFS7gIEKps31EI9CPYw7WhqkE3pMcz6-HUM-jvANs2oO1v0J7cSfexe5lojw33PNlRwLqvQNnuc-aitEIPRXprDMMh51Tylxsbb39qnpwJMyNM5oDI1JMwm8Pv46OoZRhrTQCWRMu4Xj2UrGljjcvm8TRDmaHzcxn5m00]--></g></svg>